<?xml version="1.0" encoding="utf-8"?>
<!-- Generator: Adobe Illustrator 16.0.0, SVG Export Plug-In . SVG Version: 6.00 Build 0)  -->
<!DOCTYPE svg PUBLIC "-//W3C//DTD SVG 1.1//EN" "http://www.w3.org/Graphics/SVG/1.1/DTD/svg11.dtd">
<svg version="1.1" id="Ñëîé_1" xmlns="http://www.w3.org/2000/svg" xmlns:xlink="http://www.w3.org/1999/xlink" x="0px" y="0px"
	 width="600px" height="600px" viewBox="0 0 600 600" enable-background="new 0 0 600 600" xml:space="preserve">
<rect x="42" y="-422" display="none" fill="#FFFFFF" width="1400" height="1000"/>
<g display="none">
	<path display="inline" fill="#006689" d="M1199.985,448.815c0,0,9.975-7.269,21.639-4.564
		c11.665,2.705,22.882,17.697,22.882,17.697l7.717-65.877l-22.484,7.607L1199.985,448.815z"/>
	<path display="inline" fill="#004D68" d="M1206.394,439.095l23.345-35.416l22.484-7.607l-6.252,53.366
		c0,0-2.063-26.918-11.852-28.771C1224.332,418.812,1206.394,439.095,1206.394,439.095z"/>
	<path display="inline" fill="#FFC217" d="M1217.06,406.891c0,0-16.06,30.599-37.191,47.842c0,0,1.057,6.932,12.954,3.381
		c11.896-3.55,36.24-46.489,39.621-52.574L1217.06,406.891z"/>
	<path display="inline" fill="#FFC217" d="M1246.897,401.144c0,0-19.019,20.286-10.65,46.658s45.137,34.486,49.701,44.376
		c4.564,9.889-1.521,28.4,4.564,34.739c6.086,6.34,49.954-24.597,48.687-45.897c-1.268-21.3-20.286-8.114-27.386-40.064
		c-7.101-31.951,6.436-64.129,20.714-83.541C1332.527,357.414,1266.042,384.026,1246.897,401.144z"/>
	<path display="inline" fill="#EAA700" d="M1339.199,481.02c-1.268-21.3-20.286-8.114-27.386-40.064
		c-7.101-31.951,6.436-64.129,20.714-83.541c0,0-17.808,7.129-37.646,16.38c-4.664,15.345-12.21,42.613-12.906,60.483
		c-1.015,26.034,13.524,30.091,28.4,36.177c13.293,5.438,25.491,13.582,21.429,29.242
		C1336.513,493.39,1339.546,486.845,1339.199,481.02z"/>
	<path display="inline" fill="#D17E1C" d="M1339.199,481.02c-1.268-21.3-20.286-8.114-27.386-40.064
		c-7.101-31.951,6.436-64.129,20.714-83.541c0,0-7.822,3.133-18.871,7.936c-3.487,7.959-9.651,23.892-13.593,44.754
		c-5.747,30.429,0.766,45.138,12.555,52.068c11.789,6.93,18.589,6.894,22.271,15.721c2.977,7.139-1.213,17.434-2.925,21.112
		c-0.054,0.231-0.099,0.458-0.159,0.691C1336.513,493.39,1339.546,486.845,1339.199,481.02z"/>
	<path display="inline" fill="#FFE340" d="M1246.981,405.539c0,0-10.819,14.537-8.452,33.556s20.829,30.007,36.889,37.276
		s20.927,13.693,19.067,24.174c-1.859,10.481-5.748,18.089-1.69,21.132c4.057,3.043,18.934-7.101,19.778-10.65
		c0.846-3.55-10.649,3.212-10.819-3.212c-0.169-6.424,7.607-20.117,1.521-29.076c-5.216-7.681-23.777-8.6-37.698-14.201
		c-20.455-8.229-17.412-29.414-7.776-43.784C1267.438,406.384,1263.718,396.579,1246.981,405.539z"/>
	<path display="inline" fill="#FFE340" d="M1215.849,413.948c0,0-9.558,15.621-17.331,25.146s-15.297,14.624-15.582,15.694
		c-0.285,1.069,0.674,3.085,5.349,0.267c7.541-4.546,16.723-17.204,23.925-28.328c7.203-11.125,9.112-14.302,9.112-14.302
		L1215.849,413.948z"/>
	<polygon display="inline" fill="#EAA700" points="1221.321,412.426 1230.086,409.698 1226.104,416.483 1218.164,417.46 	"/>
	<polygon display="inline" fill="#EAA700" points="1243.992,404.816 1307.482,373.029 1294.218,391 1240.72,410.007 	"/>
	<path display="inline" fill="#D17E1C" d="M1285.113,452.97c0,0-4.673-5.186-2.723-24.414c1.951-19.229,10.509-47.896,10.509-47.896
		l25.685-14.762l-15.096,44.07c0,0-3.957-4.706-13.691,8.879s-5.671,37.827,7.701,44.819c13.373,6.992,16.602,8.404,16.602,8.404
		S1290.483,465.271,1285.113,452.97z"/>
	<path display="inline" fill="#FFC217" d="M1383.744,216.539c0,0-49.701-38.205-128.817-31.105
		c-79.115,7.101-99.063,63.226-99.063,63.226l146.398,8.452c0,0-2.367-16.566,17.919-29.753
		c20.286-13.186,53.759-9.467,57.478-8.452C1381.378,219.92,1383.744,216.539,1383.744,216.539z"/>
	<path display="inline" fill="#EAA700" d="M1383.744,216.539c0,0-97.775-32.315-137.344,37.348l55.861,3.225
		c0,0-0.719-19.061,17.919-29.753s43.573-11.411,57.478-8.452C1377.658,218.906,1381.631,219.836,1383.744,216.539z"/>
	<path display="inline" fill="#FFE340" d="M1155.863,248.659c0,0,12.427-33.764,52.195-51.284
		c39.769-17.52,81.608-14.507,113.179-7.561s59.633,23.513,62.507,26.725c0,0-66.353-40.826-144.454-19.525
		s-65.677,95.092-65.677,95.092L1155.863,248.659z"/>
	<path display="inline" fill="#D17E1C" d="M1383.744,216.539c0,0-36.016-12.109-73.625-5.611
		c-37.61,6.499-51.558,26.278-51.558,26.278l43.996,16.989c0,0,0-9.636,8.241-18.765c0,0-17.413,6.414-17.223-4.241
		c0.143-7.986,24.422-16.655,44.356-17.614c32.547-1.565,43.614,4.358,43.614,4.358L1383.744,216.539z"/>
	<path display="inline" fill="#5CB4E5" d="M999.271,321.689c0,0,72.887-90.95,184.798-97.035
		c111.912-6.086,202.452,81.482,202.452,85.878c0,4.395-107.747,108.53-225.068,111.573
		c-117.322,3.043-162.182-82.497-162.182-82.497V321.689z"/>
	<path display="inline" fill="#8DCFF7" d="M1386.491,310.701c0,0-65.236-35.586-203.183-24.09
		c-137.945,11.495-184.037,42.516-184.037,42.516v-7.1c0,0,80.578-99.332,190.461-97.677
		C1299.616,226.006,1375.714,293.289,1386.491,310.701z"/>
	<path display="inline" fill="#B3E6FF" d="M1192.882,235.135c110.792-4.733,193.64,75.566,193.64,75.566
		c-10.777-17.412-86.891-84.695-196.773-86.351c-109.884-1.655-190.477,97.677-190.477,97.677v1.601
		C999.271,323.628,1082.09,239.868,1192.882,235.135z"/>
	<path display="inline" fill="#4E99CC" d="M999.271,339.608c0,0,32.07,70.97,135.609,81.636s221.253-72.507,251.641-110.543
		c0,0-80.958,47.121-182.727,66.055c-101.77,18.934-204.523-47.629-204.523-47.629V339.608z"/>
	<path display="inline" fill="#247AA0" d="M1137.15,409.424c-83.354-8.393-127.182-56.159-137.879-71.915v2.1
		c0,0,32.07,70.97,135.609,81.636s221.283-72.507,251.67-110.543C1370.702,329.804,1234.976,419.273,1137.15,409.424z"/>
	<path display="inline" fill="#FFC217" d="M1015.396,296.163c-0.258,0.669-0.674,74.551-0.167,75.903s25.981,25.02,26.996,24.682
		s0.223-127.482-0.453-127.145S1016.24,293.965,1015.396,296.163z"/>
	<path display="inline" fill="#EAA700" d="M1026.201,367.333c-12.301-5.56-10.25-14.2-11.212-17.958
		c-0.006,12.406,0.058,22.207,0.239,22.691c0.507,1.353,25.982,25.02,26.996,24.682c0.395-0.132,0.522-12.517,0.484-36.008
		C1042.715,367.502,1038.88,373.063,1026.201,367.333z"/>
	<path display="inline" fill="#FFC217" d="M1067.767,244.82c-3.28,2.273-5.057,5.832-5.071,9.506
		c-0.096,24.477-0.578,154.932-0.057,156.77c0.063,0.218,0.223,0.516,0.468,0.865c4.6,6.546,16.177,3.431,16.177-4.266V247.384
		c0-2.596-2.414-4.738-5.362-4.653C1072.092,242.783,1069.953,243.305,1067.767,244.82z"/>
	<path display="inline" fill="#EAA700" d="M1072.014,382.548c-4.307,0.776-7.431-1.635-9.612-4.702
		c0.007,19.06,0.071,32.666,0.237,33.25c0.063,0.218,0.223,0.516,0.468,0.865c4.6,6.546,16.177,3.431,16.177-4.266v-30.939
		C1077.864,379.546,1075.607,381.899,1072.014,382.548z"/>
	<path display="inline" fill="#FFC217" d="M1104.872,226.445c-3.641,2.699-5.613,6.922-5.629,11.282
		c-0.106,29.052-0.643,183.885-0.063,186.066c0.068,0.258,0.246,0.611,0.519,1.026c5.106,7.77,17.958,4.071,17.958-5.063v-190.27
		c0-3.08-2.679-5.624-5.952-5.522C1109.674,224.028,1107.301,224.646,1104.872,226.445z"/>
	<path display="inline" fill="#EAA700" d="M1108.254,393.52c-4.574-0.095-7.484-2.443-9.336-5.337
		c0.016,20.583,0.089,34.957,0.263,35.611c0.068,0.258,0.246,0.611,0.519,1.026c5.106,7.77,17.959,4.071,17.959-5.063v-30.587
		C1116.016,391.607,1113.174,393.623,1108.254,393.52z"/>
	<path display="inline" fill="#FFC217" d="M1143.615,210.958c-3.969,3.038-6.12,7.794-6.137,12.704
		c-0.115,32.714-0.701,207.067-0.068,209.523c0.074,0.291,0.269,0.689,0.565,1.156c5.567,8.749,19.578,4.585,19.578-5.701V214.384
		c0-3.469-2.921-6.333-6.489-6.219C1148.851,208.235,1146.263,208.932,1143.615,210.958z"/>
	<path display="inline" fill="#EAA700" d="M1148.679,399.41c-5.234-0.275-8.967-2.204-11.553-4.393
		c0.019,22.144,0.1,37.452,0.284,38.168c0.074,0.291,0.269,0.689,0.565,1.156c5.567,8.749,19.578,4.585,19.578-5.701v-31.636
		C1155.307,398.57,1152.406,399.606,1148.679,399.41z"/>
	<path display="inline" fill="#FFE340" d="M1018.171,338.637c0,0-0.38-40.318,0-42.094s21.554-22.563,21.554-22.563l0.508,37.524
		c0,0-2.536-3.17-9.256-2.028C1024.257,310.616,1019.059,321.773,1018.171,338.637z"/>
	<path display="inline" fill="#FFE340" d="M1064.449,314.166c0,0-0.213-54.235,0-60.225c0.212-5.988,11.157-11.918,12.045-4.944
		c0.887,6.974,0,58.196,0,58.196s-1.396-33.083-4.691-33.214C1068.506,273.848,1064.322,293.88,1064.449,314.166z"/>
	<path display="inline" fill="#FFE340" d="M1101.533,295.655v-59.844c0,0,1.03-7.734,6.387-9.256s6.449,2.789,6.449,5.452
		c0,2.662,0,58.576,0,58.576s-0.901-22.441-6.322-21.428C1102.626,270.171,1101.533,295.655,1101.533,295.655z"/>
	<path display="inline" fill="#FFE340" d="M1140.042,289.738v-67.859c0,0,1.188-8.771,7.025-10.495
		c5.837-1.726,7.094,3.163,7.094,6.182c0,3.02,0,66.422,0,66.422s-1.048-25.447-6.955-24.297S1140.042,289.738,1140.042,289.738z"/>
	<polygon display="inline" fill="#4E99CC" points="1157.584,226.84 1157.584,405.69 1169.272,380.119 1161.578,226.238 	"/>
	<polygon display="inline" fill="#4E99CC" points="1117.792,237.536 1117.792,396.705 1124.639,380.231 1121.215,236.07 	"/>
	<polygon display="inline" fill="#4E99CC" points="1079.283,255.507 1079.283,376.595 1087.413,369.321 1082.493,253.582 	"/>
	<polygon display="inline" fill="#4E99CC" points="1042.149,281.046 1042.709,360.74 1050.05,354.807 1044.626,278.826 	"/>
	<polygon display="inline" fill="#247AA0" points="1157.655,226.84 1158.583,412.536 1165.286,412.536 1159.011,226.84 	"/>
	<polygon display="inline" fill="#247AA0" points="1117.792,237.536 1117.792,410.824 1122.368,407.469 1118.969,236.895 	"/>
	<polygon display="inline" fill="#247AA0" points="1079.283,255.507 1079.283,399.7 1083.349,396.752 1080.063,255.04 	"/>
	<polygon display="inline" fill="#247AA0" points="1042.149,281.046 1042.715,382.157 1047.884,380.578 1042.709,280.708 	"/>
</g>
<g display="none">
	<rect x="564.688" y="-211.288" display="inline" fill="#B5064D" width="37.525" height="11.639"/>
	<rect x="564.688" y="-204.214" display="inline" fill="#96003D" width="37.525" height="4.193"/>
	<circle display="inline" fill="#FFC217" cx="556.16" cy="-205.468" r="22.174"/>
	<circle display="inline" fill="#FFE340" cx="553.752" cy="-210.63" r="14.604"/>
	<path display="inline" fill="#8608C1" d="M622.48-243.505c-0.603,0-5.82-0.401-6.623,0s-22.273,16.254-22.875,17.659
		c-0.603,1.404,0,41.538,0,42.541s27.09,28.093,27.09,28.093s4.816-15.853,7.424-47.357
		C630.105-234.074,622.48-243.505,622.48-243.505z"/>
	<path display="inline" fill="#640089" d="M621.427-243.364c0,0,0.739,63.095-4.522,84.975l-23.922-24.917l-0.268-22.163
		c0,0-1.99,12.371,6.889,18.24c8.88,5.87,13.244-2.257,15.502-25.133s0.752-31.144,0.752-31.144L621.427-243.364z"/>
	<path display="inline" fill="#FFC217" d="M650.531-280.839c0,0,35.761-44.097,93.252-45.902
		c57.49-1.806,88.192,27.391,88.795,46.655c0.602,19.264-47.559,117.691-128.227,118.293S635.237-257.662,650.531-280.839z"/>
	<path display="inline" fill="#FFE340" d="M670.841-227.813c-23.287-11.559-8.829-63.21,35.518-82.073
		c44.348-18.863,92.307-3.813,93.109,9.431c0.803,13.244-40.696,18.461-63.392,34.515
		C713.382-249.886,698.332-214.167,670.841-227.813z"/>
	<path display="inline" fill="#EAA700" d="M660.259-290.617c0,0-18.62,31.58-16.11,62.975s24.818,57.055,54.375,55.548
		c29.556-1.506,43.148-15.922,58.501-41.038c15.354-25.116,13.59-35.901,32.131-54.689c18.54-18.788,39.898-23.938,39.898-23.938
		l-3.214-4.947c0,0-14.313-17.669-36.897-24.153c0,0,29.362,14.514,30.392,23.013c0,0-30.1,5.418-51.17,32.708
		s-31.115,67.485-72.842,74.447s-48.762-49.163-38.93-78.862s24.361-36.997,24.361-36.997L660.259-290.617z"/>
	<path display="inline" fill="#B76400" d="M825.84-296.705c0,0-0.412-0.506-1.197-1.373c0.197,1.101,0.279,2.235,0.287,3.418
		c0.001,0.244-0.068,0.443-0.181,0.598c0.108,0.271,0.214,0.542,0.306,0.815c0,0-28.807,6.66-49.877,33.951
		c-21.069,27.291-21.19,71.204-73.144,77.2c-42.024,4.85-61.171-35.463-48.892-85.854c3.203-13.146,8.801-22.138,14.122-28.113
		l-7.006,5.446c0,0-18.62,31.58-16.11,62.975s24.818,57.055,54.375,55.548c29.556-1.506,43.148-15.922,58.501-41.038
		c15.354-25.116,13.59-35.901,32.131-54.689c18.54-18.788,39.898-23.938,39.898-23.938L825.84-296.705z"/>
	<path display="inline" fill="#8608C1" d="M669.529-61.748c0,0-0.996-28.106,22.783-35.029c23.778-6.924,27.842,8.578,27.842,8.578
		l26.488-48.611c0,0-47.408-4.516-70.735,22.273S669.529-61.748,669.529-61.748z"/>
	<path display="inline" fill="#FFC217" d="M736.076-64.27c0,0-3.882-10.234,4.697-31.605c8.578-21.371,26.789-35.818,26.789-35.818
		l-26.939-0.752c0,0-12.643,10.986-21.521,32.508C710.222-78.416,725.661-66.527,736.076-64.27z"/>
	<path display="inline" fill="#E5285D" d="M590.273-32.814c-1.387-10.139-2.459-9.708,14.397-69.506
		C621.527-162.12,621.15-200.133,621-227.675s-1.066-35.236-0.765-38.547c0.301-3.311,26.597-26.497,30.302-26.949
		s9.722,1.199,9.722,2.554s-12.794,20.767-13.396,53.275c-0.603,32.508,18.66,63.208,48.459,60.801
		c29.799-2.408,53.822-13.546,68.119-50.719c14.298-37.173,49.145-70.986,82.668-64.565v114.38c0,0-20.611,43.645-67.567,46.654
		c-46.956,3.011-87.813,3.612-104.971,37.625c-17.157,34.014,10.575,45.893,6.962,67.344c-3.611,21.451-27.07,20.85-49.043,17.238
		C609.518-12.197,591.881-21.063,590.273-32.814z"/>
	<path display="inline" fill="#B5064D" d="M677.036-16.587c0,0,7.851-15.175-5.594-31.429s-25.484-30.701-19.264-57.992
		s35.512-40.435,65.815-45.25s76.658-1.806,104.65-43.645c27.993-41.839,9.782-97.388,9.782-97.388s7.96-1.139,13.683,0.466v114.38
		c0,0-13.818,32.727-48.443,42.927s-61.678,2.391-92.811,14.121s-40.131,42.339-35.763,57.36S687.495-32.114,677.036-16.587z"/>
	<path display="inline" fill="#FFC217" d="M846.109-291.333v114.38c0,0,1.991,2.97,7.208,0.682
		c5.218-2.288,23.863-17.338,23.863-17.338v-77.256l-27.375-23.077C849.806-293.942,846.928-295.046,846.109-291.333z"/>
	<polygon display="inline" fill="#8608C1" points="877.181,-263.271 877.181,-238.739 877.181,-230.311 877.181,-206.231 
		902.528,-222.485 902.528,-230.311 902.528,-238.739 902.528,-246.791 	"/>
	<path display="inline" fill="#FFE340" d="M850.337-236.083c0,0,0-50.446,0.15-51.199c0.15-0.752,1.929-1.293,1.929-1.293
		l21.494,18.422v34.916c0,0-2.004-21.07-11.787-23.177C852.341-260.521,850.337-236.083,850.337-236.083z"/>
	<path display="inline" fill="#AA5DCE" d="M901.302-235.237v-10.836l-22.485-14.147v22.575c0,0,1.159-9.782,9.587-8.127
		C896.831-244.117,901.302-238.247,901.302-235.237z"/>
	<path display="inline" fill="#EAA700" d="M846.109-219.585v42.14c0,0,2.191,2.95,7.208,1.174l23.863-17.338v-34.404
		c0,0-0.178,18.963-6.8,23.779s-19.887,7.675-21.241,6.622C847.785-198.666,846.109-219.585,846.109-219.585z"/>
	<path display="inline" fill="#640089" d="M902.528-234.033v12.04l-25.348,15.762v-24.19c0,0,0.574,10.686,6.745,9.331
		s14.192-4.816,15.848-6.17C901.43-228.615,902.528-234.033,902.528-234.033z"/>
	<path display="inline" fill="#FF7381" d="M651.576-290.421c-1.203,0-27.09,22.274-27.49,25.886
		c-0.402,3.612,6.621,33.311,1.806,84.079c-4.816,50.768-32.509,126.018-30.702,141.27c1.806,15.25,28.494,23.478,43.344,26.086
		c14.85,2.609,25.284-15.05,13.846-26.287c-11.438-11.237-32.508-15.853-33.711-51.371c-1.205-35.518,23.277-53.778,23.076-103.142
		c-0.201-49.364-4.168-68.9-1.354-79.414S651.576-290.421,651.576-290.421z"/>
	<path display="inline" fill="#FF7381" d="M828.213-288.575c-3.311-0.691-27.842,9.542-47.407,41.448
		c-19.565,31.906-24.832,81.42-87.741,80.066c0,0-46.183-1.479-51.837-53.866l-7.31,67.562l-0.17,5.774
		c0,0,3.029-16.008,14.166-16.609c11.138-0.602,15.652,15.05,69.23,7.374c53.578-7.675,91.955-70.283,102.941-91.203
		S828.213-288.575,828.213-288.575z"/>
	<path display="inline" fill="#96003D" d="M668.273-51.68c0,0-27.331-27.386-15.124-58.035c12.207-30.65,41.278-38.146,63.277-41.9
		c21.999-3.755,58.606,0.029,88.688-24.08c30.081-24.109,33.122-59.307,33.104-78.368s-5.896-38.227-5.896-38.227
		s11.744-0.897,13.788,0.956v114.008c0,0-3.815-53.56-3.815-55.464s1.56,38.26-16.626,57.384
		c-20.986,22.071-41.403,27.107-83.66,29.833c-42.258,2.726-73.33,8.722-83.414,40.883S668.273-51.68,668.273-51.68z"/>
	<path display="inline" fill="#96003D" d="M813.648-141.355c0,0,18.207-12.304,24.802-23.052
		c6.595-10.749,7.659-12.918,7.659-12.918v-87.08l-9.402,48.65l-18.003,47.06c0,0,14.527-12.105,16.571-11.492
		c2.045,0.613-1.226,19.624-24.12,34.955s-50.704,16.623-50.704,16.623S792.839-129.301,813.648-141.355z"/>
	<path display="inline" fill="#640089" d="M669.529-61.748c0,0-6.166-25.021,13.254-44.441
		c19.419-19.42,52.686-20.854,52.686-20.854s-15.01,18.076-18.414,33.672l-2.383-2.597c0,0,7.563-19.215,0.613-19.828
		c-6.95-0.613-26.364,4.088-36.795,24.325S669.529-61.748,669.529-61.748z"/>
	<path display="inline" fill="#AA5DCE" d="M610.377-236.605c0,0-14.711,10.864-15.271,11.837s-0.561,25.32-0.561,25.32
		s8.585,1.545,14.035-13.718C614.031-228.429,610.377-236.605,610.377-236.605z"/>
	<path display="inline" fill="#AA5DCE" d="M690.756-98.357c0,0,9.675-11.238,16.625-11.784c6.95-0.545,4.906,9.131,2.861,9.54
		C708.198-100.193,701.744-102.921,690.756-98.357z"/>
	<path display="inline" fill="#FFE340" d="M745.538-127.044c0,0-17.454,19.656-20.169,37.344s5.779,21.259,5.779,21.259
		s-2.082-13.176,5.336-30.981s20.229-29.187,20.229-29.187L745.538-127.044z"/>
	<path display="inline" fill="#FFF2B0" d="M785.876-303.926c-1.636-5.724-26.381-11.217-49.8-9.812
		c-23.418,1.405-28.15,10.084-27.878,11.447s17.989-2.998,42.791,1.635S785.876-303.926,785.876-303.926z"/>
	<path display="inline" fill="#FFF2B0" d="M705.746-299.199c0,0-10.357,9.446-7.359,13.807s40.064-2.317,41.428-7.291
		S705.746-299.199,705.746-299.199z"/>
</g>
<g display="none">
	<path display="inline" fill="#FFC217" d="M1343.828-224.042l-79.639,74.724c0,0,1.933,12.216,9.693,23.427l86.173-80.856
		L1343.828-224.042z"/>
	<polygon display="inline" fill="#E5285D" points="1352.883,-225.266 1343.327,-224.576 1360.221,-206.571 1361.893,-215.663 	"/>
	
		<rect x="1254.816" y="-173.769" transform="matrix(0.7293 -0.6842 0.6842 0.7293 471.7729 853.1083)" display="inline" fill="#EAA700" width="118.144" height="8.367"/>
	
		<rect x="1246.439" y="-186.228" transform="matrix(-0.7293 0.6842 -0.6842 -0.7293 2130.1104 -1207.6316)" display="inline" fill="#FFE340" width="115.079" height="7.687"/>
	<path display="inline" fill="#00366B" d="M1262.951-73.59c0,0,1.26-25.592,14.964-35.441l-15.967-75.551l-16.909,71.783
		L1262.951-73.59z"/>
	<path display="inline" fill="#FFC217" d="M1106.48-194.719c0,0,21.937-54.666,23.67-56.292
		c1.734-1.627,129.77-36.495,129.77-36.495l-41.026,41.002c0,0,2.99-8.574-6.058-8.862s-61.561,11.367-62.66,13.402
		s-12.928,32.193-12.077,33.902C1138.95-206.353,1106.48-194.719,1106.48-194.719z"/>
	<path display="inline" fill="#FFE340" d="M1130.15-251.012c-1.733,1.626-23.67,56.292-23.67,56.292s1.449-0.519,3.721-1.352
		c4.134-9.74,21.998-51.784,22.617-52.365c0.598-0.562,94.597-26.368,121.877-33.849l5.225-5.222
		C1259.92-287.507,1131.885-252.639,1130.15-251.012z"/>
	<path display="inline" fill="#EAA700" d="M1143.389-245.188c-1.274,1.045-11.951,30.735-16.188,42.616
		c6.172-2.501,11.24-4.801,10.897-5.49c-0.851-1.709,10.978-31.867,12.077-33.902s53.612-13.69,62.66-13.402
		s6.058,8.862,6.058,8.862l9.57-9.565c-0.6-3.688-2.528-8.907-8.652-9.102C1210.312-265.474,1144.983-246.497,1143.389-245.188z"/>
	<path display="inline" fill="#B5064D" d="M1204.003-53.475c0,0,13.433-2.946,16.774,1.818c3.342,4.764,2.872,19.498-13.668,39.156
		c0,0-1.588,1.113-2.21,8.469c-0.622,7.354,9.821,67.524,11.98,70.765s61.864,11.546,65.942,11.481s11.455-6.234,10.113-12.875
		c-1.341-6.642-31.604-141.13-37.75-179.752c-6.145-38.623,9.091-66.085,33.823-87.034s34.315-46.014,34.315-46.014l-104.915,73.51
		L1204.003-53.475z"/>
	<path display="inline" fill="#E5285D" d="M1233.114,18.021c-4.634-33.271,20.341-53.694,17.235-77.363
		c-3.105-23.67-36.705-74.758-36.705-74.758l0,0l-9.642,80.625c0,0,13.433-2.946,16.774,1.818
		c3.342,4.764,2.872,19.498-13.668,39.156c0,0-1.588,1.113-2.21,8.469c-0.622,7.354,9.821,67.524,11.98,70.765
		s61.864,11.546,65.942,11.481s11.455-6.234,10.113-12.875c-0.045-0.225-0.126-0.607-0.235-1.115l-19.456,1.911
		C1273.244,66.136,1237.748,51.291,1233.114,18.021z"/>
	<path display="inline" fill="#2B5DA5" d="M1289.424-316.468l-101.627,95.355c0,0-66.063-1.45-117.553,43.101
		c-51.489,44.551-39.921,93.765-39.921,93.765l67.421,75.864c0,0,38.416,12.076,93.408-32.752
		c54.992-44.827,55.521-134.869,55.521-134.869l120.495-112.314c0,0,7.134-8.583,4.21-13.738l-35.665-38.01
		C1335.714-340.066,1325.06-345.441,1289.424-316.468z"/>
	<path display="inline" fill="#3D81C4" d="M1343.635-331.625l-7.921-8.441c0,0-10.654-5.375-46.29,23.598l-101.627,95.355
		c0,0-66.063-1.45-117.553,43.101c-51.489,44.551-39.921,93.765-39.921,93.765l16.987,19.114l151.104-130.232L1343.635-331.625z"/>
	<path display="inline" fill="#81B7E2" d="M1206.076-189.337c-39.047-38.57-171.75,30.44-176.813,87.756l1,17.271l67.451,75.896
		l18.234,1.316c0,0,37.281-9.771,76.686-60.787S1226.648-169.016,1206.076-189.337z"/>
	<path display="inline" fill="#E5285D" d="M1170.738-144.143c-24.667-28.978-106.57-1.322-144.463,34.734
		c-37.893,36.056-47.613,81.289-21.667,111.615c25.946,30.325,69.253,19.283,105.282-6.999S1200.173-109.565,1170.738-144.143z"/>
	<path display="inline" fill="#FF7381" d="M1126.857-133.773c-11.671-14.709-61.286,2.697-97.392,35.682
		s-32.579,62.402-22.88,74.744c9.699,12.341,42.669,6.986,80.004-25.789C1123.926-81.911,1138.909-118.582,1126.857-133.773z"/>
	<path display="inline" fill="#B5064D" d="M1105.034-151.586c0,0,48.167-14.722,65.704,7.443
		c17.538,22.166,9.049,69.504-40.529,120.976c-49.577,51.472-99.421,56.483-125.601,25.374
		c-26.181-31.109-9.426-66.514-9.426-66.514s-12.119,23.907,4.666,51.418c16.785,27.512,72.603,11.627,113.274-28.416
		c40.673-40.043,44.752-95.031,33.841-105.859C1136.052-157.991,1105.034-151.586,1105.034-151.586z"/>
	<path display="inline" fill="#84003C" d="M1105.034-151.586c0,0,48.167-14.722,65.704,7.443
		c17.538,22.166,9.049,69.504-40.529,120.976c-49.577,51.472-99.421,56.483-125.601,25.374
		c-26.181-31.109-9.426-66.514-9.426-66.514s-11.249,29.439,5.665,56.871c27.572,44.717,82.037,20.365,122.709-19.679
		c40.673-40.044,55.466-92.854,43.127-113.995C1150.833-168.265,1105.034-151.586,1105.034-151.586z"/>
	<polygon display="inline" fill="#E5285D" points="1335.714,-340.066 1371.754,-301.656 1372.732,-329.157 1360.469,-342.227 	"/>
	<path display="inline" fill="#0E4689" d="M1242.621-196.745c0,0,4.529,10.851,4.021,20.716l120.511-112.302
		c0,0,7.562-7.452,4.601-13.326l-7.508-8.002L1242.621-196.745z"/>
	<path display="inline" fill="#E5285D" d="M1258.193-332.219c0,0,48.365,45.185,43.122,130.605l10.758-37.818l-30.519-85.638
		l-14.411-15.359L1258.193-332.219z"/>
	<path display="inline" fill="#FFC217" d="M1280.144-323.953c0,0,35.547,83.589,21.468,122.306l29.207-27.405
		c0,0,16.169-36.491-27.238-116.43L1280.144-323.953z"/>
	<path display="inline" fill="#FFC217" d="M1266.762-177.365c0,0-2.739,33.058,27.311,60.697l-8.97,25.721
		c0,0-17.486-11.82-26.061-34.99C1250.468-149.108,1266.762-177.365,1266.762-177.365z"/>
	<path display="inline" fill="#FFE340" d="M1294.412-291.406c0,0-7.453-21.474-11.971-31.902l20.306-19.052
		c0,0,7.372,13.971,16.043,33.536c0,0-4.981-8.116-13.71-2.183S1294.412-291.406,1294.412-291.406z"/>
	<path display="inline" fill="#EAA700" d="M1301.444-254.866c0,0,6.897,30.325,0.167,53.219l29.207-27.405
		c0,0,6.468-24.968-0.517-48.925c0,0-2.386,9.348-14.046,18.971C1304.596-249.381,1301.444-254.866,1301.444-254.866z"/>
	<path display="inline" fill="#B5064D" d="M1354.485-320.061l17.269,18.405l0.979-27.501l-6.258-6.668c0,0,1.662,3.331-0.103,10.002
		s-4.659,9.262-5.576,9.621S1354.485-320.061,1354.485-320.061z"/>
	<path display="inline" fill="#FF7381" d="M1337.895-339.102l10.511,11.203c0,0,0.352-3.84,4.958-6.281
		c4.605-2.441,9.378-2.906,9.378-2.906l-3.629-3.868L1337.895-339.102z"/>
	<path display="inline" fill="#4B94C6" d="M1154.533-154.266c0,0,10.044,2.488,16.205,10.124c6.162,7.637,13.41,21.48,3.646,53.518
		s-43.334,68.426-61.371,83.279c0,0,20.318-0.389,60.782-38.854c40.464-38.464,46.429-80.139,46.429-80.139
		s-12.307,33.205-40.978,65.498c-16.003,18.025-20.775,15.545-20.775,15.545s21.254-21.448,30.028-53.191
		C1197.272-130.229,1173.063-152.168,1154.533-154.266z"/>
	<path display="inline" fill="#ABDDFF" d="M1039.622-122.183c0,0,11.048-28.011,64.162-55.546s87.752-17.234,97.559-6.79
		c21.596,23.003,9.714,60.022,2.075,63.175s2.467-17.927-28.405-38.47C1144.14-180.356,1085.32-163.473,1039.622-122.183z"/>
	<path display="inline" fill="#FF7381" d="M1215.1-60.043c0,0,9.849,1.463,12.358,9.367s-7.946,27.082-13.383,34.413
		c-5.436,7.331-5.652,21.361-5.058,24.372s9.396,51.847,11.176,53.744c1.78,1.898,42.941,10.112,42.941,10.112
		s-25.288-0.806-37.477-29.959c-12.189-29.153-10.402-48.671,0.367-61.898c10.769-13.228,20.67-27.87,14.658-41.409
		C1234.671-74.839,1215.1-60.043,1215.1-60.043z"/>
	<path display="inline" fill="#FFAEBA" d="M1107.439-126.295c-3.203-8.184-45.975,7.097-60.021,21.125
		c-14.047,14.027-3.049,20.726,10.222,16.938C1070.909-92.019,1109.355-121.4,1107.439-126.295z"/>
	<path display="inline" fill="#FFAEBA" d="M1029.891-86.539c-7.003-0.564-31.516,33.208-24.979,47.781s40.988-26.672,37.928-38.967
		C1039.779-90.018,1029.891-86.539,1029.891-86.539z"/>
	<path display="inline" fill="#84003C" d="M1301.35-226.587l-54.704,50.556c0,0-3.492,45.619-14.122,73.49l4.515,8.494
		c0,0,10.332-33.78,12.89-39.508c2.558-5.727,3.904,3.75,3.904,3.75s3.496-27.848,9.89-40.761
		c6.395-12.914,10.443-16.385,13.952-20.043c3.51-3.658,21.393-19.706,24.038-24.089L1301.35-226.587z"/>
	<path display="inline" fill="#FFE340" d="M1263.363-167.441c0,0-5.039,11.921-0.904,31.124s18.54,32.951,20.242,33.696
		c1.703,0.744,7.127-9.697,6.264-12.4s-15.472-10.071-21.82-30.208C1260.795-165.366,1263.363-167.441,1263.363-167.441z"/>
</g>
<g>
	<path fill="#E5285D" d="M296.156,328.95c0,0-2.415,1.534,3.045,16.617c5.461,15.083,12.36,17.42,12.36,17.42l-5.587,6.162
		c0,0-13.626-9.879-17.605-31.612L296.156,328.95z"/>
	<path fill="#E5285D" d="M296.191,395.174c0,0,25.335-29.429,26.391-33.2c1.055-3.771-3.237-16.81-9.845-25.165
		s-17.006-9.819-17.006-9.819l13.894-15.32c0,0,8.623,7.145,17.089,20.9s10.557,29.273,9.712,31.322
		c-0.844,2.049-33.289,41.041-33.289,41.041L296.191,395.174z"/>
	<path fill="#B5064D" d="M314.605,333.072c-5.236-5.915-11.391-8.869-15.164-10.174l-3.71,4.091c0,0,10.398,1.464,17.006,9.819
		s10.927,21.418,9.87,25.189c-1.055,3.771-26.403,33.188-26.403,33.188l2.086,2.936c7.437-9.094,26.867-32.92,28.093-35.625
		C327.902,359.146,322.948,342.494,314.605,333.072z"/>
	<path fill="#84003C" d="M309.625,311.669l-2.917,3.216c2.719,1.861,7.22,5.445,11.911,11.526
		c7.375,9.559,15.912,29.515,14.521,36.076l-31.796,39.925l1.786,2.515c0,0,32.429-39.007,33.273-41.056s-1.223-17.545-9.688-31.301
		C318.25,318.814,309.625,311.669,309.625,311.669z"/>
	<path fill="#FFC217" d="M198.522,434.723c0,0,38.669-30.229,53.335-20.082c14.665,10.146,4.996,29.748,13.135,60.995
		c8.14,31.247,30.476,38.894,34.941,38.438c4.465-0.454,27.545-25.906,30.026-33.112s-15.743-46.698-31.456-87.966
		c-15.714-41.268-5.471-68.454-5.471-68.454L198.522,434.723z"/>
	<path fill="#DD9300" d="M263.708,398.593c-9.792-9.179-26.826-2.238-37.148,3.444l-28.037,32.686c0,0,38.669-30.229,53.334-20.082
		c9.334,6.458,8.812,16.754,9.296,31.438C266.922,422.766,276.126,410.234,263.708,398.593z"/>
	<path fill="#DD9300" d="M267.354,354.479c1.117,6.937,4.105,20.13,12.097,41.278c12.815,33.911,32.053,76.011,35.063,86.845
		c2.764,9.952-1.461,19.542-2.168,21.038c7.689-8.041,16.165-18.47,17.614-22.679c2.481-7.206-15.743-46.698-31.456-87.966
		c-15.714-41.268-5.471-68.454-5.471-68.454L267.354,354.479z"/>
	<path fill="#2B5DA5" d="M362.512,97.233L133.358,349.936l-15.718-14.254l-9.649,10.641c0,0-3.834,36.601,27.979,69.052
		c31.814,32.452,52.292,32.559,52.292,32.559l253.145-279.157L362.512,97.233z"/>
	<path fill="#0E4689" d="M188.262,447.933l253.145-279.157l-25.392-23.025L155.686,432.83
		C176.354,448.308,188.262,447.933,188.262,447.933z"/>
	<path fill="#3D81C4" d="M362.512,97.233L133.358,349.936l-15.718-14.254l-9.649,10.641c0,0-2.318,27.461,17.185,55.765
		l258.798-285.392L362.512,97.233z"/>
	<path fill="#FFC217" d="M304.594,306.89c0,0,39.107,0.542,40.945-0.492c1.84-1.035,82.15-91.12,82.15-91.12l-21.961-19.915
		L304.594,306.89z"/>
	<path fill="#FFC217" d="M336.693,117.365c0,0,24.066,14.056,41.689,30.375c17.624,16.319,34.555,33.692,34.555,33.692l31.17-15.296
		l12.247-30.266c0,0-9.36-15.749-33.939-36.688c-24.58-20.938-39.906-30.107-42.194-29.819
		C377.932,69.653,336.693,117.365,336.693,117.365z"/>
	<path fill="#FFC217" d="M253.5,180.394c0,0,11.635,10.775,14.032,12.725c2.398,1.949,23.495,10.724,25.411,8.858
		c1.917-1.865,29.095-31.707,29.52-32.672c0.425-0.966-23.11-37.393-23.481-37.729c-0.37-0.336-5.65,5.458-5.65,5.458
		s4.535,8.391,3.986,9.244s-26.667,29.63-26.667,29.63l-7.851-5.769L253.5,180.394z"/>
	<path fill="#FFE340" d="M373.103,137.548c0,0-18.433-14.351-32.307-21.19c0,0,37.901-43.308,39.83-43.924
		c1.929-0.615,22.216,12.209,33.344,22.469c0,0-10.867-3.1-27.094,14.608C370.649,127.218,373.103,137.548,373.103,137.548z"/>
	<path fill="#DD9300" d="M412.938,181.433l43.926-45.983c0,0-12.76-16.795-21.855-25.014c0,0,9.568,7.325-10.824,30.373
		c-20.394,23.048-30.022,21.934-30.022,21.934L412.938,181.433z"/>
	<path fill="#DD9300" d="M293.318,137.023c0,0,3.994,3.284,12.768,16.08c8.772,12.796,8.561,18.12,6.842,20.389
		c-1.721,2.269-18.316,22.681-20.099,23.653c0,0,17.802-21.121,17.671-26.191c-0.129-5.071-13.189-24.682-13.189-24.682
		L293.318,137.023z"/>
	<path fill="#DD9300" d="M262.575,170.386l-2.689,2.966c0,0,7.578,9.91,16.422,16.917c8.844,7.007,14.95,8.041,14.95,8.041
		s-9.329-5.194-16.338-12.114c-7.01-6.919-4.25-10.271-4.25-10.271L262.575,170.386z"/>
	<path fill="#FFE340" d="M273.228,174.192c0,0-2.435,4.547,2.322,8.86s10.635,8.631,10.635,8.631s14.506-14.878,14.457-26.742
		c-0.049-11.865-5.656-14.247-5.656-14.247L273.228,174.192z"/>
	<path fill="#2B5DA5" d="M117.532,335.584c0,0,3.199,14.722,19.039,30.773l-3.471-16.656L117.532,335.584z"/>
	<path fill="#FFC217" d="M396.137,199.414l21.168,27.526l60.502-66.72c0,0,3.221-8.562-3.057-15.604
		c-6.277-7.044-9.701-10.148-9.701-10.148s-3.263-3.297-8.701,1.396C450.909,140.559,396.137,199.414,396.137,199.414z"/>
	<path fill="#FFE340" d="M334.887,301.479c0,0-23.133,1.426-23.318,1.258s87.797-95.329,87.797-95.329l9.141,15.494
		c0,0-6.681-3.807-14.313,3.12c-7.632,6.926-55.969,62.837-58.623,66.509S334.887,301.479,334.887,301.479z"/>
	<path fill="#FFE340" d="M412.325,213.475l-11.286-15.301l55.051-58.659c0,0,5.613-4.701,8.664-2.105
		c3.05,2.596,8.299,8.538,9.758,11.212c0,0-8.001-6.073-34.942,22.52S412.325,213.475,412.325,213.475z"/>
	<path fill="#E5285D" d="M147.462,334.382c0,0,17.127,46.192,69.408,82.271l19.23-21.221c0,0-41.083-23.591-70.23-81.35
		L147.462,334.382z"/>
	<path fill="#E5285D" d="M178.972,299.635c0,0,17.127,46.191,69.408,82.27l19.23-21.221c0,0-41.083-23.59-70.23-81.35
		L178.972,299.635z"/>
	<path fill="#FF7381" d="M162.124,361.342l19.238-21.214c0,0-9.519-14.408-15.491-26.046l-18.574,20.483
		C147.296,334.565,154.522,350.895,162.124,361.342z"/>
	<path fill="#FF7381" d="M193.634,326.595l19.237-21.215c0,0-9.519-14.408-15.491-26.046l-18.574,20.483
		C178.806,299.817,186.032,316.146,193.634,326.595z"/>
	<path fill="#B5064D" d="M190.185,394.787l18.906-20.849c0,0,16.838,15.936,27.075,21.552l-19.234,21.218
		C216.931,416.708,200.678,405.69,190.185,394.787z"/>
	<path fill="#B5064D" d="M221.694,360.039l18.906-20.849c0,0,16.838,15.936,27.075,21.553l-19.234,21.217
		C248.441,381.96,232.188,370.943,221.694,360.039z"/>
	<path fill="#DD9300" d="M398.813,202.855l18.671,24.248l-72.05,79.344l-40.906,0.383c0,0,35.292-2.543,36.729-4.128
		s68.438-77.036,68.26-78.309c-0.18-1.273-13.086-19.646-13.086-19.646L398.813,202.855z"/>
	<path fill="#DD9300" d="M465.125,134.474l10.35,10.985c0,0,7.748,5.753,2.332,14.762l-60.438,66.649l-5.004-6.382
		c0,0,7.04-4.658,31.5-28.691s31.114-39.994,30.369-44.225S465.125,134.474,465.125,134.474z"/>
	<path fill="#FFE340" d="M245.257,387.627c-0.924,0.952,17.188-0.634,24.325,8.062c7.138,8.694,11.384,21.653,4.045,40.771
		c-7.338,19.118-8.57,34.443-1.201,49.347c7.37,14.904,24.272,29.342,34.367,18.944s-25.852-91.431-36.149-113.21
		S258.681,373.805,245.257,387.627z"/>
	<path fill="#B77013" d="M204.512,430.354l28.675-31.623c0,0,20.212-10.197,30.521-0.139c10.309,10.059,4.001,25.501,4.001,25.501
		s4.001-14.368-7.335-22.815s-25.14,5.121-25.14,5.121s10.774-5.817,19.332,4.775s5.573,17.809,5.573,17.809
		s-1.376-10.069-9.695-15.164S204.512,430.354,204.512,430.354z"/>
	<path fill="#B77013" d="M279.745,396.534c0,0-8.55-23.361-11.363-36.613l22.228-24.527c0,0-2.767,25.277,3.745,45.028
		c6.512,19.752,20.262,52.55,24.387,63.621c4.123,11.072,6.323,16.315,6.323,16.315s-22.612-40.25-31.673-61.131
		c-9.06-20.88-12.462-21.8-13.541-20.111C278.772,380.804,276.655,384.585,279.745,396.534z"/>
</g>
<g display="none">
	<g display="inline">
		<g>
			<path fill="#960024" d="M729.446,448.132c0,0-10.729-14.778,12.134-33.045l-37.275-10.591c0,0-0.076,12.547,0.371,12.943
				C705.125,417.836,729.446,448.132,729.446,448.132z"/>
		</g>
	</g>
	<g display="inline">
		<g>
			<path fill="#CF2B40" d="M704.893,396.062c0,0,15.226,17.464,43.869,7.654c0,0,0.966,8.841,0.569,9.289
				s-24.464,8.697-42.213-4.196C707.118,408.809,700.407,401.674,704.893,396.062z"/>
		</g>
	</g>
	<g display="inline">
		<g>
			<path fill="#F4CC21" d="M458.069,350.854c0,0,41.642-46.051,92.31-2.052c50.668,43.998,6.169,89.146,6.169,89.146
				s-39.37,49.685-89.232,4.774C417.453,397.812,458.069,350.854,458.069,350.854z"/>
		</g>
	</g>
	<g display="inline">
		<g>
			<path fill="#FFE45F" d="M458.069,350.854c0,0,41.149-45.484,91.409-2.808l0.062,0.074c0,0-31.153-28.442-74.109,18.323
				c-30.952,33.696-20.191,61.14-10.429,74.107C418.777,396.311,458.069,350.854,458.069,350.854z"/>
		</g>
	</g>
	<g display="inline">
		<g>
			<path fill="#E2A700" d="M543.629,426.147c38.98-42.452,12.057-72.214,6.26-77.76c0.164,0.141,0.326,0.271,0.49,0.414
				c50.668,43.998,6.169,89.146,6.169,89.146s-39.37,49.685-89.232,4.774c-0.226-0.203-0.435-0.406-0.656-0.609
				C472.275,446.631,504.325,468.949,543.629,426.147z"/>
		</g>
	</g>
	<g display="inline">
		<g>
			<path fill="#CF2B40" d="M938.934,0.848c0,0,11.201-10.859,19.939-13.514c0,0,3.774-0.656,10.048,4.893
				c6.274,5.549,6.085,9.375,6.085,9.375c-1.567,8.997-10.976,21.441-10.976,21.441l-36.067,40.781l-12.549-11.098l-12.548-11.098
				L938.934,0.848z"/>
		</g>
	</g>
	<g display="inline">
		<g>
			<path fill="#960024" d="M975.006,1.602c-1.567,8.997-10.976,21.441-10.976,21.441l-36.067,40.781l-4.93-4.359
				c6.083-6.878,33.558-37.943,35.671-40.334c2.378-2.688,16.595-19.666,10.217-26.904C975.195-2.225,975.006,1.602,975.006,1.602z"
				/>
		</g>
	</g>
	<g display="inline">
		<g>
			<path fill="#DB726B" d="M938.934,0.848c0,0,11.201-10.859,19.939-13.514c0,0,3.331-0.578,8.936,3.951
				c-1.146-0.186-2.613-0.244-4.454,0.012c-5.464,0.759-18.198,14.256-18.198,14.256l-36.464,41.229l-5.826-5.152L938.934,0.848z"/>
		</g>
	</g>
	<g display="inline">
		<g>
			
				<rect x="552.946" y="293.905" transform="matrix(-0.6625 0.7491 -0.7491 -0.6625 1198.0571 103.6391)" fill="#8CC34B" width="45.468" height="55.639"/>
		</g>
	</g>
	<g display="inline">
		<g>
			
				<rect x="537.709" y="300.771" transform="matrix(-0.6625 0.7491 -0.7491 -0.6625 1162.6252 92.6312)" fill="#AED582" width="45.468" height="14.956"/>
		</g>
	</g>
	<g display="inline">
		<g>
			
				<rect x="568.184" y="327.721" transform="matrix(-0.6625 0.7491 -0.7491 -0.6625 1233.4832 114.6284)" fill="#5D9E08" width="45.468" height="14.957"/>
		</g>
	</g>
	<g display="inline">
		<g>
			
				<rect x="543.984" y="313.045" transform="matrix(-0.6625 0.7491 -0.7491 -0.6625 1179.9155 160.2484)" fill="#8CC34B" width="19.743" height="65.81"/>
		</g>
	</g>
	<g display="inline">
		<g>
			
				<rect x="526.057" y="321.122" transform="matrix(-0.6625 0.7491 -0.7491 -0.6625 1138.2446 147.3431)" fill="#AED582" width="19.743" height="17.949"/>
		</g>
	</g>
	<g display="inline">
		<g>
			
				<rect x="561.91" y="352.83" transform="matrix(-0.6625 0.7491 -0.7491 -0.6625 1221.5934 173.177)" fill="#5D9E08" width="19.743" height="17.948"/>
		</g>
	</g>
	<g display="inline">
		<g>
			
				<rect x="587.186" y="264.197" transform="matrix(-0.6625 0.7491 -0.7491 -0.6625 1215.1465 46.6776)" fill="#8CC34B" width="19.743" height="65.811"/>
		</g>
	</g>
	<g display="inline">
		<g>
			<path fill="#8CC34B" d="M561.258,345.708c0,0,44.402,53.646,3.286,101.943l52.767-58.76L561.258,345.708z"/>
		</g>
	</g>
	<g display="inline">
		<g>
			
				<rect x="570.423" y="411.846" transform="matrix(-0.6625 0.7491 -0.7491 -0.6625 1333.3074 267.813)" fill="#0EADC7" width="71.793" height="44.87"/>
		</g>
	</g>
	<g display="inline">
		<g>
			<path fill="#CF2B40" d="M589.704,277.421l7.53-8.515c0,0-16.893-19.732-0.505-42.777c0,0,131.932-150.078,147.045-166.264
				c15.112-16.186,51.302-48.074,80.569-26.982c29.267,21.093,0.955,63.941-16.725,86.642
				c-17.681,22.7-135.688,157.938-148.631,168.057c-12.941,10.118-28.85,6.432-35.969,0.935l-9.563,9.911L589.704,277.421z"/>
		</g>
	</g>
	<g display="inline">
		<g>
			
				<rect x="787.938" y="96.227" transform="matrix(-0.6625 0.7491 -0.7491 -0.6625 1519.2178 -460.3558)" fill="#F4CC21" width="150.765" height="31.708"/>
		</g>
	</g>
	<g display="inline">
		<g>
			
				<rect x="906.089" y="37.515" transform="matrix(-0.6625 0.7491 -0.7491 -0.6625 1558.9688 -588.5197)" fill="#F4CC21" width="11.965" height="38.888"/>
		</g>
	</g>
	<g display="inline">
		<g>
			
				<rect x="798.387" y="119.417" transform="matrix(0.6625 -0.7491 0.7491 0.6625 201.5043 693.2319)" fill="#E2A700" width="143.287" height="7.179"/>
		</g>
	</g>
	<g display="inline">
		<g>
			
				<rect x="780.013" y="103.167" transform="matrix(-0.6625 0.7491 -0.7491 -0.6625 1495.8345 -460.4731)" fill="#FFE45F" width="143.286" height="7.179"/>
		</g>
	</g>
	<g display="inline">
		<g>
			
				<rect x="896.229" y="41.957" transform="matrix(-0.6624 0.7491 -0.7491 -0.6624 1536.0115 -595.6641)" fill="#FFE45F" width="11.966" height="12.564"/>
		</g>
	</g>
	<g display="inline">
		<g>
			
				<rect x="915.948" y="59.396" transform="matrix(-0.6625 0.7491 -0.7491 -0.6625 1581.8915 -581.4088)" fill="#E2A700" width="11.965" height="12.564"/>
		</g>
	</g>
	<g display="inline">
		<g>
			
				<rect x="942.526" y="-4.137" transform="matrix(-0.6624 0.7491 -0.7491 -0.6624 1588.3079 -685.0947)" fill="#CF2B40" width="11.966" height="38.887"/>
		</g>
	</g>
	<g display="inline">
		<g>
			
				<rect x="932.668" y="0.305" transform="matrix(-0.6625 0.7491 -0.7491 -0.6625 1565.4237 -692.1714)" fill="#DB726B" width="11.965" height="12.564"/>
		</g>
	</g>
	<g display="inline">
		<g>
			
				<rect x="952.386" y="17.745" transform="matrix(-0.6624 0.7491 -0.7491 -0.6624 1611.2305 -677.9844)" fill="#960024" width="11.966" height="12.563"/>
		</g>
	</g>
	<g display="inline">
		<g>
			<path fill="#CF2B40" d="M969.766,49.346c0,0,8.507-8.09,15.414-9.787c0,0,3.007-0.343,8.315,4.353
				c5.31,4.695,5.336,7.722,5.336,7.722c-0.84,7.063-7.83,16.494-7.83,16.494l-27.117,30.662l-10.617-9.391l-10.618-9.391
				L969.766,49.346z"/>
		</g>
	</g>
	<g display="inline">
		<g>
			<path fill="#960024" d="M998.831,51.633c-0.84,7.063-7.83,16.494-7.83,16.494l-27.117,30.662l-4.171-3.689
				c4.573-5.172,25.23-28.527,26.819-30.324c1.788-2.022,12.435-14.824,6.963-20.864C998.805,48.606,998.831,51.633,998.831,51.633z
				"/>
		</g>
	</g>
	<g display="inline">
		<g>
			<path fill="#DB726B" d="M969.766,49.346c0,0,8.507-8.09,15.414-9.787c0,0,2.653-0.302,7.376,3.554
				c-0.932-0.201-2.114-0.316-3.584-0.2c-4.361,0.348-13.979,10.457-13.979,10.457l-27.415,30.998l-4.93-4.359L969.766,49.346z"/>
		</g>
	</g>
	<g display="inline">
		<g>
			
				<rect x="973.65" y="44.811" transform="matrix(-0.6624 0.7491 -0.7491 -0.6624 1671.9839 -630.9224)" fill="#CF2B40" width="8.997" height="32.905"/>
		</g>
	</g>
	<g display="inline">
		<g>
			
				<rect x="965.308" y="48.57" transform="matrix(-0.6625 0.7491 -0.7491 -0.6625 1652.6371 -636.8893)" fill="#DB726B" width="8.997" height="10.631"/>
		</g>
	</g>
	<g display="inline">
		<g>
			
				<rect x="981.993" y="63.327" transform="matrix(-0.6624 0.7491 -0.7491 -0.6624 1691.3796 -624.9059)" fill="#960024" width="8.997" height="10.631"/>
		</g>
	</g>
	<g display="inline">
		<g>
			
				<rect x="825.816" y="133.321" transform="matrix(-0.6625 0.7491 -0.7491 -0.6625 1609.9717 -427.0644)" fill="#F4CC21" width="150.764" height="31.708"/>
		</g>
	</g>
	<g display="inline">
		<g>
			
				<rect x="943.967" y="74.608" transform="matrix(-0.6625 0.7491 -0.7491 -0.6625 1649.7261 -555.2255)" fill="#F4CC21" width="11.965" height="38.888"/>
		</g>
	</g>
	<g display="inline">
		<g>
			
				<rect x="836.215" y="156.399" transform="matrix(0.6625 -0.7491 0.7491 0.6625 186.6242 734.166)" fill="#E2A700" width="143.586" height="7.179"/>
		</g>
	</g>
	<g display="inline">
		<g>
			
				<rect x="817.841" y="140.149" transform="matrix(-0.6625 0.7491 -0.7491 -0.6625 1586.6714 -427.4412)" fill="#FFE45F" width="143.586" height="7.179"/>
		</g>
	</g>
	<g display="inline">
		<g>
			
				<rect x="934.107" y="79.051" transform="matrix(-0.6625 0.7491 -0.7491 -0.6625 1626.8033 -562.3365)" fill="#FFE45F" width="11.965" height="12.564"/>
		</g>
	</g>
	<g display="inline">
		<g>
			
				<rect x="953.826" y="96.49" transform="matrix(-0.6625 0.7491 -0.7491 -0.6625 1672.6489 -548.1146)" fill="#E2A700" width="11.965" height="12.564"/>
		</g>
	</g>
	<g display="inline">
		<g>
			<path fill="#DB726B" d="M605.25,275.195c0,0-13.944-8.48-15.368-23.646s8.23-26.993,8.23-26.993L743.774,59.865
				c0,0,27.599-30.342,52.73-33.453s35.943,14.836,35.943,14.836s-30.787-18.841-72.61,24.837
				c-41.824,43.678-145.615,161.938-157.006,176.623C591.442,257.394,605.25,275.195,605.25,275.195z"/>
		</g>
	</g>
	<g display="inline">
		<g>
			<path fill="#960024" d="M605.25,275.195c0,0,14.142,12.672,22.721,16.184c8.58,3.513,20.459,3.751,30.004-3.04
				s127.523-139.092,148.957-167.94c21.435-28.849,39.502-59.561,24.415-80.707c0,0,14.06,11.82-40.584,74.51
				s-127.97,149.401-148.544,162.541C620.193,290.809,605.25,275.195,605.25,275.195z"/>
		</g>
	</g>
	<g display="inline">
		<g>
			<path fill="#0EADC7" d="M743.706,210.756l68.275-75.393c0,0,3.566-4.034,7.6-0.467l38.317,33.888l14.564,12.881l12.997,11.494
				c0,0,4.137,5.257-0.964,11.927c-5.101,6.671-7.083,8.911-9.116,10.308s-8.152-1.619-11.271,2.811
				c-3.118,4.43,4.552,12.012-0.256,16.546c-4.809,4.533-12.03-2.653-15.994,1.828c-3.963,4.481,5.344,11.116-0.257,16.546
				s-11.686-3.945-16.045,0.984c-4.36,4.929,1.673,13.46,1.725,14.304c0.053,0.845-11.441,13.842-11.441,13.842
				s-2.826,2.292-6.412-0.879l-17.478-15.457l-10.681-9.446l-42.649-37.719C744.62,218.753,740.535,214.341,743.706,210.756z"/>
		</g>
	</g>
	<path display="inline" fill="#8BE7EA" d="M771.658,242.665l-27.038-23.912c0,0-4.218-4.263,0.011-9.043l67.351-74.347
		c0,0,3.417-4.166,8.197,0.062l28.233,24.97l37.048,32.765c0,0-64.102-43.113-67.376-41.218
		c-3.274,1.896-60.004,65.138-60.744,66.879C756.599,220.561,753.382,225.703,771.658,242.665z"/>
	<g display="inline">
		<g>
			<path fill="#057E96" d="M798.697,266.578l16.73,14.797c0,0,3.586,3.171,6.412,0.879c0,0,10.701-12.101,11.441-13.842
				c0,0-5.887-9.599-2.021-13.968c3.864-4.37,12.034,4.453,16.342-1.32c4.309-5.774-2.914-12.961,0.257-16.546
				s12.274,2.442,16.314-2.158c4.039-4.6-3.631-12.183-0.064-16.216c3.567-4.033,9.21-0.549,12.446-3.723
				c3.237-3.173,7.642-8.489,9.325-11.579c1.684-3.091,1.2-7.511-0.757-10.04l-14.253-9.396c0,0,10.504,5.281,7.593,13.089
				c-2.912,7.808-15.787,5.207-23.369,12.877c-7.582,7.671-0.619,10.634-4.582,15.115c-3.964,4.481-8.945-0.723-13.649,5.5
				c-4.705,6.222,0.414,6.756-4.342,12.134c-4.757,5.378-9.29,0.569-12.856,4.603c-3.567,4.034-0.034,6.36-2.998,13.323
				C813.703,267.07,805.27,272.392,798.697,266.578z"/>
		</g>
	</g>
	<g display="inline">
		<g>
			<path fill="#057E96" d="M781.351,244.049l0.009-0.011c-4.323-4.197-1.768-7.935-1.768-7.935l28.934-32.715l1.585-1.793
				l28.934-32.715c0,0,3.396-2.993,8.091,0.785l0.01-0.01c0.076,0.067,0.146,0.135,0.219,0.203c0.076,0.064,0.152,0.125,0.229,0.192
				l-0.009,0.011c4.323,4.197,1.768,7.935,1.768,7.935l-28.933,32.715l-1.586,1.793l-28.933,32.715c0,0-3.397,2.993-8.092-0.785
				l-0.009,0.011c-0.077-0.068-0.146-0.136-0.22-0.203C781.503,244.178,781.428,244.117,781.351,244.049z"/>
		</g>
	</g>
	<g display="inline">
		<g>
			<path fill="#006677" d="M847.145,169.656c0,0-4.482-3.964-8.101-0.775l-59.452,67.223c0,0-2.723,3.981,2.207,8.342
				c0,0-2.293-2.826,0.481-5.964l60.245-68.118C842.525,170.363,844.955,168.519,847.145,169.656z"/>
		</g>
	</g>
	<g display="inline">
		<g>
			<path fill="#8CC34B" d="M745.441,219.479l-5.303-4.69c0,0-2.689-2.378-6.308,0.811l-19.421,21.96c0,0-3.171,3.585-2.205,12.426
				l-74.221,82.115l-39.342,42.679l7.171,6.341l-2.378,2.689l10.756,9.512l31.818,28.141l58.009-28.564c0,0-0.604-2.93,6.134-10.549
				c6.738-7.618,18.232-20.614,18.232-20.614s4.756-5.378,10.134-0.622l66.586-75.289c0,0,7.747-6.727,1.192-12.523L745.441,219.479
				z"/>
		</g>
	</g>
	<g display="inline">
		<g>
			<path fill="#0EADC7" d="M878.239,344.912c0,0-30.539,6.536-55.203-1.699s-44.288-27.588-44.288-27.588l-40.229,45.487
				c0,0,22.271,24.488,57.431,38.013c35.161,13.525,69.285,10.161,69.285,10.161s5.963,0.481,8.082-6.43l9.456-53.136
				C882.772,349.721,882.514,345.498,878.239,344.912z"/>
		</g>
	</g>
	<g display="inline">
		<g>
			<polygon fill="#8CC34B" points="648.67,333.564 585.935,319.612 561.258,345.708 605.813,381.12 			"/>
		</g>
	</g>
	<g display="inline">
		<g>
			<g>
				<path fill="#006677" d="M867.227,362.825c0.744-0.841,1.12-1.995,0.93-3.189c-0.338-2.121-2.331-3.566-4.452-3.229
					c-44.493,7.086-84.422-30.434-84.82-30.813c-1.554-1.482-4.016-1.425-5.497,0.13c-1.484,1.561-1.426,4.016,0.129,5.497
					c0.436,0.416,10.856,10.281,27.276,19.315c21.915,12.058,44.093,16.743,64.136,13.552
					C865.854,363.94,866.65,363.477,867.227,362.825z"/>
			</g>
		</g>
	</g>
	<g display="inline">
		<g>
			<g>
				<path fill="#006677" d="M868.654,379.262c0.76-0.858,1.134-2.043,0.917-3.259c-0.376-2.115-2.396-3.523-4.51-3.147
					c-26.776,4.768-51.716-4.645-67.923-13.38c-17.785-9.588-29.285-20.497-29.399-20.606c-1.552-1.484-4.013-1.431-5.497,0.12
					c-1.482,1.57-1.434,4.011,0.117,5.496c0.49,0.47,12.236,11.64,30.892,21.729c24.868,13.449,50.171,18.393,73.174,14.298
					C867.323,380.353,868.094,379.896,868.654,379.262z"/>
			</g>
		</g>
	</g>
	<g display="inline">
		<g>
			<g>
				<path fill="#006677" d="M866.435,397.714c0.746-0.844,1.122-2.003,0.928-3.201c-0.345-2.12-2.343-3.56-4.462-3.215
					c-55.862,9.071-105.75-37.837-106.248-38.312c-1.554-1.483-4.015-1.427-5.498,0.127c-1.497,1.574-1.426,4.015,0.127,5.498
					c0.537,0.513,13.387,12.686,33.687,23.823c27.05,14.84,54.43,20.56,79.179,16.54
					C865.068,398.825,865.861,398.363,866.435,397.714z"/>
			</g>
		</g>
	</g>
	<g display="inline">
		<g>
			<path fill="#AED582" d="M770.165,241.345c-0.448-0.396-30.026-26.556-30.026-26.556s-2.939-2.999-7.398,2.043
				c0,0-18.528,20.951-18.627,21.063c-0.1,0.111-3.615,4.989-1.908,12.09l-73.533,81.355l-52.737-11.729l-24.677,26.096l13.01,10.34
				c0,0-7.262-6.454-6.572-9.039c0.688-2.586,17.835-20.167,19.473-21.115c1.637-0.948,55.854,14.058,55.854,14.058l79.128-86.761
				c0,0-2.845-4.912,4.238-13.823c7.082-8.911,14.268-16.133,14.268-16.133s1.138-2.189,7.756,2.066
				C755.031,229.558,770.165,241.345,770.165,241.345z"/>
		</g>
	</g>
	<g display="inline">
		<g>
			<path fill="#387700" d="M586.337,361.898l0.004-0.004c-1.458-1.444-0.363-2.97-0.363-2.97l12.026-13.599l0.658-0.745
				l12.027-13.599c0,0,1.38-1.271,2.992-0.002l0.004-0.004c0.025,0.022,0.049,0.046,0.074,0.069
				c0.025,0.021,0.052,0.042,0.078,0.065l-0.004,0.004c1.457,1.444,0.363,2.97,0.363,2.97l-12.026,13.599l-0.659,0.745
				l-12.026,13.599c0,0-1.38,1.272-2.991,0.002l-0.004,0.004c-0.027-0.022-0.05-0.046-0.074-0.069
				C586.389,361.942,586.363,361.922,586.337,361.898z"/>
		</g>
	</g>
	<g display="inline">
		<g>
			<path fill="#387700" d="M578.322,355.609l0.004-0.004c-1.467-1.435-0.517-2.798-0.517-2.798l10.632-12.021l0.583-0.659
				l10.632-12.021c0,0,1.236-1.11,2.84,0.17l0.004-0.004c0.025,0.023,0.049,0.047,0.074,0.069s0.052,0.043,0.078,0.065l-0.004,0.004
				c1.467,1.435,0.516,2.798,0.516,2.798l-10.631,12.021l-0.583,0.659l-10.632,12.021c0,0-1.237,1.11-2.84-0.17l-0.004,0.004
				c-0.025-0.023-0.049-0.047-0.074-0.069C578.374,355.652,578.349,355.632,578.322,355.609z"/>
		</g>
	</g>
	<g display="inline">
		<g>
			<path fill="#387700" d="M571.1,348.423l0.004-0.003c-1.477-1.423-0.688-2.604-0.688-2.604l9.063-10.248l0.497-0.562l9.063-10.249
				c0,0,1.075-0.927,2.668,0.364l0.003-0.003c0.026,0.023,0.05,0.046,0.075,0.069c0.025,0.021,0.051,0.042,0.078,0.065l-0.004,0.003
				c1.477,1.423,0.688,2.604,0.688,2.604l-9.063,10.248l-0.497,0.562l-9.063,10.248c0,0-1.076,0.927-2.668-0.364l-0.004,0.003
				c-0.025-0.022-0.049-0.046-0.074-0.069C571.152,348.467,571.127,348.446,571.1,348.423z"/>
		</g>
	</g>
	<g display="inline">
		<g>
			<path fill="#387700" d="M596.541,369.326l0.004-0.006c-1.443-1.459-0.135-3.228-0.135-3.228l14.118-15.964l0.773-0.875
				l14.118-15.963c0,0,1.596-1.516,3.221-0.261l0.004-0.005c0.027,0.023,0.05,0.047,0.074,0.07c0.026,0.021,0.053,0.042,0.079,0.064
				l-0.005,0.005c1.444,1.46,0.135,3.229,0.135,3.229l-14.117,15.964l-0.773,0.874l-14.119,15.964c0,0-1.595,1.516-3.22,0.26
				l-0.005,0.006c-0.025-0.023-0.049-0.047-0.074-0.07C596.594,369.369,596.567,369.349,596.541,369.326z"/>
		</g>
	</g>
	<g display="inline">
		<g>
			<path fill="#5D9E08" d="M794.365,262.747l11.577,10.239c0,0,6.297,4.771-0.838,12.837l-66.981,75.737
				c0,0-4.437-5.023-9.264-0.291c-0.475,0.465-17.643,20.144-20.75,23.524c-3.109,3.381-4.091,8.104-4.091,8.104l-58.009,28.564
				c0,0,26.592-15.617,49.287-39.474c22.695-23.855,97.208-108.107,100.379-111.692C798.847,266.71,794.365,262.747,794.365,262.747
				z"/>
		</g>
	</g>
	<g display="inline">
		<g>
			<path fill="#8CC34B" d="M641.254,426.84c0,0,11.115-5.344,18.285,0.998c7.171,6.341,10.43,18.009,20.998,52.115
				c10.569,34.106,11.777,39.966,12.777,42.447c0.999,2.481,5.877,5.997,12.374,1.36s32.329-25.718,32.329-25.718
				s13.149-6.741,4.702-26.99c-8.447-20.25-32.132-53.976-36.235-65.592c-4.104-11.615,2.17-21.268,2.17-21.268
				s-13.169-6.031-37.123,11.121C647.577,412.466,641.254,426.84,641.254,426.84z"/>
		</g>
	</g>
	<g display="inline">
		<g>
			<path fill="#5D9E08" d="M708.109,384.794c0,0-4.277,9.277-1.52,19.704c2.76,10.427,19.992,35.611,31.604,57.011
				c11.611,21.4,8.699,29.208-0.176,36.534c-8.875,7.325-33.814,26.65-33.814,26.65s-7.493,4.704-10.889-2.293
				c0,0,0.258,4.223,9.926-4c9.668-8.222,32.984-21.943,23.986-44.278c-9-22.335-33.08-55.612-36.099-70.262
				c-3.018-14.649,2.009-19.43,2.009-19.43S702.721,381.087,708.109,384.794z"/>
		</g>
	</g>
	<g display="inline">
		<g>
			<path fill="#387700" d="M674.557,445.512l0.004-0.004c-1.07-1.081-0.1-2.392-0.1-2.392l10.457-11.824l0.573-0.648l10.458-11.824
				c0,0,1.182-1.123,2.385-0.193l0.004-0.003c0.02,0.017,0.037,0.034,0.055,0.052c0.02,0.016,0.039,0.03,0.059,0.048l-0.004,0.004
				c1.07,1.081,0.101,2.391,0.101,2.391l-10.458,11.825l-0.573,0.647l-10.458,11.825c0,0-1.182,1.122-2.385,0.192l-0.004,0.004
				c-0.02-0.017-0.037-0.034-0.055-0.052C674.596,445.544,674.576,445.529,674.557,445.512z"/>
		</g>
	</g>
	<g display="inline">
		<g>
			<path fill="#387700" d="M677.901,451.664l0.003-0.004c-1.069-1.081-0.1-2.391-0.1-2.391l10.457-11.825l0.574-0.647l10.457-11.825
				c0,0,1.182-1.122,2.386-0.193l0.003-0.003c0.02,0.017,0.037,0.034,0.055,0.052c0.02,0.016,0.039,0.03,0.059,0.048l-0.003,0.004
				c1.069,1.081,0.101,2.391,0.101,2.391l-10.459,11.825l-0.572,0.647l-10.458,11.825c0,0-1.182,1.122-2.386,0.192l-0.003,0.004
				c-0.02-0.017-0.037-0.034-0.056-0.052C677.939,451.696,677.921,451.682,677.901,451.664z"/>
		</g>
	</g>
	<g display="inline">
		<g>
			<path fill="#387700" d="M680.005,458.316l0.003-0.004c-1.069-1.081-0.1-2.392-0.1-2.392l10.457-11.824l0.574-0.648l10.457-11.824
				c0,0,1.182-1.122,2.386-0.193l0.003-0.003c0.02,0.017,0.037,0.034,0.055,0.052c0.02,0.016,0.039,0.03,0.059,0.048l-0.003,0.004
				c1.069,1.081,0.1,2.391,0.1,2.391l-10.458,11.825l-0.572,0.647l-10.458,11.825c0,0-1.182,1.122-2.386,0.192l-0.004,0.004
				c-0.019-0.017-0.036-0.034-0.055-0.052C680.043,458.349,680.024,458.334,680.005,458.316z"/>
		</g>
	</g>
	<g display="inline">
		<g>
			<path fill="#387700" d="M683.35,464.469l0.003-0.004c-1.069-1.081-0.101-2.391-0.101-2.391l10.458-11.825l0.573-0.647
				l10.457-11.825c0,0,1.183-1.122,2.387-0.192l0.003-0.004c0.02,0.017,0.036,0.034,0.055,0.052c0.02,0.016,0.039,0.03,0.058,0.048
				l-0.002,0.004c1.068,1.081,0.1,2.392,0.1,2.392l-10.458,11.824l-0.573,0.647l-10.457,11.825c0,0-1.183,1.122-2.387,0.193
				l-0.003,0.003c-0.019-0.017-0.036-0.034-0.055-0.052C683.388,464.501,683.369,464.486,683.35,464.469z"/>
		</g>
	</g>
	<g display="inline">
		<g>
			<path fill="#387700" d="M685.453,471.121l0.003-0.004c-1.069-1.081-0.101-2.391-0.101-2.391l10.458-11.825l0.573-0.647
				l10.457-11.825c0,0,1.182-1.122,2.387-0.192l0.003-0.004c0.02,0.017,0.036,0.034,0.055,0.052c0.02,0.016,0.039,0.031,0.058,0.048
				l-0.003,0.004c1.069,1.081,0.101,2.391,0.101,2.391l-10.458,11.825l-0.573,0.647l-10.457,11.825c0,0-1.183,1.122-2.387,0.193
				l-0.003,0.003c-0.02-0.017-0.036-0.034-0.055-0.052C685.491,471.153,685.472,471.139,685.453,471.121z"/>
		</g>
	</g>
	<g display="inline">
		<g>
			<path fill="#387700" d="M688.797,477.273l0.003-0.004c-1.069-1.081-0.1-2.391-0.1-2.391l10.458-11.825l0.572-0.647l10.458-11.825
				c0,0,1.182-1.122,2.386-0.192l0.004-0.004c0.019,0.017,0.036,0.034,0.055,0.052c0.02,0.016,0.039,0.03,0.058,0.048l-0.003,0.004
				c1.069,1.081,0.1,2.392,0.1,2.392l-10.457,11.824l-0.574,0.648l-10.457,11.824c0,0-1.182,1.122-2.386,0.193l-0.003,0.003
				c-0.02-0.017-0.037-0.034-0.055-0.052C688.836,477.306,688.816,477.291,688.797,477.273z"/>
		</g>
	</g>
	<g display="inline">
		<g>
			<path fill="#387700" d="M690.9,483.926l0.003-0.004c-1.069-1.081-0.101-2.391-0.101-2.391l10.459-11.825l0.572-0.647
				l10.458-11.825c0,0,1.182-1.122,2.386-0.192l0.004-0.004c0.019,0.017,0.036,0.034,0.055,0.052
				c0.02,0.016,0.038,0.031,0.058,0.048l-0.003,0.004c1.069,1.081,0.1,2.392,0.1,2.392l-10.457,11.824l-0.574,0.648l-10.457,11.824
				c0,0-1.182,1.122-2.386,0.193l-0.003,0.003c-0.02-0.017-0.037-0.034-0.055-0.052C690.939,483.958,690.92,483.943,690.9,483.926z"
				/>
		</g>
	</g>
	<g display="inline">
		<g>
			<path fill="#387700" d="M694.244,490.078l0.004-0.004c-1.07-1.081-0.101-2.391-0.101-2.391l10.458-11.825l0.573-0.647
				l10.458-11.825c0,0,1.182-1.122,2.385-0.192l0.004-0.004c0.02,0.017,0.036,0.034,0.055,0.052c0.02,0.016,0.039,0.031,0.059,0.048
				l-0.004,0.004c1.07,1.081,0.1,2.392,0.1,2.392l-10.457,11.824l-0.573,0.648l-10.458,11.824c0,0-1.182,1.123-2.385,0.193
				l-0.004,0.004c-0.02-0.018-0.037-0.035-0.055-0.052C694.283,490.11,694.264,490.096,694.244,490.078z"/>
		</g>
	</g>
	<g display="inline">
		<g>
			<path fill="#387700" d="M696.348,496.73l0.004-0.004c-1.07-1.081-0.101-2.391-0.101-2.391l10.458-11.825l0.572-0.647
				l10.459-11.825c0,0,1.182-1.122,2.385-0.192l0.004-0.004c0.02,0.018,0.036,0.034,0.055,0.052c0.02,0.016,0.039,0.031,0.059,0.048
				l-0.004,0.004c1.07,1.081,0.1,2.392,0.1,2.392l-10.457,11.824l-0.573,0.648l-10.458,11.824c0,0-1.182,1.123-2.385,0.193
				l-0.004,0.004c-0.02-0.018-0.037-0.035-0.055-0.052C696.387,496.763,696.367,496.748,696.348,496.73z"/>
		</g>
	</g>
	<g display="inline">
		<g>
			<path fill="#387700" d="M698.451,503.383l0.004-0.004c-1.07-1.081-0.101-2.391-0.101-2.391l10.458-11.825l0.572-0.647
				l10.459-11.825c0,0,1.182-1.122,2.385-0.192l0.004-0.004c0.02,0.017,0.036,0.034,0.055,0.052c0.02,0.017,0.039,0.031,0.059,0.048
				l-0.004,0.004c1.07,1.081,0.1,2.392,0.1,2.392l-10.457,11.824l-0.573,0.648l-10.458,11.824c0,0-1.182,1.123-2.386,0.193
				l-0.003,0.004c-0.02-0.018-0.037-0.035-0.055-0.052C698.49,503.415,698.471,503.4,698.451,503.383z"/>
		</g>
	</g>
	<g display="inline">
		<g>
			<path fill="#387700" d="M701.795,509.535l0.004-0.003c-1.07-1.082-0.1-2.392-0.1-2.392l10.457-11.825l0.573-0.647l10.458-11.825
				c0,0,1.182-1.122,2.386-0.192l0.003-0.004c0.02,0.018,0.037,0.034,0.055,0.052c0.02,0.016,0.039,0.031,0.059,0.048l-0.004,0.004
				c1.07,1.081,0.101,2.392,0.101,2.392l-10.458,11.824l-0.572,0.648l-10.459,11.824c0,0-1.182,1.123-2.385,0.193l-0.004,0.004
				c-0.02-0.018-0.036-0.035-0.055-0.052C701.834,509.567,701.814,509.553,701.795,509.535z"/>
		</g>
	</g>
	<g display="inline">
		<g>
			
				<rect x="558.141" y="438.354" transform="matrix(-0.6625 0.7491 -0.7491 -0.6625 1309.873 343.3487)" fill="#0EADC7" width="38.888" height="56.835"/>
		</g>
	</g>
	<g display="inline">
		<g>
			
				<rect x="569.259" y="272.274" transform="matrix(-0.6625 0.7491 -0.7491 -0.6625 1173.4685 33.749)" fill="#AED582" width="19.743" height="17.948"/>
		</g>
	</g>
	<g display="inline">
		<g>
			
				<rect x="605.112" y="303.982" transform="matrix(-0.6625 0.7491 -0.7491 -0.6625 1256.8245 59.6061)" fill="#5D9E08" width="19.743" height="17.948"/>
		</g>
	</g>
	<g display="inline">
		<g>
			
				<rect x="573.826" y="473.166" transform="matrix(-0.6625 0.7491 -0.7491 -0.6625 1346.3405 354.6616)" fill="#057E96" width="38.888" height="14.957"/>
		</g>
	</g>
	
		<rect x="542.455" y="445.422" transform="matrix(-0.6625 0.7491 -0.7491 -0.6625 1273.4072 332.0496)" display="inline" fill="#8BE7EA" width="38.889" height="14.957"/>
	
		<rect x="569.165" y="412.413" transform="matrix(-0.6625 0.7491 -0.7491 -0.6625 1310.4897 249.3058)" display="inline" fill="#8BE7EA" width="59.828" height="14.956"/>
	<g display="inline">
		<g>
			<path fill="#057E96" d="M596.889,457.888l40.106-45.197c0,0,4.033,3.567,11.771-1.569c7.738-5.137,19.375-13.697,24.939-17.32
				c0,0-15.307,9.865-29.592,31.975l-36.842,41.295L596.889,457.888z"/>
		</g>
	</g>
	<g display="inline">
		<g>
			
				<rect x="903.084" y="48.014" transform="matrix(-0.6626 0.749 -0.749 -0.6626 1554.2732 -573.0775)" fill="#E2A700" width="6.282" height="31.11"/>
		</g>
	</g>
	<g display="inline">
		<g>
			
				<rect x="831.742" y="128.681" transform="matrix(-0.6625 0.7491 -0.7491 -0.6625 1496.02 -385.6046)" fill="#E2A700" width="6.281" height="31.11"/>
		</g>
	</g>
	<g display="inline">
		<g>
			
				<rect x="941.261" y="84.808" transform="matrix(-0.6626 0.749 -0.749 -0.6626 1645.0326 -539.7749)" fill="#E2A700" width="5.683" height="31.709"/>
		</g>
	</g>
	<g display="inline">
		<g>
			
				<rect x="871.453" y="163.57" transform="matrix(-0.6625 0.749 -0.749 -0.6625 1588.1849 -356.6927)" fill="#E2A700" width="5.983" height="31.709"/>
		</g>
	</g>
	<g display="inline">
		<g>
			<path fill="#5D9E08" d="M632.927,405.1l0.02-0.022c-4.11-4.439,1.87-12.048,1.87-12.048l62.224-70.357l3.409-3.854l62.225-70.357
				c0,0,6.82-6.865,11.729-3.328l0.02-0.022c0.077,0.068,0.143,0.14,0.215,0.209c0.078,0.063,0.156,0.12,0.233,0.188l-0.019,0.022
				c4.109,4.438-1.871,12.048-1.871,12.048l-62.224,70.356l-3.409,3.855l-62.225,70.357c0,0-6.82,6.864-11.729,3.328l-0.02,0.022
				c-0.077-0.068-0.143-0.14-0.215-0.21C633.082,405.224,633.004,405.167,632.927,405.1z"/>
		</g>
	</g>
	<path display="inline" fill="#5D9E08" d="M603.354,384.693l34.313,28.592c0,0,8.273,5.895,17.735-4.804
		c0,0-7.82,2.607-13.543-0.856c-5.723-3.463-47.232-34.623-47.232-34.623L603.354,384.693z"/>
	<g display="inline">
		<polygon fill="#057E96" points="573.436,437.146 606.898,466.739 599.669,454.755 576.096,434.787 		"/>
	</g>
	<g display="inline">
		<path fill="#057E96" d="M745.441,219.479l69.314,61.302l-2.966-14.323c0,0-4.067,3.311-14.823-6.202
			c-10.755-9.512-54.121-45.02-54.121-45.02S742.402,215.992,745.441,219.479z"/>
	</g>
	<path display="inline" fill="#5D9E08" d="M561.033,345.51l54.416,44.132l-41.789,47.702l-1.065-0.942
		c0,0,26.208-27.938,21.897-42.931c-4.311-14.994-28.008-40.345-28.008-40.345L561.033,345.51z"/>
	<g display="inline">
		<g>
			<g>
				<path fill="#387700" d="M576.637,363.164c0,0,1.346-1.303,2.582-0.365l0.004-0.004c0.02,0.018,0.037,0.035,0.056,0.053
					c0.021,0.017,0.04,0.031,0.06,0.049l-0.004,0.005c1.082,1.112-0.047,2.606-0.047,2.606l-4.046,4.575
					c-0.608-1.439-1.159-2.627-1.601-3.53L576.637,363.164z"/>
			</g>
			<g>
				<path fill="#387700" d="M582.463,368.316c0,0,1.346-1.303,2.582-0.365l0.004-0.004c0.02,0.018,0.037,0.035,0.056,0.053
					c0.02,0.017,0.04,0.032,0.06,0.049l-0.004,0.005c1.082,1.112-0.047,2.606-0.047,2.606l-6.859,7.757
					c-0.422-1.384-0.855-2.682-1.285-3.888L582.463,368.316z"/>
			</g>
			<g>
				<path fill="#387700" d="M587.841,373.072c0,0,1.345-1.303,2.582-0.364l0.004-0.005c0.02,0.018,0.037,0.036,0.056,0.054
					c0.02,0.016,0.039,0.031,0.059,0.049l-0.003,0.004c1.082,1.112-0.047,2.607-0.047,2.607l-10.12,11.443
					c-0.292-1.476-0.612-2.899-0.955-4.262L587.841,373.072z"/>
			</g>
			<g>
				<path fill="#387700" d="M592.771,377.433c0,0,1.345-1.304,2.582-0.365l0.004-0.004c0.02,0.018,0.037,0.035,0.056,0.053
					c0.02,0.017,0.039,0.031,0.059,0.049l-0.003,0.005c1.082,1.112-0.047,2.606-0.047,2.606l-12.026,13.599l-0.659,0.745
					l-1.14,1.288c-0.143-1.611-0.332-3.183-0.56-4.708L592.771,377.433z"/>
			</g>
			<g>
				<path fill="#387700" d="M581.824,398.84l1.949-2.204l0.66-0.745l12.025-13.599c0,0,1.346-1.303,2.582-0.364l0.004-0.005
					c0.02,0.018,0.037,0.036,0.056,0.054c0.021,0.016,0.04,0.031,0.06,0.049l-0.004,0.004c1.082,1.112-0.047,2.607-0.047,2.607
					l-12.025,13.598l-0.66,0.745l-4.561,5.157C581.915,402.337,581.9,400.568,581.824,398.84z"/>
			</g>
			<g>
				<path fill="#387700" d="M581.438,410.114l5.888-6.657l0.745-0.842l13.595-15.372c0,0,1.507-1.486,2.753-0.56l0.005-0.004
					c0.02,0.017,0.037,0.035,0.056,0.053c0.02,0.017,0.04,0.031,0.06,0.049l-0.005,0.005c1.072,1.124-0.218,2.801-0.218,2.801
					l-13.595,15.372l-0.745,0.842l-9.619,10.877C580.836,414.462,581.191,412.271,581.438,410.114z"/>
			</g>
			<g>
				<path fill="#387700" d="M578.555,423.308l10.25-11.59l0.907-1.025l16.559-18.723c0,0,1.812-1.83,3.077-0.925l0.005-0.006
					c0.02,0.018,0.036,0.036,0.055,0.054c0.021,0.017,0.04,0.03,0.061,0.048l-0.005,0.006c1.053,1.146-0.542,3.167-0.542,3.167
					l-16.559,18.723l-0.907,1.026l-16.559,18.722c0,0-0.215,0.216-0.545,0.461C576.088,429.923,577.473,426.6,578.555,423.308z"/>
			</g>
		</g>
	</g>
	<g display="inline">
		<path fill="#5D9E08" d="M659.512,406.195c0,0,9.285-11.718,24.112-18.165c14.826-6.447,24.771-3.242,24.771-3.242l10.762-12.846
			l-10.431-4.437c0,0-0.604,2.97-12.774,7.873c-21.095,8.499-34.537,17.377-46.381,35.255c-8.123,12.262-5.611,15.404-5.611,15.404
			S647.131,421.55,659.512,406.195z"/>
	</g>
	
		<rect x="587.806" y="277.898" transform="matrix(-0.6627 0.7489 -0.7489 -0.6627 1208.5555 66.5006)" display="inline" fill="#5D9E08" width="2.991" height="55.041"/>
	
		<rect x="551.599" y="313.351" transform="matrix(0.6624 -0.7492 0.7492 0.6624 -60.5604 525.8304)" display="inline" fill="#5D9E08" width="2.992" height="33.503"/>
	
		<rect x="607.997" y="286.61" transform="matrix(0.6624 -0.7491 0.7491 0.6624 -10.0624 558.666)" display="inline" fill="#960024" width="13.76" height="7.778"/>
	
		<rect x="600.65" y="270.303" transform="matrix(0.6624 -0.7492 0.7492 0.6624 -10.8861 548.158)" display="inline" fill="#960024" width="4.187" height="31.708"/>
	
		<rect x="971.086" y="52.483" transform="matrix(-0.6625 0.749 -0.749 -0.6625 1668.2773 -618.5459)" display="inline" fill="#960024" width="4.786" height="28.119"/>
	
		<rect x="952.855" y="73.098" transform="matrix(-0.6625 0.749 -0.749 -0.6625 1653.4084 -570.6172)" display="inline" fill="#960024" width="4.786" height="28.119"/>
	
		<rect x="940.765" y="4.904" transform="matrix(-0.6624 0.7491 -0.7491 -0.6624 1583.9286 -671.044)" display="inline" fill="#960024" width="4.787" height="32.905"/>
	
		<rect x="915.003" y="34.034" transform="matrix(-0.6625 0.749 -0.749 -0.6625 1563.0107 -603.2301)" display="inline" fill="#960024" width="4.786" height="32.905"/>
	<path display="inline" fill="#960024" d="M970.602,48.584l19.341,17.105l2.374-6.448c0,0-1.085,3.034-5.463,0.759
		C982.476,57.727,970.602,48.584,970.602,48.584z"/>
	<path display="inline" fill="#960024" d="M940.429,0.174l22.407,19.816l4.071-8.779c0,0-0.638,3.43-8.445,0.518
		C950.654,8.817,940.429,0.174,940.429,0.174z"/>
	<g display="inline">
		<g>
			<path fill="#387700" d="M774.422,245.109c0,0-4.48-3.963-11.691,3.286L635.947,391.749c0,0-6.313,8.042-1.383,12.402
				c0,0-1.844-3.334,4.072-10.023L767.11,248.862C767.11,248.862,771.785,244.479,774.422,245.109z"/>
		</g>
	</g>
	<polygon display="inline" fill="#057E96" points="636.016,422.317 641.535,416.077 613.109,392.526 608.378,397.875 	"/>
</g>
<g display="none">
	<path display="inline" fill="#FFC217" d="M270.437-91.554c0,0-15.211,26.703-11.611,40.88
		c3.601,14.178,12.067,20.285,12.067,20.285s10.064-15.367,9.159-17.576c-0.906-2.208-11.018-9.51-10.181-24.807
		c0.836-15.297,18.248-29.592,18.248-29.592L270.437-91.554z"/>
	
		<rect x="333.463" y="-258.855" transform="matrix(0.7462 -0.6658 0.6658 0.7462 258.9659 200.2404)" display="inline" fill="#2B5DA5" width="117.218" height="38.751"/>
	
		<rect x="306.329" y="-296.348" transform="matrix(0.7462 -0.6658 0.6658 0.7462 279.8189 179.9471)" display="inline" fill="#2B5DA5" width="139.115" height="38.752"/>
	<path display="inline" fill="#FFC217" d="M418.383-287.517l31.586,35.399l17.865-15.941c0,0,4.566-4.826,1.04-8.777l-27.687-31.029
		L418.383-287.517z"/>
	<path display="inline" fill="#FFC217" d="M412.032-340.541l33.712,37.781l22.721-20.274c0,0,3.675-4.271,0.619-7.696
		l-26.444-29.637c0,0-3.843-4.667-9.269,0.786L412.032-340.541z"/>
	
		<rect x="318.079" y="-274.344" transform="matrix(0.7462 -0.6658 0.6658 0.7462 276.5403 188.8752)" display="inline" fill="#0E4689" width="135.755" height="12.267"/>
	
		<rect x="300.447" y="-294.105" transform="matrix(0.7462 -0.6658 0.6658 0.7462 285.221 172.1201)" display="inline" fill="#3D81C4" width="135.755" height="12.267"/>
	
		<rect x="325.729" y="-252.97" transform="matrix(0.7462 -0.6658 0.6658 0.7462 261.0268 190.9318)" display="inline" fill="#3D81C4" width="110.333" height="12.268"/>
	
		<rect x="343.153" y="-233.441" transform="matrix(0.7462 -0.6658 0.6658 0.7462 252.446 207.4892)" display="inline" fill="#0E4689" width="110.334" height="12.267"/>
	<path display="inline" fill="#FFC217" d="M342.762-115.498l-33.984,30.322c0,0-4.566-14.266-21.866-24.506l44.259-39.491
		c0,0,7.834,7.388,10.322,14.751C343.979-127.061,338.367-123.805,342.762-115.498z"/>
	<path display="inline" fill="#2B5DA5" d="M292.47-114.588l-7.27,9.793c6.305,2.631,17.298,11.936,22.615,33.654
		c6.238,25.486-22.004,45.541-41.195,54.856c-8.735,4.24-15.146,4.276-19.545,3.062l4.087,17.001c0,0,34.403-17.921,53.64-39.581
		c19.238-21.66,9.854-45.701,2.207-58.514C299.361-107.13,292.47-114.588,292.47-114.588z"/>
	<path display="inline" fill="#0E4689" d="M266.621-16.284c19.191-9.315,47.433-29.37,41.195-54.856
		c-5.316-21.719-16.31-31.023-22.615-33.654l-4.442,5.982c0,0,6.857-2.568,13.905,7.939c7.05,10.508,10.604,29.34,6.895,37.381
		c-3.708,8.041-22.624,26.094-35.564,31.734c-12.94,5.639-21.201-0.957-21.201-0.957l2.282,9.492
		C251.475-12.008,257.886-12.044,266.621-16.284z"/>
	<path display="inline" fill="#E5285D" d="M197.842-23.763c0,0,12.886-12.208-5.504-27.846
		c-19.401-16.499-24.109-29.241-24.733-49.032c-0.624-19.789,18.105-59.355,18.105-59.355l94.861-84.642l74.711,83.731
		l-78.527,70.068c0,0-14.261,12.654-19.849,35.029L197.842-23.763z"/>
	<path display="inline" fill="#FFC217" d="M197.842-23.763c0,0-17.977,29.171-18.208,69.48
		c-0.232,40.309,25.453,63.526,28.599,64.269c3.146,0.741,68.4-41.867,76.403-53.978c8.004-12.11,1.438-18.673-8.322-28.418
		c-9.76-9.745-24.931-19.986-23.815-46.179c1.116-26.193,4.372-37.261,4.372-37.261L197.842-23.763z"/>
	<path display="inline" fill="#FF7381" d="M167.722-102.337c0,0,1.956,17.29,13.92,17.971
		c11.964,0.681,137.076-117.519,137.076-117.519l-37.904-42.48l-95.269,84.296C185.545-160.069,168.051-126.102,167.722-102.337z"/>
	<path display="inline" fill="#B5064D" d="M340.695-177.253L195.432-48.229c0,0,12.328,9.584,2.383,24.49l59.042-32.098
		c0,0,4.378-20.055,19.765-35.025c15.387-14.973,78.589-70.124,78.589-70.124L340.695-177.253z"/>
	<polygon display="inline" fill="#FFC217" points="281.178,-243.957 271.459,-254.849 193.721,-185.486 185.406,-158.502 	"/>
	<path display="inline" fill="#DD9300" d="M208.232,109.986c0,0,3.833-0.662,34.111-20.629
		c30.278-19.967,40.802-29.039,44.258-36.807s2.341-12.463-6.459-21.082c-8.8-8.62-22.917-20.106-26.154-34.568
		c-3.236-14.463,2.882-52.749,2.882-52.749l-58.242,31.659c0,0,32.555-15.305,34.083-15.78s-9.559,32.839,2.066,57.601
		c11.625,24.762,28.041,24.664,33.173,34.99S247.487,87.559,208.232,109.986z"/>
	<path display="inline" fill="#FFE340" d="M198.716-20.994c0,0-16.204,30.961-17.193,59.881
		c-0.99,28.918,12.218,53.864,22.727,63.652c10.508,9.787,33.364-21.075,11.447-57.77c-21.917-36.693-5.192-65.279-7.131-67.453
		S198.716-20.994,198.716-20.994z"/>
	
		<rect x="299.239" y="-254.767" transform="matrix(0.7461 -0.6658 0.6658 0.7461 231.7334 149.8642)" display="inline" fill="#FFC217" width="26.303" height="51.633"/>
	
		<rect x="332.25" y="-214.439" transform="matrix(0.7462 -0.6658 0.6658 0.7462 214.623 180.2764)" display="inline" fill="#FFC217" width="22.943" height="46.252"/>
	
		<rect x="290.204" y="-249.027" transform="matrix(0.7462 -0.6658 0.6658 0.7462 236.172 141.2772)" display="inline" fill="#FFE340" width="26.304" height="19.902"/>
	
		<rect x="313.886" y="-216.351" transform="matrix(0.7461 -0.6658 0.6658 0.7461 224.5223 163.7832)" display="inline" fill="#DD9300" width="26.303" height="7.632"/>
	
		<rect x="319.352" y="-209.522" transform="matrix(-0.7462 0.6658 -0.6658 -0.7462 440.6744 -579.5575)" display="inline" fill="#DD9300" width="22.943" height="7.506"/>
	
		<rect x="345.738" y="-179.065" transform="matrix(-0.7462 0.6658 -0.6658 -0.7462 506.4465 -545.4832)" display="inline" fill="#DD9300" width="22.944" height="5.735"/>
	
		<rect x="317.707" y="-208.893" transform="matrix(-0.7462 0.6658 -0.6658 -0.7462 436.5748 -581.6809)" display="inline" fill="#C17700" width="22.943" height="2.561"/>
	
		<rect x="332.076" y="-199.806" transform="matrix(0.7462 -0.6658 0.6658 0.7462 214.7088 180.1108)" display="inline" fill="#FFE340" width="22.943" height="16.594"/>
	<path display="inline" fill="#2B5DA5" d="M194.283-22.184l65.751-34.892c0,0,3.748-2.693,6.093-10.937
		c2.345-8.244-0.279-9.109-0.279-9.109l-64.922,36.924c0,0-3.998,1.754-6.537,7.924C191.849-26.104,194.283-22.184,194.283-22.184z"
		/>
	<path display="inline" fill="#FFA4B1" d="M317.779-200.196l-25.634-28.729c0,0-87.319,81.225-96.169,88.412
		s-17.459-5.479-6.808-16.875s93.643-84.738,93.643-84.738l36.329,40.715L317.779-200.196z"/>
	<polygon display="inline" fill="#FF7381" points="339.109,-176.535 317.67,-200.098 318.855,-201.156 340.727,-177.44 	"/>
	
		<rect x="346.21" y="-179.412" transform="matrix(0.7462 -0.6658 0.6658 0.7462 200.3354 188.4207)" display="inline" fill="#E5285D" width="2.119" height="21.79"/>
	
		<rect x="349.449" y="-222.007" transform="matrix(0.746 -0.6659 0.6659 0.746 224.0407 182.1297)" display="inline" fill="#0E4689" width="2.653" height="38.751"/>
	
		<rect x="326.156" y="-253.159" transform="matrix(0.7462 -0.6658 0.6658 0.7462 238.7737 158.6841)" display="inline" fill="#0E4689" width="2.654" height="38.751"/>
	<path display="inline" fill="#3D81C4" d="M260.358-72.092l-59.629,33.865c0,0-6.972,5.51-5.178,11.895
		c0,0,60.335-38.574,63.112-41.23C261.439-70.217,260.358-72.092,260.358-72.092z"/>
	<path display="inline" fill="#84003C" d="M200.984-40.132l64.894-36.957c0,0,7.088-10.45,13.952-16.794
		c6.864-6.344,74.013-65.896,74.013-65.896l-5.986-6.709c0,0-81.604,73.051-91.992,84.211
		c-10.388,11.162-56.059,39.363-56.059,39.363L200.984-40.132z"/>
	<path display="inline" fill="#FFE340" d="M462.822-332.951l-20.45-22.919c0,0-2.989-4.795-7.271-0.975l-18.77,16.748
		C416.332-340.097,442.248-313.528,462.822-332.951z"/>
	<path display="inline" fill="#DD9300" d="M432.674-317.406l13.399,15.016l22.181-20.501c0,0,4.063-4.216,0.83-7.838l-5.994-6.718
		c0,0,4.27,6.245,3.675,8.669s-11.067,13.069-17.697,15.317S432.674-317.406,432.674-317.406z"/>
	<path display="inline" fill="#FFE340" d="M422.264-287.311l18.364-16.386l20.692,23.191c0,0-7.22,8.801-19.922,5.702
		C428.697-277.902,422.264-287.311,422.264-287.311z"/>
	<path display="inline" fill="#DD9300" d="M418.383-287.517l31.683,35.507l17.372-16.211c0,0,4.904-4.73,1.437-8.616
		c-3.467-3.886-8.697-9.748-8.697-9.748s6.437,8.009,6.562,9.938c0.124,1.929-10.42,17.954-24.486,9.745
		c-14.068-8.208-22.156-22.145-22.156-22.145L418.383-287.517z"/>
	<path display="inline" fill="#FFE340" d="M266.99-64.659c0,0-6.089,10.404-2.068,21.474c4.021,11.07,12.245,0.135,11.896-3.594
		C276.467-50.51,269.461-53.735,266.99-64.659z"/>
	<path display="inline" fill="#FFE340" d="M336.076-137.943l-33.818,29.324c0,0,6.196,7.66,8.545,15.775
		c0,0,16.867-13.563,17.241-15.385c0.374-1.824-0.03-6.568-0.03-6.568s10.002-9.055,10.303-13.724
		C338.616-133.189,336.076-137.943,336.076-137.943z"/>
</g>
<g>
</g>
<g>
</g>
<g>
</g>
<g>
</g>
<g>
</g>
<g>
</g>
<g>
</g>
<g>
</g>
<g>
</g>
<g>
</g>
<g>
</g>
<g>
</g>
<g>
</g>
<g>
</g>
<g>
</g>
</svg>
