<?xml version="1.0" encoding="utf-8"?>
<!-- Generator: Adobe Illustrator 16.0.0, SVG Export Plug-In . SVG Version: 6.00 Build 0)  -->
<!DOCTYPE svg PUBLIC "-//W3C//DTD SVG 1.1//EN" "http://www.w3.org/Graphics/SVG/1.1/DTD/svg11.dtd" [
	<!ENTITY ns_flows "http://ns.adobe.com/Flows/1.0/">
	<!ENTITY ns_extend "http://ns.adobe.com/Extensibility/1.0/">
	<!ENTITY ns_ai "http://ns.adobe.com/AdobeIllustrator/10.0/">
	<!ENTITY ns_graphs "http://ns.adobe.com/Graphs/1.0/">
]>
<svg version="1.1" id="Ñëîé_1" xmlns:x="&ns_extend;" xmlns:i="&ns_ai;" xmlns:graph="&ns_graphs;"
	 xmlns="http://www.w3.org/2000/svg" xmlns:xlink="http://www.w3.org/1999/xlink" xmlns:a="http://ns.adobe.com/AdobeSVGViewerExtensions/3.0/"
	 x="0px" y="0px" width="600px" height="600px" viewBox="0 0 600 600" enable-background="new 0 0 600 600" xml:space="preserve">
<rect x="-346.146" y="46.846" display="none" fill="#FFFFFF" width="1400" height="1000"/>
<g display="none">
	<path display="inline" fill="#006689" d="M779.84,913.661c0,0,9.975-7.268,21.639-4.564c11.665,2.705,22.882,17.697,22.882,17.697
		l7.717-65.877l-22.484,7.607L779.84,913.661z"/>
	<path display="inline" fill="#004D68" d="M786.248,903.94l23.345-35.416l22.484-7.607l-6.252,53.367
		c0,0-2.063-26.918-11.852-28.771C804.187,883.657,786.248,903.94,786.248,903.94z"/>
	<path display="inline" fill="#FFC217" d="M796.914,871.737c0,0-16.06,30.598-37.191,47.842c0,0,1.057,6.932,12.954,3.381
		c11.896-3.551,36.24-46.49,39.621-52.574L796.914,871.737z"/>
	<path display="inline" fill="#FFC217" d="M826.752,865.989c0,0-19.019,20.287-10.65,46.658
		c8.368,26.373,45.137,34.486,49.701,44.377c4.564,9.889-1.521,28.4,4.564,34.738c6.086,6.34,49.954-24.596,48.687-45.896
		s-20.286-8.115-27.386-40.064c-7.101-31.951,6.436-64.129,20.714-83.541C912.382,822.261,845.896,848.872,826.752,865.989z"/>
	<path display="inline" fill="#EAA700" d="M919.054,945.866c-1.268-21.301-20.286-8.115-27.386-40.064
		c-7.101-31.951,6.436-64.129,20.714-83.541c0,0-17.808,7.129-37.646,16.379c-4.664,15.346-12.21,42.613-12.906,60.484
		c-1.015,26.033,13.524,30.09,28.4,36.176c13.293,5.439,25.491,13.582,21.429,29.242C916.367,958.235,919.4,951.69,919.054,945.866z
		"/>
	<path display="inline" fill="#D17E1C" d="M919.054,945.866c-1.268-21.301-20.286-8.115-27.386-40.064
		c-7.101-31.951,6.436-64.129,20.714-83.541c0,0-7.822,3.133-18.871,7.936c-3.487,7.959-9.651,23.891-13.593,44.754
		c-5.747,30.428,0.766,45.137,12.555,52.068c11.789,6.93,18.589,6.893,22.271,15.721c2.977,7.139-1.213,17.434-2.925,21.111
		c-0.054,0.232-0.099,0.459-0.159,0.691C916.367,958.235,919.4,951.69,919.054,945.866z"/>
	<path display="inline" fill="#FFE340" d="M826.836,870.386c0,0-10.819,14.537-8.452,33.555
		c2.367,19.02,20.829,30.008,36.889,37.277s20.927,13.693,19.067,24.174s-5.748,18.088-1.69,21.131
		c4.057,3.043,18.934-7.1,19.778-10.65c0.846-3.549-10.649,3.213-10.819-3.211c-0.169-6.424,7.607-20.117,1.521-29.076
		c-5.216-7.682-23.777-8.6-37.698-14.201c-20.455-8.23-17.412-29.414-7.776-43.785C847.292,871.229,843.572,861.425,826.836,870.386
		z"/>
	<path display="inline" fill="#FFE340" d="M795.703,878.794c0,0-9.558,15.621-17.331,25.146s-15.297,14.625-15.582,15.695
		c-0.285,1.068,0.674,3.084,5.349,0.266c7.541-4.545,16.723-17.203,23.925-28.328c7.203-11.125,9.112-14.301,9.112-14.301
		L795.703,878.794z"/>
	<polygon display="inline" fill="#EAA700" points="801.176,877.272 809.94,874.544 805.958,881.329 798.019,882.306 	"/>
	<polygon display="inline" fill="#EAA700" points="823.847,869.663 887.337,837.876 874.072,855.847 820.574,874.853 	"/>
	<path display="inline" fill="#D17E1C" d="M864.968,917.815c0,0-4.673-5.186-2.723-24.414c1.951-19.229,10.509-47.895,10.509-47.895
		l25.685-14.762l-15.096,44.07c0,0-3.957-4.707-13.691,8.879c-9.734,13.584-5.671,37.826,7.701,44.818
		c13.373,6.992,16.602,8.404,16.602,8.404S870.338,930.118,864.968,917.815z"/>
	<path display="inline" fill="#FFC217" d="M963.599,681.386c0,0-49.701-38.205-128.817-31.105
		c-79.115,7.1-99.063,63.225-99.063,63.225l146.398,8.453c0,0-2.367-16.566,17.919-29.754c20.286-13.186,53.759-9.467,57.478-8.451
		C961.232,684.767,963.599,681.386,963.599,681.386z"/>
	<path display="inline" fill="#EAA700" d="M963.599,681.386c0,0-97.775-32.316-137.344,37.348l55.861,3.225
		c0,0-0.719-19.061,17.919-29.754c18.638-10.691,43.573-11.41,57.478-8.451C957.513,683.753,961.485,684.683,963.599,681.386z"/>
	<path display="inline" fill="#FFE340" d="M735.718,713.505c0,0,12.427-33.764,52.195-51.283s81.608-14.508,113.179-7.561
		c31.57,6.945,59.633,23.512,62.507,26.725c0,0-66.353-40.826-144.454-19.525s-65.677,95.092-65.677,95.092L735.718,713.505z"/>
	<path display="inline" fill="#D17E1C" d="M963.599,681.386c0,0-36.016-12.109-73.625-5.611
		c-37.61,6.498-51.558,26.277-51.558,26.277l43.996,16.99c0,0,0-9.637,8.241-18.766c0,0-17.413,6.414-17.223-4.24
		c0.143-7.986,24.422-16.656,44.356-17.615c32.547-1.564,43.614,4.359,43.614,4.359L963.599,681.386z"/>
	<path display="inline" fill="#5CB4E5" d="M579.126,786.536c0,0,72.887-90.951,184.798-97.035
		c111.912-6.086,202.452,81.482,202.452,85.877S858.629,883.909,741.308,886.952c-117.322,3.043-162.182-82.498-162.182-82.498
		V786.536z"/>
	<path display="inline" fill="#8DCFF7" d="M966.346,775.548c0,0-65.236-35.586-203.183-24.09
		c-137.945,11.494-184.037,42.516-184.037,42.516v-7.1c0,0,80.578-99.332,190.461-97.678
		C879.471,690.853,955.568,758.136,966.346,775.548z"/>
	<path display="inline" fill="#B3E6FF" d="M772.736,699.981c110.792-4.734,193.64,75.566,193.64,75.566
		c-10.777-17.412-86.891-84.695-196.773-86.352c-109.884-1.654-190.477,97.678-190.477,97.678v1.6
		C579.126,788.474,661.944,704.714,772.736,699.981z"/>
	<path display="inline" fill="#4E99CC" d="M579.126,804.454c0,0,32.07,70.971,135.609,81.637s221.253-72.508,251.641-110.543
		c0,0-80.958,47.121-182.727,66.055c-101.77,18.934-204.523-47.629-204.523-47.629V804.454z"/>
	<path display="inline" fill="#247AA0" d="M717.005,874.271c-83.354-8.393-127.182-56.16-137.879-71.916v2.1
		c0,0,32.07,70.971,135.609,81.637s221.283-72.508,251.67-110.543C950.557,794.649,814.83,884.12,717.005,874.271z"/>
	<path display="inline" fill="#FFC217" d="M595.25,761.009c-0.258,0.67-0.674,74.551-0.167,75.904
		c0.507,1.352,25.981,25.02,26.996,24.682s0.223-127.482-0.453-127.145S596.095,758.812,595.25,761.009z"/>
	<path display="inline" fill="#EAA700" d="M606.056,832.179c-12.301-5.559-10.25-14.199-11.212-17.957
		c-0.006,12.406,0.058,22.207,0.239,22.691c0.507,1.352,25.982,25.02,26.996,24.682c0.395-0.133,0.522-12.518,0.484-36.008
		C622.569,832.349,618.734,837.909,606.056,832.179z"/>
	<path display="inline" fill="#FFC217" d="M647.621,709.667c-3.28,2.273-5.057,5.832-5.071,9.506
		c-0.096,24.477-0.578,154.932-0.057,156.77c0.063,0.217,0.223,0.516,0.468,0.865c4.6,6.545,16.177,3.43,16.177-4.266V712.229
		c0-2.596-2.414-4.738-5.362-4.652C651.946,707.63,649.808,708.151,647.621,709.667z"/>
	<path display="inline" fill="#EAA700" d="M651.868,847.394c-4.307,0.777-7.431-1.635-9.612-4.701
		c0.007,19.059,0.071,32.666,0.237,33.25c0.063,0.217,0.223,0.516,0.468,0.865c4.6,6.545,16.177,3.43,16.177-4.266v-30.939
		C657.719,844.392,655.462,846.745,651.868,847.394z"/>
	<path display="inline" fill="#FFC217" d="M684.727,691.292c-3.641,2.699-5.613,6.922-5.629,11.281
		c-0.106,29.053-0.643,183.885-0.063,186.066c0.068,0.258,0.246,0.611,0.519,1.027c5.106,7.77,17.958,4.07,17.958-5.063v-190.27
		c0-3.08-2.679-5.625-5.952-5.523C689.528,688.874,687.155,689.493,684.727,691.292z"/>
	<path display="inline" fill="#EAA700" d="M688.108,858.366c-4.574-0.096-7.484-2.443-9.336-5.338
		c0.016,20.584,0.089,34.957,0.263,35.611c0.068,0.258,0.246,0.611,0.519,1.027c5.106,7.77,17.959,4.07,17.959-5.063v-30.588
		C695.87,856.454,693.028,858.47,688.108,858.366z"/>
	<path display="inline" fill="#FFC217" d="M723.47,675.804c-3.969,3.039-6.12,7.795-6.137,12.705
		c-0.115,32.713-0.701,207.066-0.068,209.523c0.074,0.291,0.269,0.689,0.565,1.156c5.567,8.748,19.578,4.584,19.578-5.701V679.229
		c0-3.469-2.921-6.332-6.489-6.219C728.705,673.081,726.117,673.778,723.47,675.804z"/>
	<path display="inline" fill="#EAA700" d="M728.533,864.257c-5.234-0.275-8.967-2.205-11.553-4.393
		c0.019,22.143,0.1,37.451,0.284,38.168c0.074,0.291,0.269,0.689,0.565,1.156c5.567,8.748,19.578,4.584,19.578-5.701v-31.637
		C735.161,863.417,732.261,864.452,728.533,864.257z"/>
	<path display="inline" fill="#FFE340" d="M598.025,803.483c0,0-0.38-40.318,0-42.094s21.554-22.564,21.554-22.564l0.508,37.525
		c0,0-2.536-3.17-9.256-2.029S598.913,786.62,598.025,803.483z"/>
	<path display="inline" fill="#FFE340" d="M644.304,779.013c0,0-0.213-54.236,0-60.225c0.212-5.988,11.157-11.918,12.045-4.945
		c0.887,6.975,0,58.197,0,58.197s-1.396-33.084-4.691-33.215C648.36,738.694,644.177,758.726,644.304,779.013z"/>
	<path display="inline" fill="#FFE340" d="M681.388,760.501v-59.844c0,0,1.03-7.734,6.387-9.256s6.449,2.789,6.449,5.453
		c0,2.662,0,58.576,0,58.576s-0.901-22.441-6.322-21.428S681.388,760.501,681.388,760.501z"/>
	<path display="inline" fill="#FFE340" d="M719.896,754.585v-67.859c0,0,1.188-8.771,7.025-10.496s7.094,3.164,7.094,6.182
		c0,3.02,0,66.422,0,66.422s-1.048-25.447-6.955-24.297S719.896,754.585,719.896,754.585z"/>
	<polygon display="inline" fill="#4E99CC" points="737.438,691.687 737.438,870.536 749.127,844.966 741.433,691.085 	"/>
	<polygon display="inline" fill="#4E99CC" points="697.646,702.382 697.646,861.552 704.493,845.077 701.069,700.917 	"/>
	<polygon display="inline" fill="#4E99CC" points="659.138,720.353 659.138,841.44 667.268,834.167 662.348,718.429 	"/>
	<polygon display="inline" fill="#4E99CC" points="622.004,745.892 622.563,825.587 629.904,819.653 624.48,743.673 	"/>
	<polygon display="inline" fill="#247AA0" points="737.51,691.687 738.438,877.382 745.141,877.382 738.865,691.687 	"/>
	<polygon display="inline" fill="#247AA0" points="697.646,702.382 697.646,875.671 702.223,872.315 698.823,701.741 	"/>
	<polygon display="inline" fill="#247AA0" points="659.138,720.353 659.138,864.546 663.203,861.599 659.917,719.886 	"/>
	<polygon display="inline" fill="#247AA0" points="622.004,745.892 622.569,847.003 627.738,845.425 622.563,745.554 	"/>
</g>
<g>
	<rect x="144.542" y="253.559" fill="#B5064D" width="37.525" height="11.639"/>
	<rect x="144.542" y="260.632" fill="#96003D" width="37.525" height="4.193"/>
	<circle fill="#FFC217" cx="136.014" cy="259.378" r="22.174"/>
	<circle fill="#FFE340" cx="133.606" cy="254.216" r="14.603"/>
	<path fill="#8608C1" d="M202.334,221.341c-0.602,0-5.819-0.401-6.622,0S173.438,237.595,172.836,239
		c-0.602,1.404,0,41.538,0,42.541s27.09,28.093,27.09,28.093s4.816-15.853,7.424-47.357
		C209.96,230.772,202.334,221.341,202.334,221.341z"/>
	<path fill="#640089" d="M201.281,221.482c0,0,0.739,63.095-4.522,84.975l-23.923-24.917l-0.268-22.163c0,0-1.99,12.371,6.89,18.24
		s13.244-2.257,15.501-25.133c2.258-22.876,0.752-31.144,0.752-31.144L201.281,221.482z"/>
	<path fill="#FFC217" d="M230.385,184.007c0,0,35.761-44.097,93.251-45.902c57.491-1.806,88.193,27.391,88.796,46.655
		c0.602,19.264-47.559,117.69-128.226,118.293C203.539,303.655,215.092,207.185,230.385,184.007z"/>
	<path fill="#FFE340" d="M250.695,237.034c-23.287-11.559-8.83-63.21,35.518-82.073c44.348-18.863,92.307-3.813,93.109,9.431
		c0.803,13.244-40.697,18.461-63.391,34.515C293.236,214.96,278.187,250.679,250.695,237.034z"/>
	<path fill="#EAA700" d="M240.113,174.229c0,0-18.62,31.58-16.11,62.975c2.51,31.396,24.818,57.054,54.375,55.548
		s43.148-15.922,58.501-41.038s13.59-35.901,32.131-54.689c18.54-18.788,39.898-23.938,39.898-23.938l-3.214-4.947
		c0,0-14.313-17.669-36.897-24.153c0,0,29.362,14.514,30.392,23.013c0,0-30.1,5.418-51.17,32.708s-31.115,67.485-72.842,74.447
		c-41.727,6.962-48.762-49.163-38.93-78.862s24.361-36.997,24.361-36.997L240.113,174.229z"/>
	<path fill="#B76400" d="M405.694,168.141c0,0-0.412-0.506-1.197-1.373c0.197,1.101,0.279,2.235,0.287,3.418
		c0.001,0.244-0.068,0.443-0.181,0.598c0.108,0.271,0.214,0.542,0.306,0.815c0,0-28.807,6.66-49.877,33.951
		c-21.069,27.291-21.19,71.204-73.144,77.2c-42.024,4.85-61.171-35.463-48.891-85.854c3.203-13.146,8.8-22.138,14.122-28.113
		l-7.006,5.446c0,0-18.62,31.58-16.11,62.975c2.51,31.396,24.818,57.054,54.375,55.548s43.148-15.922,58.501-41.038
		s13.59-35.901,32.131-54.689c18.54-18.788,39.898-23.938,39.898-23.938L405.694,168.141z"/>
	<path fill="#8608C1" d="M249.384,403.099c0,0-0.997-28.107,22.782-35.029c23.779-6.924,27.842,8.578,27.842,8.578l26.488-48.611
		c0,0-47.408-4.516-70.735,22.273C232.435,377.099,249.384,403.099,249.384,403.099z"/>
	<path fill="#FFC217" d="M315.932,400.577c0,0-3.883-10.234,4.695-31.605c8.579-21.371,26.789-35.818,26.789-35.818l-26.939-0.753
		c0,0-12.642,10.986-21.521,32.508C290.076,386.43,305.516,398.319,315.932,400.577z"/>
	<path fill="#E5285D" d="M170.127,432.031c-1.386-10.138-2.458-9.708,14.398-69.506c16.856-59.799,16.479-97.813,16.329-125.354
		s-1.066-35.236-0.765-38.547c0.301-3.311,26.597-26.497,30.302-26.949c3.705-0.452,9.722,1.199,9.722,2.554
		s-12.794,20.767-13.396,53.275c-0.602,32.508,18.661,63.208,48.46,60.801c29.799-2.408,53.822-13.546,68.12-50.719
		c14.297-37.173,49.144-70.986,82.667-64.565v114.38c0,0-20.611,43.645-67.567,46.655s-87.813,3.611-104.971,37.625
		c-17.157,34.014,10.575,45.893,6.962,67.344c-3.612,21.451-27.07,20.85-49.043,17.237
		C189.372,452.649,171.735,443.784,170.127,432.031z"/>
	<path fill="#B5064D" d="M256.891,448.259c0,0,7.851-15.174-5.594-31.428c-13.444-16.254-25.484-30.702-19.264-57.993
		c6.221-27.29,35.512-40.435,65.815-45.25s76.658-1.806,104.65-43.645c27.993-41.839,9.782-97.388,9.782-97.388
		s7.96-1.139,13.683,0.466v114.38c0,0-13.818,32.727-48.443,42.926c-34.626,10.2-61.678,2.391-92.811,14.121
		c-31.133,11.73-40.13,42.34-35.762,57.361S267.35,432.731,256.891,448.259z"/>
	<path fill="#FFC217" d="M425.964,173.513v114.38c0,0,1.991,2.97,7.208,0.682c5.218-2.288,23.863-17.338,23.863-17.338V193.98
		l-27.375-23.077C429.66,170.904,426.782,169.8,425.964,173.513z"/>
	<polygon fill="#8608C1" points="457.035,201.576 457.035,226.107 457.035,234.535 457.035,258.615 482.383,242.361 
		482.383,234.535 482.383,226.107 482.383,218.056 	"/>
	<path fill="#FFE340" d="M430.191,228.764c0,0,0-50.446,0.15-51.199c0.15-0.752,1.929-1.293,1.929-1.293l21.494,18.422v34.916
		c0,0-2.004-21.07-11.787-23.177C432.195,204.325,430.191,228.764,430.191,228.764z"/>
	<path fill="#AA5DCE" d="M481.156,229.609v-10.836l-22.485-14.147v22.575c0,0,1.159-9.782,9.587-8.127
		C476.686,220.729,481.156,226.599,481.156,229.609z"/>
	<path fill="#EAA700" d="M425.964,245.261v42.14c0,0,2.191,2.95,7.208,1.174l23.863-17.338v-34.404c0,0-0.178,18.963-6.8,23.779
		s-19.887,7.675-21.241,6.622C427.64,266.18,425.964,245.261,425.964,245.261z"/>
	<path fill="#640089" d="M482.383,230.813v12.04l-25.348,15.762v-24.19c0,0,0.574,10.686,6.745,9.331s14.192-4.816,15.848-6.17
		C481.284,236.231,482.383,230.813,482.383,230.813z"/>
	<path fill="#FF7381" d="M231.431,174.425c-1.204,0-27.09,22.274-27.491,25.886s6.622,33.311,1.806,84.079
		c-4.816,50.769-32.508,126.019-30.702,141.27c1.806,15.251,28.495,23.478,43.344,26.087c14.85,2.608,25.284-15.051,13.846-26.287
		c-11.438-11.238-32.508-15.854-33.712-51.371s23.277-53.779,23.077-103.143c-0.201-49.364-4.168-68.9-1.354-79.414
		S231.431,174.425,231.431,174.425z"/>
	<path fill="#FF7381" d="M408.067,176.271c-3.311-0.691-27.842,9.542-47.407,41.448c-19.564,31.906-24.832,81.42-87.741,80.066
		c0,0-46.183-1.479-51.837-53.866l-7.31,67.562l-0.17,5.773c0,0,3.03-16.007,14.167-16.608c11.137-0.603,15.652,15.049,69.23,7.373
		c53.578-7.675,91.955-70.283,102.941-91.202S408.067,176.271,408.067,176.271z"/>
	<path fill="#96003D" d="M248.127,413.166c0,0-27.331-27.386-15.124-58.034c12.207-30.65,41.278-38.146,63.277-41.9
		c22-3.756,58.606,0.028,88.688-24.08c30.081-24.109,33.122-59.307,33.104-78.368s-5.896-38.227-5.896-38.227
		s11.744-0.897,13.788,0.956v114.008c0,0-3.815-53.56-3.815-55.464s1.56,38.26-16.626,57.384
		c-20.986,22.07-41.403,27.107-83.661,29.832c-42.257,2.727-73.329,8.723-83.413,40.883
		C228.364,392.317,248.127,413.166,248.127,413.166z"/>
	<path fill="#96003D" d="M393.503,323.491c0,0,18.207-12.305,24.802-23.053c6.595-10.749,7.659-12.918,7.659-12.918v-87.08
		l-9.402,48.65l-18.003,47.061c0,0,14.527-12.106,16.571-11.493c2.045,0.613-1.226,19.624-24.12,34.956
		c-22.895,15.33-50.703,16.623-50.703,16.623S372.693,335.545,393.503,323.491z"/>
	<path fill="#640089" d="M249.384,403.099c0,0-6.166-25.022,13.253-44.441c19.419-19.42,52.687-20.855,52.687-20.855
		s-15.011,18.076-18.416,33.672l-2.383-2.596c0,0,7.564-19.215,0.614-19.828s-26.364,4.088-36.795,24.324
		C247.914,393.611,249.384,403.099,249.384,403.099z"/>
	<path fill="#AA5DCE" d="M190.232,228.241c0,0-14.712,10.864-15.272,11.837s-0.561,25.32-0.561,25.32s8.585,1.545,14.036-13.718
		C193.886,236.417,190.232,228.241,190.232,228.241z"/>
	<path fill="#AA5DCE" d="M270.61,366.488c0,0,9.675-11.238,16.625-11.784c6.95-0.545,4.905,9.131,2.862,9.54
		C288.053,364.653,281.599,361.925,270.61,366.488z"/>
	<path fill="#FFE340" d="M325.393,337.802c0,0-17.454,19.656-20.169,37.344c-2.714,17.688,5.778,21.26,5.778,21.26
		s-2.08-13.177,5.338-30.982c7.418-17.805,20.228-29.186,20.228-29.186L325.393,337.802z"/>
	<path fill="#FFF2B0" d="M365.73,160.92c-1.636-5.724-26.381-11.217-49.799-9.812c-23.42,1.405-28.151,10.084-27.879,11.447
		c0.273,1.363,17.988-2.998,42.791,1.635C355.646,168.824,365.73,160.92,365.73,160.92z"/>
	<path fill="#FFF2B0" d="M285.6,165.647c0,0-10.357,9.446-7.359,13.807s40.065-2.317,41.428-7.291S285.6,165.647,285.6,165.647z"/>
</g>
<g display="none">
	<path display="inline" fill="#FFC217" d="M923.683,240.804l-79.639,74.724c0,0,1.933,12.216,9.693,23.427l86.173-80.856
		L923.683,240.804z"/>
	<polygon display="inline" fill="#E5285D" points="932.737,239.581 923.182,240.271 940.075,258.275 941.747,249.183 	"/>
	
		<rect x="834.67" y="291.077" transform="matrix(0.7292 -0.6842 0.6842 0.7292 39.9503 691.4846)" display="inline" fill="#EAA700" width="118.144" height="8.367"/>
	
		<rect x="826.293" y="278.618" transform="matrix(-0.7292 0.6842 -0.6842 -0.7292 1721.6414 -116.3148)" display="inline" fill="#FFE340" width="115.08" height="7.687"/>
	<path display="inline" fill="#00366B" d="M842.806,391.257c0,0,1.26-25.592,14.964-35.441l-15.967-75.551l-16.909,71.784
		L842.806,391.257z"/>
	<path display="inline" fill="#FFC217" d="M686.335,270.127c0,0,21.937-54.666,23.67-56.292
		c1.734-1.627,129.77-36.495,129.77-36.495l-41.026,41.002c0,0,2.99-8.574-6.058-8.862s-61.561,11.367-62.66,13.402
		s-12.928,32.193-12.077,33.902C718.805,258.493,686.335,270.127,686.335,270.127z"/>
	<path display="inline" fill="#FFE340" d="M710.005,213.834c-1.733,1.626-23.67,56.292-23.67,56.292s1.449-0.519,3.721-1.352
		c4.134-9.74,21.998-51.784,22.617-52.365c0.598-0.562,94.597-26.368,121.877-33.849l5.225-5.222
		C839.774,177.339,711.739,212.208,710.005,213.834z"/>
	<path display="inline" fill="#EAA700" d="M723.243,219.658c-1.274,1.045-11.951,30.735-16.188,42.616
		c6.172-2.501,11.24-4.801,10.897-5.49c-0.851-1.709,10.978-31.867,12.077-33.902s53.612-13.69,62.66-13.402
		s6.058,8.862,6.058,8.862l9.57-9.565c-0.6-3.688-2.528-8.907-8.652-9.102C790.166,199.373,724.838,218.35,723.243,219.658z"/>
	<path display="inline" fill="#B5064D" d="M783.857,411.372c0,0,13.433-2.947,16.774,1.817s2.872,19.499-13.668,39.156
		c0,0-1.588,1.114-2.21,8.469s9.821,67.524,11.98,70.765s61.864,11.546,65.942,11.481c4.078-0.063,11.455-6.233,10.113-12.875
		c-1.341-6.642-31.604-141.13-37.75-179.752c-6.145-38.622,9.091-66.084,33.823-87.034s34.315-46.014,34.315-46.014l-104.915,73.51
		L783.857,411.372z"/>
	<path display="inline" fill="#E5285D" d="M812.969,482.867c-4.634-33.271,20.341-53.694,17.235-77.362
		c-3.105-23.67-36.705-74.759-36.705-74.759l0,0l-9.642,80.626c0,0,13.433-2.947,16.774,1.817s2.872,19.499-13.668,39.156
		c0,0-1.588,1.114-2.21,8.469s9.821,67.524,11.98,70.765s61.864,11.546,65.942,11.481c4.078-0.063,11.455-6.233,10.113-12.875
		c-0.045-0.225-0.126-0.606-0.235-1.114l-19.456,1.91C853.099,530.981,817.603,516.138,812.969,482.867z"/>
	<path display="inline" fill="#2B5DA5" d="M869.278,148.378l-101.627,95.355c0,0-66.063-1.45-117.553,43.101
		c-51.489,44.551-39.921,93.764-39.921,93.764l67.421,75.865c0,0,38.416,12.076,93.408-32.752s55.521-134.87,55.521-134.87
		l120.495-112.314c0,0,7.134-8.583,4.21-13.738l-35.665-38.01C915.568,124.78,904.914,119.405,869.278,148.378z"/>
	<path display="inline" fill="#3D81C4" d="M923.489,133.222l-7.921-8.441c0,0-10.654-5.375-46.29,23.598l-101.627,95.355
		c0,0-66.063-1.45-117.553,43.101c-51.489,44.551-39.921,93.764-39.921,93.764l16.987,19.115l151.104-130.232L923.489,133.222z"/>
	<path display="inline" fill="#81B7E2" d="M785.931,275.509c-39.047-38.57-171.75,30.441-176.813,87.755l1,17.271l67.451,75.896
		l18.234,1.315c0,0,37.281-9.771,76.686-60.786C811.894,345.944,806.503,295.831,785.931,275.509z"/>
	<path display="inline" fill="#E5285D" d="M750.593,320.704c-24.667-28.979-106.57-1.322-144.463,34.733
		s-47.613,81.29-21.667,111.616c25.946,30.324,69.253,19.283,105.282-7C725.774,433.771,780.027,355.28,750.593,320.704z"/>
	<path display="inline" fill="#FF7381" d="M706.712,331.073c-11.671-14.709-61.286,2.697-97.392,35.682s-32.579,62.401-22.88,74.743
		c9.699,12.341,42.669,6.986,80.004-25.788C703.78,382.935,718.764,346.264,706.712,331.073z"/>
	<path display="inline" fill="#B5064D" d="M684.889,313.261c0,0,48.167-14.723,65.704,7.443
		c17.538,22.166,9.049,69.504-40.529,120.975c-49.577,51.472-99.421,56.483-125.601,25.375
		c-26.181-31.109-9.426-66.515-9.426-66.515s-12.119,23.907,4.666,51.419c16.785,27.511,72.603,11.627,113.274-28.416
		c40.673-40.044,44.752-95.031,33.841-105.859C715.906,306.855,684.889,313.261,684.889,313.261z"/>
	<path display="inline" fill="#84003C" d="M684.889,313.261c0,0,48.167-14.723,65.704,7.443
		c17.538,22.166,9.049,69.504-40.529,120.975c-49.577,51.472-99.421,56.483-125.601,25.375
		c-26.181-31.109-9.426-66.515-9.426-66.515s-11.249,29.44,5.665,56.872c27.572,44.717,82.037,20.364,122.709-19.68
		c40.673-40.043,55.466-92.854,43.127-113.994C730.688,296.581,684.889,313.261,684.889,313.261z"/>
	<polygon display="inline" fill="#E5285D" points="915.568,124.78 951.608,163.19 952.587,135.689 940.323,122.62 	"/>
	<path display="inline" fill="#0E4689" d="M822.476,268.102c0,0,4.529,10.851,4.021,20.716l120.511-112.302
		c0,0,7.562-7.452,4.601-13.326l-7.508-8.002L822.476,268.102z"/>
	<path display="inline" fill="#E5285D" d="M838.048,132.627c0,0,48.365,45.185,43.122,130.605l10.758-37.818l-30.519-85.638
		l-14.411-15.359L838.048,132.627z"/>
	<path display="inline" fill="#FFC217" d="M859.998,140.894c0,0,35.547,83.589,21.468,122.306l29.207-27.405
		c0,0,16.169-36.491-27.238-116.43L859.998,140.894z"/>
	<path display="inline" fill="#FFC217" d="M846.616,287.481c0,0-2.739,33.057,27.311,60.698l-8.97,25.721
		c0,0-17.486-11.821-26.061-34.991C830.322,315.737,846.616,287.481,846.616,287.481z"/>
	<path display="inline" fill="#FFE340" d="M874.267,173.44c0,0-7.453-21.474-11.971-31.902l20.306-19.052
		c0,0,7.372,13.971,16.043,33.536c0,0-4.981-8.116-13.71-2.183S874.267,173.44,874.267,173.44z"/>
	<path display="inline" fill="#EAA700" d="M881.299,209.98c0,0,6.897,30.325,0.167,53.219l29.207-27.405
		c0,0,6.468-24.968-0.517-48.925c0,0-2.386,9.348-14.046,18.971C884.45,215.465,881.299,209.98,881.299,209.98z"/>
	<path display="inline" fill="#B5064D" d="M934.34,144.786l17.269,18.405l0.979-27.501l-6.258-6.668c0,0,1.662,3.331-0.103,10.002
		s-4.659,9.262-5.576,9.621S934.34,144.786,934.34,144.786z"/>
	<path display="inline" fill="#FF7381" d="M917.749,125.745l10.511,11.203c0,0,0.352-3.84,4.958-6.281
		c4.605-2.441,9.378-2.906,9.378-2.906l-3.629-3.868L917.749,125.745z"/>
	<path display="inline" fill="#4B94C6" d="M734.388,310.58c0,0,10.044,2.488,16.205,10.124c6.162,7.636,13.41,21.479,3.646,53.517
		c-9.765,32.038-43.334,68.426-61.371,83.28c0,0,20.318-0.39,60.782-38.854c40.464-38.465,46.429-80.139,46.429-80.139
		s-12.307,33.205-40.978,65.498c-16.003,18.025-20.775,15.544-20.775,15.544s21.254-21.448,30.028-53.19
		C777.127,334.616,752.917,312.678,734.388,310.58z"/>
	<path display="inline" fill="#ABDDFF" d="M619.477,342.663c0,0,11.048-28.011,64.162-55.545s87.752-17.234,97.559-6.79
		c21.596,23.003,9.714,60.022,2.075,63.175c-7.639,3.154,2.467-17.926-28.405-38.469
		C723.994,284.49,665.175,301.374,619.477,342.663z"/>
	<path display="inline" fill="#FF7381" d="M794.954,404.803c0,0,9.849,1.464,12.358,9.368s-7.946,27.082-13.383,34.412
		c-5.436,7.332-5.652,21.361-5.058,24.373c0.595,3.01,9.396,51.846,11.176,53.744c1.78,1.897,42.941,10.111,42.941,10.111
		s-25.288-0.805-37.477-29.959c-12.189-29.152-10.402-48.671,0.367-61.898c10.769-13.227,20.67-27.869,14.658-41.408
		C814.525,390.007,794.954,404.803,794.954,404.803z"/>
	<path display="inline" fill="#FFAEBA" d="M687.294,338.552c-3.203-8.184-45.975,7.096-60.021,21.124s-3.049,20.726,10.222,16.938
		C650.764,372.827,689.21,343.445,687.294,338.552z"/>
	<path display="inline" fill="#FFAEBA" d="M609.745,378.308c-7.003-0.565-31.516,33.207-24.979,47.781
		c6.537,14.572,40.988-26.673,37.928-38.967S609.745,378.308,609.745,378.308z"/>
	<path display="inline" fill="#84003C" d="M881.204,238.259L826.5,288.815c0,0-3.492,45.619-14.122,73.49l4.515,8.494
		c0,0,10.332-33.781,12.89-39.508s3.904,3.749,3.904,3.749s3.496-27.847,9.89-40.761c6.395-12.913,10.443-16.385,13.952-20.042
		c3.51-3.658,21.393-19.706,24.038-24.089L881.204,238.259z"/>
	<path display="inline" fill="#FFE340" d="M843.218,297.405c0,0-5.039,11.92-0.904,31.123s18.54,32.951,20.242,33.696
		c1.703,0.745,7.127-9.697,6.264-12.399c-0.863-2.703-15.472-10.072-21.82-30.209C840.649,299.48,843.218,297.405,843.218,297.405z"
		/>
</g>
<g display="none">
	<path display="inline" fill="#E5285D" d="M-123.989,793.796c0,0-2.415,1.535,3.045,16.617c5.46,15.084,12.36,17.42,12.36,17.42
		l-5.587,6.162c0,0-13.626-9.879-17.604-31.611L-123.989,793.796z"/>
	<path display="inline" fill="#E5285D" d="M-123.954,860.021c0,0,25.335-29.43,26.391-33.201c1.055-3.77-3.237-16.809-9.845-25.164
		s-17.006-9.82-17.006-9.82l13.893-15.32c0,0,8.624,7.145,17.089,20.9s10.557,29.273,9.712,31.322
		c-0.845,2.049-33.29,41.041-33.29,41.041L-123.954,860.021z"/>
	<path display="inline" fill="#B5064D" d="M-105.54,797.919c-5.237-5.916-11.391-8.869-15.165-10.174l-3.71,4.09
		c0,0,10.398,1.465,17.006,9.82s10.926,21.418,9.871,25.189c-1.055,3.77-26.404,33.188-26.404,33.188l2.086,2.936
		c7.436-9.094,26.867-32.92,28.093-35.625C-92.243,823.991-97.197,807.341-105.54,797.919z"/>
	<path display="inline" fill="#84003C" d="M-110.521,776.515l-2.917,3.217c2.719,1.861,7.219,5.445,11.912,11.525
		c7.375,9.559,15.912,29.516,14.52,36.076l-31.795,39.926l1.786,2.514c0,0,32.429-39.006,33.273-41.055s-1.223-17.545-9.688-31.301
		S-110.521,776.515-110.521,776.515z"/>
	<path display="inline" fill="#FFC217" d="M-221.623,899.569c0,0,38.669-30.229,53.335-20.082
		c14.665,10.146,4.996,29.748,13.135,60.994c8.14,31.248,30.476,38.895,34.941,38.439s27.545-25.906,30.026-33.113
		c2.482-7.205-15.743-46.697-31.457-87.965s-5.471-68.455-5.471-68.455L-221.623,899.569z"/>
	<path display="inline" fill="#DD9300" d="M-156.438,863.438c-9.792-9.178-26.826-2.238-37.148,3.445l-28.037,32.686
		c0,0,38.669-30.229,53.334-20.082c9.334,6.457,8.812,16.754,9.296,31.438C-153.223,887.612-144.019,875.081-156.438,863.438z"/>
	<path display="inline" fill="#DD9300" d="M-152.792,819.325c1.117,6.938,4.105,20.131,12.097,41.279
		c12.815,33.91,32.053,76.01,35.063,86.844c2.764,9.953-1.46,19.543-2.167,21.039c7.69-8.041,16.165-18.471,17.614-22.68
		c2.482-7.205-15.743-46.697-31.457-87.965s-5.471-68.455-5.471-68.455L-152.792,819.325z"/>
	<path display="inline" fill="#2B5DA5" d="M-57.634,562.079l-229.154,252.703l-15.718-14.254l-9.649,10.641
		c0,0-3.834,36.6,27.979,69.051c31.814,32.453,52.292,32.559,52.292,32.559L21.26,633.622L-57.634,562.079z"/>
	<path display="inline" fill="#0E4689" d="M-231.884,912.778L21.26,633.622l-25.391-23.025l-260.329,287.08
		C-243.792,913.153-231.884,912.778-231.884,912.778z"/>
	<path display="inline" fill="#3D81C4" d="M-57.634,562.079l-229.154,252.703l-15.718-14.254l-9.649,10.641
		c0,0-2.318,27.461,17.185,55.764l258.798-285.391L-57.634,562.079z"/>
	<path display="inline" fill="#FFC217" d="M-115.551,771.735c0,0,39.106,0.543,40.945-0.492s82.15-91.119,82.15-91.119
		l-21.961-19.916L-115.551,771.735z"/>
	<path display="inline" fill="#FFC217" d="M-83.453,582.212c0,0,24.066,14.055,41.69,30.375
		c17.624,16.318,34.555,33.691,34.555,33.691l31.169-15.295l12.248-30.266c0,0-9.36-15.75-33.939-36.688
		c-24.58-20.939-39.906-30.108-42.194-29.82C-42.213,534.499-83.453,582.212-83.453,582.212z"/>
	<path display="inline" fill="#FFC217" d="M-166.646,645.239c0,0,11.635,10.775,14.032,12.725
		c2.398,1.949,23.495,10.725,25.411,8.859c1.917-1.865,29.094-31.707,29.52-32.672c0.425-0.967-23.11-37.393-23.481-37.73
		c-0.371-0.336-5.651,5.459-5.651,5.459s4.536,8.391,3.987,9.244c-0.549,0.854-26.667,29.629-26.667,29.629l-7.851-5.768
		L-166.646,645.239z"/>
	<path display="inline" fill="#FFE340" d="M-47.043,602.394c0,0-18.433-14.35-32.307-21.189c0,0,37.902-43.309,39.83-43.924
		s22.215,12.209,33.344,22.469c0,0-10.867-3.1-27.094,14.607S-47.043,602.394-47.043,602.394z"/>
	<path display="inline" fill="#DD9300" d="M-7.208,646.278l43.926-45.982c0,0-12.759-16.795-21.855-25.014
		c0,0,9.569,7.324-10.825,30.373c-20.393,23.047-30.022,21.934-30.022,21.934L-7.208,646.278z"/>
	<path display="inline" fill="#DD9300" d="M-126.827,601.87c0,0,3.994,3.283,12.767,16.08c8.772,12.795,8.561,18.119,6.841,20.389
		c-1.72,2.268-18.316,22.68-20.099,23.652c0,0,17.802-21.121,17.672-26.191s-13.189-24.682-13.189-24.682L-126.827,601.87z"/>
	<path display="inline" fill="#DD9300" d="M-157.571,635.231l-2.689,2.967c0,0,7.578,9.91,16.422,16.916
		c8.844,7.008,14.95,8.041,14.95,8.041s-9.329-5.193-16.338-12.113c-7.01-6.92-4.25-10.271-4.25-10.271L-157.571,635.231z"/>
	<path display="inline" fill="#FFE340" d="M-146.917,639.038c0,0-2.435,4.547,2.322,8.861c4.757,4.313,10.635,8.631,10.635,8.631
		s14.505-14.879,14.457-26.742c-0.048-11.865-5.655-14.248-5.655-14.248L-146.917,639.038z"/>
	<path display="inline" fill="#2B5DA5" d="M-302.614,800.431c0,0,3.199,14.721,19.039,30.773l-3.471-16.656L-302.614,800.431z"/>
	<path display="inline" fill="#FFC217" d="M-24.009,664.261l21.168,27.525l60.502-66.719c0,0,3.221-8.563-3.056-15.605
		c-6.278-7.043-9.702-10.148-9.702-10.148s-3.263-3.297-8.701,1.396C30.764,605.405-24.009,664.261-24.009,664.261z"/>
	<path display="inline" fill="#FFE340" d="M-85.259,766.325c0,0-23.133,1.426-23.318,1.258c-0.185-0.168,87.797-95.33,87.797-95.33
		l9.141,15.494c0,0-6.68-3.807-14.312,3.121c-7.632,6.926-55.968,62.836-58.623,66.508
		C-87.229,761.048-85.259,766.325-85.259,766.325z"/>
	<path display="inline" fill="#FFE340" d="M-7.82,678.321l-11.286-15.301l55.051-58.66c0,0,5.614-4.701,8.664-2.105
		c3.05,2.596,8.3,8.539,9.759,11.213c0,0-8.001-6.074-34.943,22.52C-7.518,664.579-7.82,678.321-7.82,678.321z"/>
	<path display="inline" fill="#E5285D" d="M-272.684,799.228c0,0,17.127,46.193,69.408,82.271l19.23-21.221
		c0,0-41.083-23.592-70.23-81.35L-272.684,799.228z"/>
	<path display="inline" fill="#E5285D" d="M-241.174,764.481c0,0,17.127,46.191,69.408,82.27l19.23-21.221
		c0,0-41.083-23.59-70.23-81.35L-241.174,764.481z"/>
	<path display="inline" fill="#FF7381" d="M-258.022,826.188l19.238-21.215c0,0-9.519-14.408-15.491-26.045l-18.574,20.482
		C-272.85,799.411-265.624,815.741-258.022,826.188z"/>
	<path display="inline" fill="#FF7381" d="M-226.512,791.44l19.237-21.215c0,0-9.519-14.408-15.491-26.045l-18.574,20.482
		C-241.34,764.663-234.113,780.993-226.512,791.44z"/>
	<path display="inline" fill="#B5064D" d="M-229.961,859.634l18.906-20.85c0,0,16.838,15.936,27.075,21.553l-19.234,21.217
		C-203.214,881.554-219.468,870.536-229.961,859.634z"/>
	<path display="inline" fill="#B5064D" d="M-198.451,824.886l18.906-20.85c0,0,16.838,15.936,27.075,21.553l-19.234,21.217
		C-171.705,846.806-187.958,835.79-198.451,824.886z"/>
	<path display="inline" fill="#DD9300" d="M-21.332,667.702l18.671,24.248l-72.05,79.344l-40.906,0.383
		c0,0,35.292-2.543,36.729-4.129c1.437-1.584,68.438-77.035,68.259-78.309s-13.085-19.646-13.085-19.646L-21.332,667.702z"/>
	<path display="inline" fill="#DD9300" d="M44.98,599.319l10.35,10.986c0,0,7.747,5.752,2.332,14.762l-60.438,66.648l-5.004-6.381
		c0,0,7.04-4.658,31.5-28.691c24.459-24.033,31.114-39.994,30.369-44.225C53.342,608.188,44.98,599.319,44.98,599.319z"/>
	<path display="inline" fill="#FFE340" d="M-174.888,852.474c-0.924,0.951,17.188-0.635,24.325,8.061
		c7.138,8.695,11.384,21.654,4.045,40.771c-7.338,19.119-8.57,34.443-1.201,49.348c7.37,14.904,24.272,29.342,34.367,18.943
		c10.095-10.396-25.852-91.43-36.149-113.209S-161.465,838.651-174.888,852.474z"/>
	<path display="inline" fill="#B77013" d="M-215.634,895.2l28.675-31.623c0,0,20.212-10.197,30.521-0.139
		c10.309,10.059,4.001,25.502,4.001,25.502s4.001-14.369-7.335-22.816s-25.14,5.121-25.14,5.121s10.774-5.816,19.332,4.775
		c8.558,10.594,5.573,17.809,5.573,17.809s-1.376-10.068-9.695-15.164C-178.022,873.571-215.634,895.2-215.634,895.2z"/>
	<path display="inline" fill="#B77013" d="M-140.4,861.38c0,0-8.55-23.361-11.363-36.613l22.228-24.527
		c0,0-2.767,25.277,3.745,45.029s20.262,52.549,24.386,63.621s6.324,16.314,6.324,16.314s-22.612-40.25-31.672-61.131
		c-9.06-20.879-12.463-21.799-13.542-20.111C-141.373,845.649-143.49,849.431-140.4,861.38z"/>
</g>
<g display="none">
	<g display="inline">
		<g>
			<path fill="#960024" d="M309.301,912.978c0,0-10.73-14.777,12.134-33.045l-37.276-10.59c0,0-0.076,12.547,0.372,12.943
				S309.301,912.978,309.301,912.978z"/>
		</g>
	</g>
	<g display="inline">
		<g>
			<path fill="#CF2B40" d="M284.747,860.907c0,0,15.226,17.465,43.868,7.654c0,0,0.967,8.842,0.57,9.289
				c-0.396,0.449-24.465,8.697-42.213-4.195C286.973,873.655,280.262,866.521,284.747,860.907z"/>
		</g>
	</g>
	<g display="inline">
		<g>
			<path fill="#F4CC21" d="M37.924,815.7c0,0,41.642-46.051,92.31-2.053c50.668,43.998,6.168,89.146,6.168,89.146
				s-39.371,49.686-89.232,4.775C-2.692,862.657,37.924,815.7,37.924,815.7z"/>
		</g>
	</g>
	<g display="inline">
		<g>
			<path fill="#FFE45F" d="M37.924,815.7c0,0,41.15-45.484,91.409-2.809l0.062,0.074c0,0-31.153-28.441-74.109,18.324
				c-30.953,33.695-20.191,61.139-10.429,74.107C-1.369,861.157,37.924,815.7,37.924,815.7z"/>
		</g>
	</g>
	<g display="inline">
		<g>
			<path fill="#E2A700" d="M123.483,890.993c38.981-42.451,12.057-72.213,6.261-77.76c0.164,0.141,0.326,0.271,0.49,0.414
				c50.668,43.998,6.168,89.146,6.168,89.146s-39.371,49.686-89.232,4.775c-0.225-0.203-0.435-0.406-0.656-0.609
				C52.13,911.478,84.18,933.796,123.483,890.993z"/>
		</g>
	</g>
	<g display="inline">
		<g>
			<path fill="#CF2B40" d="M518.788,465.694c0,0,11.201-10.859,19.939-13.515c0,0,3.774-0.655,10.048,4.894
				c6.274,5.549,6.085,9.375,6.085,9.375c-1.567,8.996-10.976,21.441-10.976,21.441l-36.067,40.781l-12.549-11.098l-12.548-11.098
				L518.788,465.694z"/>
		</g>
	</g>
	<g display="inline">
		<g>
			<path fill="#960024" d="M554.86,466.448c-1.567,8.996-10.976,21.441-10.976,21.441l-36.067,40.781l-4.93-4.359
				c6.083-6.879,33.558-37.943,35.671-40.334c2.378-2.689,16.595-19.666,10.217-26.904
				C555.05,462.622,554.86,466.448,554.86,466.448z"/>
		</g>
	</g>
	<g display="inline">
		<g>
			<path fill="#DB726B" d="M518.788,465.694c0,0,11.201-10.859,19.939-13.515c0,0,3.331-0.577,8.936,3.952
				c-1.146-0.186-2.613-0.244-4.454,0.012c-5.464,0.758-18.198,14.255-18.198,14.255l-36.464,41.229l-5.826-5.152L518.788,465.694z"
				/>
		</g>
	</g>
	<g display="inline">
		<g>
			
				<rect x="132.801" y="758.75" transform="matrix(-0.6625 0.7491 -0.7491 -0.6625 847.7709 1191.1602)" fill="#8CC34B" width="45.468" height="55.64"/>
		</g>
	</g>
	<g display="inline">
		<g>
			
				<rect x="117.563" y="765.617" transform="matrix(-0.6625 0.7491 -0.7491 -0.6625 812.3569 1180.1516)" fill="#AED582" width="45.469" height="14.956"/>
		</g>
	</g>
	<g display="inline">
		<g>
			
				<rect x="148.038" y="792.567" transform="matrix(-0.6625 0.7491 -0.7491 -0.6625 883.1965 1202.1495)" fill="#5D9E08" width="45.468" height="14.958"/>
		</g>
	</g>
	<g display="inline">
		<g>
			
				<rect x="123.838" y="777.891" transform="matrix(-0.6625 0.7491 -0.7491 -0.6625 829.6442 1247.7667)" fill="#8CC34B" width="19.743" height="65.809"/>
		</g>
	</g>
	<g display="inline">
		<g>
			
				<rect x="105.912" y="785.968" transform="matrix(-0.6625 0.7491 -0.7491 -0.6625 787.967 1234.8387)" fill="#AED582" width="19.743" height="17.948"/>
		</g>
	</g>
	<g display="inline">
		<g>
			
				<rect x="141.764" y="817.677" transform="matrix(-0.6625 0.7491 -0.7491 -0.6625 871.3221 1260.6963)" fill="#5D9E08" width="19.743" height="17.947"/>
		</g>
	</g>
	<g display="inline">
		<g>
			
				<rect x="167.04" y="729.043" transform="matrix(-0.6625 0.7491 -0.7491 -0.6625 864.8678 1134.2098)" fill="#8CC34B" width="19.743" height="65.81"/>
		</g>
	</g>
	<g display="inline">
		<g>
			<path fill="#8CC34B" d="M141.112,810.554c0,0,44.403,53.646,3.287,101.943l52.766-58.76L141.112,810.554z"/>
		</g>
	</g>
	<g display="inline">
		<g>
			
				<rect x="150.277" y="876.693" transform="matrix(-0.6625 0.7491 -0.7491 -0.6625 983.0289 1355.3232)" fill="#0EADC7" width="71.794" height="44.87"/>
		</g>
	</g>
	<g display="inline">
		<g>
			<path fill="#CF2B40" d="M169.559,742.267l7.53-8.514c0,0-16.892-19.732-0.505-42.777c0,0,131.932-150.078,147.045-166.264
				s51.302-48.074,80.569-26.982c29.267,21.092,0.955,63.941-16.725,86.641c-17.681,22.701-135.688,157.939-148.63,168.057
				c-12.942,10.119-28.85,6.432-35.969,0.936l-9.564,9.91L169.559,742.267z"/>
		</g>
	</g>
	<g display="inline">
		<g>
			
				<rect x="367.793" y="561.074" transform="matrix(-0.6625 0.7491 -0.7491 -0.6625 1168.9343 627.1656)" fill="#F4CC21" width="150.765" height="31.708"/>
		</g>
	</g>
	<g display="inline">
		<g>
			
				<rect x="485.943" y="502.361" transform="matrix(-0.6625 0.7491 -0.7491 -0.6625 1208.6901 499.0004)" fill="#F4CC21" width="11.965" height="38.887"/>
		</g>
	</g>
	<g display="inline">
		<g>
			
				<rect x="378.242" y="584.264" transform="matrix(0.6625 -0.7491 0.7491 0.6625 -288.5032 535.4037)" fill="#E2A700" width="143.287" height="7.179"/>
		</g>
	</g>
	<g display="inline">
		<g>
			
				<rect x="359.868" y="568.014" transform="matrix(-0.6625 0.7491 -0.7491 -0.6625 1145.5542 627.0481)" fill="#FFE45F" width="143.286" height="7.179"/>
		</g>
	</g>
	<g display="inline">
		<g>
			
				<rect x="476.083" y="506.804" transform="matrix(-0.6624 0.7491 -0.7491 -0.6624 1185.7665 491.8522)" fill="#FFE45F" width="11.966" height="12.563"/>
		</g>
	</g>
	<g display="inline">
		<g>
			
				<rect x="495.803" y="524.243" transform="matrix(-0.6625 0.7491 -0.7491 -0.6625 1231.6129 506.1114)" fill="#E2A700" width="11.965" height="12.563"/>
		</g>
	</g>
	<g display="inline">
		<g>
			
				<rect x="522.381" y="460.71" transform="matrix(-0.6624 0.7491 -0.7491 -0.6624 1238.063 402.4217)" fill="#CF2B40" width="11.966" height="38.886"/>
		</g>
	</g>
	<g display="inline">
		<g>
			
				<rect x="512.522" y="465.151" transform="matrix(-0.6625 0.7491 -0.7491 -0.6625 1215.1451 395.3488)" fill="#DB726B" width="11.965" height="12.564"/>
		</g>
	</g>
	<g display="inline">
		<g>
			
				<rect x="532.24" y="482.591" transform="matrix(-0.6624 0.7491 -0.7491 -0.6624 1260.9856 409.532)" fill="#960024" width="11.966" height="12.562"/>
		</g>
	</g>
	<g display="inline">
		<g>
			<path fill="#CF2B40" d="M549.62,514.192c0,0,8.507-8.09,15.414-9.787c0,0,3.007-0.344,8.315,4.352
				c5.31,4.695,5.336,7.722,5.336,7.722c-0.84,7.063-7.83,16.495-7.83,16.495l-27.117,30.662l-10.617-9.391l-10.618-9.391
				L549.62,514.192z"/>
		</g>
	</g>
	<g display="inline">
		<g>
			<path fill="#960024" d="M578.686,516.479c-0.84,7.063-7.83,16.495-7.83,16.495l-27.117,30.662l-4.171-3.689
				c4.573-5.172,25.23-28.528,26.819-30.325c1.788-2.022,12.435-14.824,6.963-20.864
				C578.659,513.452,578.686,516.479,578.686,516.479z"/>
		</g>
	</g>
	<g display="inline">
		<g>
			<path fill="#DB726B" d="M549.62,514.192c0,0,8.507-8.09,15.414-9.787c0,0,2.653-0.303,7.376,3.553
				c-0.932-0.201-2.114-0.316-3.584-0.199c-4.361,0.347-13.979,10.457-13.979,10.457l-27.415,30.998l-4.93-4.359L549.62,514.192z"/>
		</g>
	</g>
	<g display="inline">
		<g>
			
				<rect x="553.505" y="509.657" transform="matrix(-0.6625 0.7491 -0.7491 -0.6625 1321.7666 456.6464)" fill="#CF2B40" width="8.997" height="32.905"/>
		</g>
	</g>
	<g display="inline">
		<g>
			
				<rect x="545.163" y="513.416" transform="matrix(-0.6625 0.749 -0.749 -0.6625 1302.3748 450.6836)" fill="#DB726B" width="8.996" height="10.631"/>
		</g>
	</g>
	<g display="inline">
		<g>
			
				<rect x="561.847" y="528.172" transform="matrix(-0.6625 0.7491 -0.7491 -0.6625 1341.1621 462.6629)" fill="#960024" width="8.997" height="10.631"/>
		</g>
	</g>
	<g display="inline">
		<g>
			
				<rect x="405.671" y="598.167" transform="matrix(-0.6625 0.7491 -0.7491 -0.6625 1259.6908 660.4559)" fill="#F4CC21" width="150.764" height="31.709"/>
		</g>
	</g>
	<g display="inline">
		<g>
			
				<rect x="523.821" y="539.454" transform="matrix(-0.6625 0.7491 -0.7491 -0.6625 1299.4473 532.2938)" fill="#F4CC21" width="11.965" height="38.888"/>
		</g>
	</g>
	<g display="inline">
		<g>
			
				<rect x="416.069" y="621.245" transform="matrix(0.6625 -0.7491 0.7491 0.6625 -303.3878 576.3383)" fill="#E2A700" width="143.586" height="7.179"/>
		</g>
	</g>
	<g display="inline">
		<g>
			
				<rect x="397.695" y="604.995" transform="matrix(-0.6625 0.7491 -0.7491 -0.6625 1236.3923 660.0798)" fill="#FFE45F" width="143.586" height="7.179"/>
		</g>
	</g>
	<g display="inline">
		<g>
			
				<rect x="513.962" y="543.896" transform="matrix(-0.6625 0.7491 -0.7491 -0.6625 1276.5244 525.1829)" fill="#FFE45F" width="11.965" height="12.564"/>
		</g>
	</g>
	<g display="inline">
		<g>
			
				<rect x="533.68" y="561.337" transform="matrix(-0.6625 0.7491 -0.7491 -0.6625 1322.3704 539.4056)" fill="#E2A700" width="11.965" height="12.563"/>
		</g>
	</g>
	<g display="inline">
		<g>
			<path fill="#DB726B" d="M185.104,740.042c0,0-13.944-8.48-15.368-23.646c-1.424-15.164,8.23-26.992,8.23-26.992l145.662-164.691
				c0,0,27.598-30.342,52.73-33.453c25.132-3.111,35.943,14.835,35.943,14.835s-30.787-18.841-72.61,24.837
				S194.078,692.87,182.687,707.554C171.297,722.239,185.104,740.042,185.104,740.042z"/>
		</g>
	</g>
	<g display="inline">
		<g>
			<path fill="#960024" d="M185.104,740.042c0,0,14.142,12.672,22.721,16.184c8.58,3.512,20.459,3.75,30.004-3.041
				c9.544-6.791,127.523-139.092,148.957-167.939c21.435-28.85,39.502-59.561,24.415-80.707c0,0,14.06,11.82-40.584,74.51
				c-54.645,62.689-127.97,149.4-148.544,162.541C200.048,755.655,185.104,740.042,185.104,740.042z"/>
		</g>
	</g>
	<g display="inline">
		<g>
			<path fill="#0EADC7" d="M323.561,675.603l68.275-75.393c0,0,3.566-4.035,7.6-0.467l38.317,33.887l14.564,12.881l12.997,11.494
				c0,0,4.137,5.258-0.964,11.928s-7.083,8.91-9.116,10.307s-8.152-1.619-11.271,2.811c-3.118,4.43,4.552,12.012-0.256,16.547
				c-4.809,4.533-12.03-2.654-15.994,1.828c-3.963,4.48,5.344,11.115-0.257,16.545s-11.686-3.945-16.045,0.984
				c-4.36,4.93,1.673,13.461,1.725,14.305c0.053,0.844-11.441,13.842-11.441,13.842s-2.826,2.291-6.412-0.879l-17.478-15.457
				l-10.681-9.447l-42.649-37.719C324.475,683.599,320.39,679.187,323.561,675.603z"/>
		</g>
	</g>
	<path display="inline" fill="#8BE7EA" d="M351.514,707.511l-27.039-23.912c0,0-4.217-4.262,0.01-9.043l67.352-74.346
		c0,0,3.417-4.166,8.197,0.061l28.233,24.971l37.048,32.764c0,0-64.102-43.113-67.376-41.217s-60.003,65.137-60.745,66.879
		C336.453,685.407,333.236,690.55,351.514,707.511z"/>
	<g display="inline">
		<g>
			<path fill="#057E96" d="M378.552,731.425l16.73,14.797c0,0,3.586,3.17,6.412,0.879c0,0,10.701-12.102,11.441-13.842
				c0,0-5.887-9.6-2.021-13.969c3.864-4.369,12.034,4.453,16.342-1.32c4.309-5.773-2.914-12.961,0.257-16.545
				c3.171-3.586,12.274,2.441,16.314-2.158c4.039-4.6-3.631-12.184-0.064-16.217c3.567-4.033,9.21-0.549,12.446-3.723
				c3.237-3.172,7.642-8.488,9.325-11.578c1.684-3.092,1.2-7.512-0.757-10.041l-14.253-9.395c0,0,10.504,5.281,7.593,13.088
				c-2.912,7.809-15.787,5.207-23.369,12.877c-7.582,7.672-0.619,10.635-4.582,15.115c-3.964,4.482-8.945-0.723-13.649,5.5
				c-4.705,6.223,0.414,6.756-4.342,12.135c-4.757,5.377-9.29,0.568-12.856,4.602c-3.567,4.035-0.034,6.361-2.998,13.324
				C393.558,731.917,385.124,737.237,378.552,731.425z"/>
		</g>
	</g>
	<g display="inline">
		<g>
			<path fill="#057E96" d="M361.205,708.896l0.009-0.012c-4.323-4.197-1.768-7.934-1.768-7.934l28.934-32.715l1.585-1.793
				l28.934-32.715c0,0,3.396-2.994,8.091,0.785l0.01-0.01c0.076,0.066,0.146,0.135,0.219,0.203c0.076,0.064,0.152,0.125,0.229,0.191
				l-0.009,0.012c4.323,4.197,1.768,7.934,1.768,7.934l-28.933,32.715l-1.586,1.793l-28.933,32.715c0,0-3.397,2.994-8.092-0.785
				l-0.009,0.012c-0.077-0.068-0.146-0.137-0.22-0.203C361.357,709.024,361.282,708.964,361.205,708.896z"/>
		</g>
	</g>
	<g display="inline">
		<g>
			<path fill="#006677" d="M426.999,634.503c0,0-4.482-3.965-8.101-0.775l-59.452,67.223c0,0-2.723,3.98,2.207,8.342
				c0,0-2.293-2.826,0.481-5.965l60.245-68.117C422.38,635.21,424.81,633.364,426.999,634.503z"/>
		</g>
	</g>
	<g display="inline">
		<g>
			<path fill="#8CC34B" d="M325.297,684.325l-5.304-4.689c0,0-2.688-2.379-6.308,0.811l-19.421,21.959c0,0-3.171,3.586-2.204,12.426
				l-74.221,82.115l-39.342,42.68l7.17,6.34l-2.378,2.689l10.755,9.512l31.819,28.141l58.009-28.564c0,0-0.604-2.93,6.135-10.549
				c6.737-7.617,18.231-20.613,18.231-20.613s4.756-5.379,10.134-0.623l66.586-75.289c0,0,7.747-6.727,1.192-12.523L325.297,684.325
				z"/>
		</g>
	</g>
	<g display="inline">
		<g>
			<path fill="#0EADC7" d="M458.094,809.759c0,0-30.539,6.535-55.203-1.699c-24.664-8.236-44.288-27.588-44.288-27.588
				l-40.229,45.486c0,0,22.271,24.488,57.431,38.014c35.161,13.525,69.285,10.16,69.285,10.16s5.963,0.482,8.082-6.43l9.456-53.135
				C462.627,814.567,462.368,810.345,458.094,809.759z"/>
		</g>
	</g>
	<g display="inline">
		<g>
			<polygon fill="#8CC34B" points="228.525,798.411 165.789,784.458 141.112,810.554 185.668,845.966 			"/>
		</g>
	</g>
	<g display="inline">
		<g>
			<g>
				<path fill="#006677" d="M447.081,827.671c0.744-0.84,1.12-1.994,0.93-3.189c-0.338-2.121-2.331-3.566-4.452-3.229
					c-44.493,7.086-84.422-30.434-84.82-30.813c-1.554-1.482-4.016-1.426-5.498,0.129c-1.484,1.561-1.424,4.016,0.13,5.498
					c0.436,0.416,10.856,10.281,27.276,19.314c21.915,12.059,44.093,16.744,64.136,13.553
					C445.708,828.786,446.505,828.323,447.081,827.671z"/>
			</g>
		</g>
	</g>
	<g display="inline">
		<g>
			<g>
				<path fill="#006677" d="M448.509,844.108c0.76-0.859,1.134-2.043,0.917-3.26c-0.376-2.115-2.396-3.523-4.51-3.146
					c-26.776,4.768-51.716-4.645-67.923-13.381c-17.785-9.588-29.286-20.496-29.399-20.605c-1.552-1.484-4.014-1.432-5.498,0.119
					c-1.48,1.57-1.433,4.012,0.117,5.496c0.491,0.471,12.237,11.641,30.893,21.73c24.868,13.449,50.171,18.393,73.174,14.297
					C447.178,845.198,447.948,844.743,448.509,844.108z"/>
			</g>
		</g>
	</g>
	<g display="inline">
		<g>
			<g>
				<path fill="#006677" d="M446.289,862.56c0.746-0.844,1.122-2.002,0.928-3.201c-0.345-2.119-2.343-3.559-4.462-3.215
					c-55.862,9.072-105.751-37.836-106.248-38.311c-1.554-1.484-4.015-1.428-5.497,0.127c-1.498,1.574-1.427,4.014,0.126,5.498
					c0.537,0.512,13.387,12.686,33.687,23.822c27.05,14.84,54.43,20.561,79.179,16.541
					C444.923,863.671,445.716,863.21,446.289,862.56z"/>
			</g>
		</g>
	</g>
	<g display="inline">
		<g>
			<path fill="#AED582" d="M350.02,706.19c-0.448-0.396-30.026-26.555-30.026-26.555s-2.938-3-7.397,2.043
				c0,0-18.529,20.951-18.629,21.063c-0.099,0.111-3.614,4.99-1.906,12.09l-73.534,81.355l-52.737-11.729l-24.677,26.096
				l13.01,10.34c0,0-7.261-6.453-6.572-9.039s17.835-20.166,19.473-21.115c1.637-0.947,55.855,14.059,55.855,14.059l79.128-86.762
				c0,0-2.845-4.912,4.237-13.822c7.083-8.912,14.27-16.133,14.27-16.133s1.137-2.189,7.756,2.066
				C334.886,694.403,350.02,706.19,350.02,706.19z"/>
		</g>
	</g>
	<g display="inline">
		<g>
			<path fill="#387700" d="M166.191,826.745l0.004-0.004c-1.458-1.445-0.363-2.971-0.363-2.971l12.026-13.598l0.659-0.746
				l12.027-13.598c0,0,1.38-1.271,2.992-0.002l0.004-0.004c0.026,0.021,0.05,0.045,0.074,0.068c0.026,0.021,0.052,0.043,0.078,0.066
				l-0.003,0.004c1.458,1.443,0.364,2.969,0.364,2.969l-12.027,13.6l-0.659,0.744l-12.027,13.6c0,0-1.38,1.271-2.992,0.002
				l-0.004,0.004c-0.026-0.023-0.049-0.047-0.074-0.07C166.244,826.788,166.218,826.769,166.191,826.745z"/>
		</g>
	</g>
	<g display="inline">
		<g>
			<path fill="#387700" d="M158.177,820.456l0.003-0.004c-1.466-1.436-0.516-2.799-0.516-2.799l10.632-12.021l0.583-0.658
				l10.632-12.021c0,0,1.237-1.111,2.84,0.17l0.003-0.004c0.026,0.023,0.05,0.047,0.075,0.068c0.026,0.023,0.052,0.043,0.078,0.066
				l-0.003,0.004c1.467,1.434,0.516,2.797,0.516,2.797l-10.632,12.021l-0.583,0.66l-10.632,12.021c0,0-1.237,1.109-2.84-0.17
				l-0.003,0.004c-0.026-0.023-0.049-0.047-0.074-0.07C158.229,820.499,158.203,820.478,158.177,820.456z"/>
		</g>
	</g>
	<g display="inline">
		<g>
			<path fill="#387700" d="M150.955,813.269l0.003-0.002c-1.477-1.424-0.688-2.604-0.688-2.604l9.063-10.248l0.497-0.563
				l9.063-10.248c0,0,1.075-0.928,2.668,0.363l0.003-0.002c0.026,0.023,0.05,0.045,0.075,0.068c0.025,0.021,0.051,0.043,0.078,0.066
				l-0.003,0.002c1.477,1.424,0.688,2.605,0.688,2.605l-9.063,10.248l-0.497,0.561l-9.063,10.248c0,0-1.076,0.928-2.668-0.363
				l-0.003,0.002c-0.026-0.021-0.05-0.045-0.075-0.068C151.006,813.313,150.981,813.292,150.955,813.269z"/>
		</g>
	</g>
	<g display="inline">
		<g>
			<path fill="#387700" d="M176.396,834.173l0.004-0.006c-1.444-1.459-0.135-3.229-0.135-3.229l14.118-15.963l0.773-0.875
				l14.118-15.963c0,0,1.596-1.516,3.221-0.262l0.004-0.004c0.026,0.023,0.049,0.047,0.074,0.07
				c0.026,0.021,0.052,0.041,0.079,0.064l-0.005,0.004c1.444,1.461,0.135,3.229,0.135,3.229l-14.118,15.965l-0.774,0.873
				l-14.118,15.965c0,0-1.595,1.516-3.22,0.26l-0.005,0.006c-0.026-0.023-0.049-0.047-0.074-0.07
				C176.448,834.216,176.422,834.194,176.396,834.173z"/>
		</g>
	</g>
	<g display="inline">
		<g>
			<path fill="#5D9E08" d="M374.22,727.593l11.577,10.24c0,0,6.297,4.77-0.838,12.836l-66.982,75.738c0,0-4.436-5.023-9.264-0.291
				c-0.474,0.465-17.641,20.143-20.75,23.523c-3.108,3.381-4.09,8.104-4.09,8.104l-58.009,28.564c0,0,26.591-15.617,49.287-39.473
				c22.695-23.855,97.208-108.107,100.379-111.693S374.22,727.593,374.22,727.593z"/>
		</g>
	</g>
	<g display="inline">
		<g>
			<path fill="#8CC34B" d="M221.108,891.687c0,0,11.116-5.344,18.286,0.998c7.17,6.34,10.429,18.008,20.998,52.115
				c10.569,34.105,11.776,39.965,12.776,42.447c1,2.48,5.877,5.996,12.375,1.359s32.33-25.717,32.33-25.717
				s13.148-6.742,4.701-26.99c-8.447-20.25-32.132-53.977-36.235-65.592c-4.103-11.615,2.17-21.268,2.17-21.268
				s-13.169-6.031-37.123,11.121C227.432,877.312,221.108,891.687,221.108,891.687z"/>
		</g>
	</g>
	<g display="inline">
		<g>
			<path fill="#5D9E08" d="M287.963,849.64c0,0-4.277,9.277-1.519,19.705c2.758,10.426,19.992,35.611,31.603,57.01
				c11.611,21.4,8.7,29.209-0.175,36.535c-8.876,7.324-33.815,26.65-33.815,26.65s-7.494,4.703-10.89-2.293c0,0,0.259,4.223,9.926-4
				c9.668-8.223,32.985-21.943,23.985-44.279c-8.998-22.334-33.08-55.611-36.098-70.262c-3.018-14.648,2.009-19.43,2.009-19.43
				S282.575,845.933,287.963,849.64z"/>
		</g>
	</g>
	<g display="inline">
		<g>
			<path fill="#387700" d="M254.412,910.358l0.003-0.004c-1.07-1.082-0.1-2.393-0.1-2.393l10.458-11.824l0.573-0.648l10.458-11.824
				c0,0,1.182-1.123,2.385-0.193l0.003-0.002c0.02,0.016,0.037,0.033,0.055,0.051c0.02,0.016,0.039,0.031,0.058,0.049l-0.003,0.004
				c1.069,1.08,0.1,2.391,0.1,2.391l-10.458,11.824l-0.573,0.648l-10.458,11.824c0,0-1.182,1.123-2.386,0.193l-0.003,0.004
				c-0.019-0.018-0.037-0.035-0.055-0.053C254.45,910.39,254.431,910.376,254.412,910.358z"/>
		</g>
	</g>
	<g display="inline">
		<g>
			<path fill="#387700" d="M257.756,916.511l0.003-0.004c-1.07-1.082-0.1-2.391-0.1-2.391l10.458-11.826l0.573-0.646l10.458-11.826
				c0,0,1.182-1.121,2.386-0.193l0.003-0.002c0.02,0.016,0.037,0.033,0.055,0.051c0.02,0.016,0.039,0.031,0.058,0.049l-0.003,0.004
				c1.069,1.08,0.1,2.391,0.1,2.391l-10.458,11.824l-0.573,0.648l-10.458,11.824c0,0-1.182,1.123-2.386,0.193l-0.003,0.004
				c-0.02-0.018-0.037-0.035-0.055-0.053C257.794,916.542,257.775,916.528,257.756,916.511z"/>
		</g>
	</g>
	<g display="inline">
		<g>
			<path fill="#387700" d="M259.859,923.163l0.003-0.004c-1.069-1.082-0.1-2.393-0.1-2.393l10.458-11.824l0.573-0.648l10.458-11.824
				c0,0,1.182-1.121,2.386-0.193l0.003-0.002c0.02,0.016,0.037,0.033,0.055,0.051c0.02,0.016,0.039,0.031,0.058,0.049l-0.003,0.004
				c1.069,1.08,0.1,2.391,0.1,2.391l-10.458,11.824l-0.573,0.648l-10.458,11.824c0,0-1.182,1.123-2.386,0.193l-0.003,0.004
				c-0.019-0.018-0.037-0.035-0.055-0.053C259.898,923.194,259.879,923.181,259.859,923.163z"/>
		</g>
	</g>
	<g display="inline">
		<g>
			<path fill="#387700" d="M263.204,929.315l0.003-0.004c-1.07-1.082-0.1-2.391-0.1-2.391l10.458-11.826l0.573-0.646l10.458-11.826
				c0,0,1.182-1.121,2.386-0.191l0.003-0.004c0.02,0.016,0.037,0.033,0.055,0.051c0.02,0.016,0.039,0.031,0.058,0.049l-0.003,0.004
				c1.069,1.08,0.1,2.391,0.1,2.391l-10.458,11.824l-0.573,0.648l-10.458,11.824c0,0-1.182,1.123-2.386,0.193l-0.003,0.004
				c-0.019-0.018-0.037-0.035-0.055-0.053C263.242,929.347,263.223,929.333,263.204,929.315z"/>
		</g>
	</g>
	<g display="inline">
		<g>
			<path fill="#387700" d="M265.307,935.968l0.003-0.004c-1.07-1.082-0.101-2.391-0.101-2.391l10.458-11.826l0.573-0.646
				l10.458-11.826c0,0,1.182-1.121,2.385-0.191l0.004-0.004c0.02,0.016,0.037,0.033,0.055,0.051c0.02,0.016,0.039,0.031,0.059,0.049
				l-0.004,0.004c1.07,1.08,0.1,2.391,0.1,2.391l-10.457,11.824l-0.573,0.648l-10.458,11.824c0,0-1.182,1.123-2.386,0.193
				l-0.003,0.004c-0.02-0.018-0.037-0.035-0.055-0.053C265.346,935.999,265.326,935.985,265.307,935.968z"/>
		</g>
	</g>
	<g display="inline">
		<g>
			<path fill="#387700" d="M268.651,942.12l0.003-0.004c-1.069-1.082-0.1-2.391-0.1-2.391l10.458-11.826l0.573-0.646l10.458-11.826
				c0,0,1.182-1.121,2.386-0.191l0.003-0.004c0.02,0.016,0.037,0.033,0.055,0.051c0.02,0.016,0.039,0.031,0.059,0.049l-0.003,0.004
				c1.069,1.08,0.1,2.391,0.1,2.391l-10.458,11.824l-0.573,0.648l-10.458,11.824c0,0-1.182,1.123-2.386,0.193l-0.003,0.004
				c-0.019-0.018-0.037-0.035-0.055-0.053C268.69,942.151,268.67,942.138,268.651,942.12z"/>
		</g>
	</g>
	<g display="inline">
		<g>
			<path fill="#387700" d="M270.755,948.772l0.003-0.004c-1.07-1.082-0.1-2.391-0.1-2.391l10.458-11.826l0.573-0.646l10.458-11.826
				c0,0,1.182-1.121,2.386-0.191l0.003-0.004c0.02,0.016,0.037,0.033,0.055,0.051c0.02,0.016,0.039,0.031,0.059,0.049l-0.004,0.004
				c1.07,1.08,0.101,2.391,0.101,2.391l-10.458,11.824l-0.573,0.648l-10.458,11.824c0,0-1.182,1.123-2.386,0.193l-0.003,0.004
				c-0.02-0.018-0.037-0.035-0.055-0.053C270.793,948.804,270.774,948.79,270.755,948.772z"/>
		</g>
	</g>
	<g display="inline">
		<g>
			<path fill="#387700" d="M274.099,954.925l0.003-0.004c-1.069-1.082-0.1-2.391-0.1-2.391l10.458-11.826l0.573-0.646l10.457-11.826
				c0,0,1.182-1.121,2.387-0.191l0.003-0.004c0.019,0.016,0.036,0.033,0.055,0.051c0.02,0.016,0.039,0.031,0.058,0.049l-0.003,0.004
				c1.069,1.08,0.101,2.391,0.101,2.391l-10.458,11.824l-0.573,0.648l-10.458,11.824c0,0-1.182,1.123-2.386,0.193l-0.003,0.004
				c-0.02-0.018-0.037-0.035-0.055-0.051C274.138,954.956,274.118,954.942,274.099,954.925z"/>
		</g>
	</g>
	<g display="inline">
		<g>
			<path fill="#387700" d="M276.202,961.577l0.003-0.004c-1.07-1.082-0.1-2.391-0.1-2.391l10.458-11.826l0.573-0.646l10.458-11.826
				c0,0,1.182-1.121,2.387-0.191l0.003-0.004c0.019,0.018,0.036,0.033,0.055,0.051c0.02,0.016,0.038,0.031,0.058,0.049l-0.003,0.004
				c1.069,1.08,0.101,2.391,0.101,2.391l-10.459,11.824l-0.572,0.648l-10.458,11.824c0,0-1.182,1.123-2.385,0.193l-0.003,0.004
				c-0.02-0.018-0.037-0.035-0.055-0.051C276.241,961.608,276.222,961.595,276.202,961.577z"/>
		</g>
	</g>
	<g display="inline">
		<g>
			<path fill="#387700" d="M278.306,968.229l0.003-0.004c-1.07-1.082-0.1-2.391-0.1-2.391l10.458-11.826l0.573-0.646l10.457-11.826
				c0,0,1.182-1.121,2.387-0.191l0.002-0.004c0.02,0.016,0.037,0.033,0.056,0.051c0.02,0.018,0.038,0.031,0.058,0.049l-0.003,0.004
				c1.069,1.08,0.101,2.391,0.101,2.391l-10.459,11.824l-0.572,0.648l-10.458,11.824c0,0-1.182,1.123-2.386,0.193l-0.003,0.004
				c-0.02-0.018-0.037-0.035-0.055-0.051C278.345,968.261,278.325,968.247,278.306,968.229z"/>
		</g>
	</g>
	<g display="inline">
		<g>
			<path fill="#387700" d="M281.65,974.382l0.003-0.004c-1.07-1.082-0.1-2.391-0.1-2.391l10.458-11.826l0.572-0.646l10.458-11.826
				c0,0,1.182-1.121,2.386-0.191l0.003-0.004c0.02,0.018,0.036,0.033,0.056,0.051c0.019,0.016,0.038,0.031,0.058,0.049l-0.003,0.004
				c1.069,1.08,0.1,2.391,0.1,2.391l-10.458,11.824l-0.573,0.648l-10.458,11.824c0,0-1.182,1.123-2.385,0.193l-0.003,0.004
				c-0.02-0.018-0.037-0.035-0.055-0.051C281.689,974.413,281.669,974.399,281.65,974.382z"/>
		</g>
	</g>
	<g display="inline">
		<g>
			
				<rect x="137.995" y="903.2" transform="matrix(-0.6625 0.7491 -0.7491 -0.6625 959.5826 1430.8827)" fill="#0EADC7" width="38.887" height="56.835"/>
		</g>
	</g>
	<g display="inline">
		<g>
			
				<rect x="149.114" y="737.121" transform="matrix(-0.6625 0.7491 -0.7491 -0.6625 823.1976 1121.269)" fill="#AED582" width="19.743" height="17.948"/>
		</g>
	</g>
	<g display="inline">
		<g>
			
				<rect x="184.966" y="768.828" transform="matrix(-0.6625 0.7491 -0.7491 -0.6625 906.545 1147.1382)" fill="#5D9E08" width="19.743" height="17.949"/>
		</g>
	</g>
	<g display="inline">
		<g>
			
				<rect x="153.68" y="938.012" transform="matrix(-0.6625 0.7491 -0.7491 -0.6625 996.0501 1442.1959)" fill="#057E96" width="38.887" height="14.957"/>
		</g>
	</g>
	
		<rect x="122.31" y="910.268" transform="matrix(-0.6625 0.7491 -0.7491 -0.6625 923.1148 1419.5696)" display="inline" fill="#8BE7EA" width="38.887" height="14.956"/>
	
		<rect x="149.02" y="877.259" transform="matrix(-0.6625 0.7491 -0.7491 -0.6625 960.2057 1336.8342)" display="inline" fill="#8BE7EA" width="59.827" height="14.956"/>
	<g display="inline">
		<g>
			<path fill="#057E96" d="M176.744,922.733l40.106-45.197c0,0,4.033,3.568,11.771-1.568s19.375-13.697,24.939-17.32
				c0,0-15.307,9.865-29.591,31.975l-36.842,41.295L176.744,922.733z"/>
		</g>
	</g>
	<g display="inline">
		<g>
			
				<rect x="482.938" y="512.86" transform="matrix(-0.6625 0.7491 -0.7491 -0.6625 1203.9227 514.3766)" fill="#E2A700" width="6.283" height="31.11"/>
		</g>
	</g>
	<g display="inline">
		<g>
			
				<rect x="411.597" y="593.527" transform="matrix(-0.6625 0.7491 -0.7491 -0.6625 1145.7434 701.9154)" fill="#E2A700" width="6.281" height="31.11"/>
		</g>
	</g>
	<g display="inline">
		<g>
			
				<rect x="521.116" y="549.653" transform="matrix(-0.6627 0.7489 -0.7489 -0.6627 1294.6826 547.8405)" fill="#E2A700" width="5.683" height="31.709"/>
		</g>
	</g>
	<g display="inline">
		<g>
			
				<rect x="451.308" y="628.416" transform="matrix(-0.6626 0.749 -0.749 -0.6626 1237.8585 730.9155)" fill="#E2A700" width="5.982" height="31.709"/>
		</g>
	</g>
	<g display="inline">
		<g>
			<path fill="#5D9E08" d="M212.781,869.946l0.02-0.023c-4.11-4.439,1.87-12.047,1.87-12.047l62.224-70.357l3.409-3.855
				l62.224-70.357c0,0,6.822-6.865,11.73-3.328l0.02-0.021c0.076,0.068,0.143,0.139,0.214,0.209
				c0.077,0.063,0.157,0.119,0.233,0.188l-0.02,0.021c4.11,4.439-1.869,12.049-1.869,12.049l-62.225,70.355l-3.409,3.855
				l-62.224,70.357c0,0-6.821,6.865-11.729,3.328l-0.02,0.023c-0.077-0.068-0.143-0.141-0.214-0.211
				C212.937,870.069,212.858,870.013,212.781,869.946z"/>
		</g>
	</g>
	<path display="inline" fill="#5D9E08" d="M183.208,849.54l34.313,28.592c0,0,8.273,5.895,17.735-4.805
		c0,0-7.821,2.607-13.543-0.855s-47.233-34.623-47.233-34.623L183.208,849.54z"/>
	<g display="inline">
		<polygon fill="#057E96" points="153.291,901.991 186.752,931.585 179.523,919.601 155.95,899.634 		"/>
	</g>
	<g display="inline">
		<path fill="#057E96" d="M325.297,684.325l69.313,61.303l-2.966-14.324c0,0-4.067,3.311-14.823-6.201
			c-10.755-9.512-54.121-45.02-54.121-45.02S322.257,680.839,325.297,684.325z"/>
	</g>
	<path display="inline" fill="#5D9E08" d="M140.888,810.356l54.416,44.131l-41.789,47.703l-1.065-0.943
		c0,0,26.208-27.938,21.897-42.93c-4.311-14.994-28.008-40.346-28.008-40.346L140.888,810.356z"/>
	<g display="inline">
		<g>
			<g>
				<path fill="#387700" d="M156.492,828.011c0,0,1.345-1.303,2.582-0.365l0.003-0.004c0.02,0.018,0.037,0.035,0.056,0.053
					c0.02,0.016,0.04,0.031,0.06,0.049l-0.004,0.004c1.083,1.113-0.046,2.607-0.046,2.607l-4.046,4.574
					c-0.608-1.439-1.159-2.627-1.601-3.529L156.492,828.011z"/>
			</g>
			<g>
				<path fill="#387700" d="M162.317,833.163c0,0,1.345-1.303,2.582-0.365l0.004-0.004c0.02,0.018,0.037,0.035,0.056,0.053
					c0.02,0.016,0.04,0.031,0.06,0.049l-0.004,0.004c1.083,1.113-0.046,2.607-0.046,2.607l-6.86,7.756
					c-0.422-1.383-0.854-2.682-1.285-3.887L162.317,833.163z"/>
			</g>
			<g>
				<path fill="#387700" d="M167.695,837.919c0,0,1.345-1.303,2.582-0.365l0.004-0.004c0.02,0.018,0.037,0.035,0.056,0.053
					c0.02,0.016,0.04,0.031,0.059,0.049l-0.003,0.004c1.082,1.113-0.047,2.607-0.047,2.607l-10.121,11.443
					c-0.292-1.475-0.612-2.898-0.954-4.262L167.695,837.919z"/>
			</g>
			<g>
				<path fill="#387700" d="M172.625,842.278c0,0,1.345-1.303,2.582-0.365l0.004-0.004c0.02,0.018,0.037,0.035,0.056,0.053
					c0.02,0.018,0.04,0.031,0.059,0.049l-0.003,0.006c1.082,1.111-0.047,2.605-0.047,2.605l-12.026,13.6l-0.659,0.744l-1.139,1.289
					c-0.143-1.611-0.333-3.184-0.56-4.709L172.625,842.278z"/>
			</g>
			<g>
				<path fill="#387700" d="M161.679,863.687l1.949-2.205l0.659-0.744l12.026-13.6c0,0,1.345-1.303,2.582-0.363l0.004-0.006
					c0.02,0.018,0.037,0.037,0.056,0.055c0.02,0.016,0.04,0.031,0.06,0.049l-0.004,0.004c1.083,1.111-0.046,2.607-0.046,2.607
					l-12.026,13.598l-0.659,0.744l-4.561,5.158C161.77,867.183,161.754,865.415,161.679,863.687z"/>
			</g>
			<g>
				<path fill="#387700" d="M161.292,874.96l5.887-6.656l0.745-0.842l13.595-15.373c0,0,1.507-1.486,2.753-0.559l0.004-0.004
					c0.02,0.016,0.037,0.035,0.056,0.053c0.02,0.016,0.04,0.031,0.06,0.049l-0.004,0.004c1.072,1.125-0.218,2.801-0.218,2.801
					l-13.595,15.373l-0.745,0.842l-9.619,10.877C160.69,879.308,161.045,877.118,161.292,874.96z"/>
			</g>
			<g>
				<path fill="#387700" d="M158.409,888.153l10.25-11.59l0.907-1.025l16.559-18.723c0,0,1.811-1.83,3.077-0.924l0.005-0.006
					c0.02,0.018,0.037,0.035,0.055,0.053c0.021,0.018,0.041,0.031,0.061,0.049l-0.005,0.006c1.053,1.145-0.542,3.166-0.542,3.166
					l-16.559,18.723l-0.907,1.027l-16.558,18.721c0,0-0.215,0.217-0.545,0.461C155.942,894.769,157.327,891.446,158.409,888.153z"/>
			</g>
		</g>
	</g>
	<g display="inline">
		<path fill="#5D9E08" d="M239.366,871.042c0,0,9.286-11.719,24.112-18.166c14.826-6.447,24.771-3.242,24.771-3.242l10.762-12.846
			l-10.432-4.436c0,0-0.604,2.969-12.775,7.873c-21.094,8.498-34.537,17.377-46.381,35.254c-8.123,12.262-5.611,15.404-5.611,15.404
			S226.985,886.396,239.366,871.042z"/>
	</g>
	
		<rect x="167.661" y="742.744" transform="matrix(-0.6626 0.749 -0.749 -0.6626 858.1431 1153.9564)" display="inline" fill="#5D9E08" width="2.991" height="55.04"/>
	
		<rect x="131.454" y="778.198" transform="matrix(0.6625 -0.749 0.749 0.6625 -550.5858 367.8666)" display="inline" fill="#5D9E08" width="2.991" height="33.503"/>
	
		<rect x="187.851" y="751.456" transform="matrix(0.6625 -0.7491 0.7491 0.6625 -500.0997 400.837)" display="inline" fill="#960024" width="13.761" height="7.778"/>
	
		<rect x="180.504" y="735.15" transform="matrix(0.6625 -0.749 0.749 0.6625 -500.9104 390.2192)" display="inline" fill="#960024" width="4.188" height="31.708"/>
	
		<rect x="550.941" y="517.329" transform="matrix(-0.6625 0.749 -0.749 -0.6625 1317.9629 468.9783)" display="inline" fill="#960024" width="4.786" height="28.119"/>
	
		<rect x="532.709" y="537.945" transform="matrix(-0.6624 0.7491 -0.7491 -0.6624 1303.0895 516.8038)" display="inline" fill="#960024" width="4.787" height="28.118"/>
	
		<rect x="520.62" y="469.751" transform="matrix(-0.6624 0.7491 -0.7491 -0.6624 1233.6986 416.4715)" display="inline" fill="#960024" width="4.787" height="32.905"/>
	
		<rect x="494.857" y="498.88" transform="matrix(-0.6625 0.749 -0.749 -0.6625 1212.6959 484.2933)" display="inline" fill="#960024" width="4.786" height="32.905"/>
	<path display="inline" fill="#960024" d="M550.456,513.431l19.341,17.104l2.374-6.448c0,0-1.085,3.034-5.463,0.76
		S550.456,513.431,550.456,513.431z"/>
	<path display="inline" fill="#960024" d="M520.283,465.02l22.407,19.817l4.071-8.779c0,0-0.638,3.43-8.445,0.518
		S520.283,465.02,520.283,465.02z"/>
	<g display="inline">
		<g>
			<path fill="#387700" d="M354.277,709.956c0,0-4.482-3.963-11.691,3.285L215.802,856.595c0,0-6.313,8.043-1.384,12.402
				c0,0-1.844-3.334,4.073-10.023l128.474-145.266C346.965,713.708,351.639,709.325,354.277,709.956z"/>
		</g>
	</g>
	<polygon display="inline" fill="#057E96" points="215.87,887.163 221.389,880.923 192.963,857.372 188.232,862.722 	"/>
</g>
<g display="none">
	<path display="inline" fill="#FFC217" d="M-149.709,373.292c0,0-15.211,26.703-11.611,40.881
		c3.601,14.177,12.067,20.285,12.067,20.285s10.064-15.368,9.159-17.576c-0.906-2.209-11.018-9.51-10.181-24.808
		c0.836-15.297,18.248-29.591,18.248-29.591L-149.709,373.292z"/>
	
		<rect x="-86.682" y="205.991" transform="matrix(0.7462 -0.6658 0.6658 0.7462 -157.1693 38.5182)" display="inline" fill="#2B5DA5" width="117.218" height="38.751"/>
	
		<rect x="-113.817" y="168.499" transform="matrix(0.7462 -0.6658 0.6658 0.7462 -136.3172 18.2247)" display="inline" fill="#2B5DA5" width="139.115" height="38.752"/>
	<path display="inline" fill="#FFC217" d="M-1.762,177.33l31.585,35.399l17.865-15.941c0,0,4.566-4.826,1.04-8.777l-27.686-31.029
		L-1.762,177.33z"/>
	<path display="inline" fill="#FFC217" d="M-8.113,124.306l33.711,37.781l22.722-20.274c0,0,3.674-4.271,0.619-7.696l-26.444-29.637
		c0,0-3.842-4.667-9.269,0.786L-8.113,124.306z"/>
	
		<rect x="-102.067" y="190.503" transform="matrix(0.7462 -0.6658 0.6658 0.7462 -139.594 27.1528)" display="inline" fill="#0E4689" width="135.755" height="12.267"/>
	
		<rect x="-119.699" y="170.741" transform="matrix(0.7462 -0.6658 0.6658 0.7462 -130.9138 10.3976)" display="inline" fill="#3D81C4" width="135.754" height="12.267"/>
	
		<rect x="-94.417" y="211.877" transform="matrix(0.7462 -0.6658 0.6658 0.7462 -155.109 29.2091)" display="inline" fill="#3D81C4" width="110.333" height="12.267"/>
	
		<rect x="-76.992" y="231.405" transform="matrix(0.7462 -0.6658 0.6658 0.7462 -163.6872 45.7673)" display="inline" fill="#0E4689" width="110.333" height="12.267"/>
	<path display="inline" fill="#FFC217" d="M-77.384,349.348l-33.984,30.323c0,0-4.567-14.266-21.867-24.507l44.258-39.491
		c0,0,7.834,7.389,10.322,14.751S-81.778,341.042-77.384,349.348z"/>
	<path display="inline" fill="#2B5DA5" d="M-127.675,350.258l-7.27,9.793c6.305,2.632,17.298,11.937,22.615,33.655
		c6.238,25.486-22.004,45.54-41.195,54.855c-8.735,4.24-15.146,4.277-19.545,3.062l4.087,17.001c0,0,34.403-17.92,53.641-39.581
		c19.238-21.66,9.854-45.7,2.206-58.514S-127.675,350.258-127.675,350.258z"/>
	<path display="inline" fill="#0E4689" d="M-153.525,448.562c19.191-9.315,47.433-29.369,41.195-54.855
		c-5.316-21.719-16.31-31.023-22.615-33.655l-4.442,5.983c0,0,6.857-2.569,13.906,7.939c7.049,10.508,10.603,29.34,6.895,37.381
		s-22.625,26.094-35.564,31.733c-12.94,5.64-21.201-0.957-21.201-0.957l2.282,9.492C-168.67,452.839-162.26,452.802-153.525,448.562
		z"/>
	<path display="inline" fill="#E5285D" d="M-222.304,441.083c0,0,12.886-12.207-5.504-27.846
		c-19.401-16.498-24.109-29.24-24.733-49.031c-0.624-19.79,18.105-59.355,18.105-59.355l94.861-84.642l74.711,83.732l-78.528,70.068
		c0,0-14.261,12.653-19.849,35.028L-222.304,441.083z"/>
	<path display="inline" fill="#FFC217" d="M-222.304,441.083c0,0-17.977,29.172-18.208,69.48
		c-0.232,40.309,25.453,63.527,28.599,64.27c3.146,0.74,68.4-41.868,76.403-53.979c8.004-12.109,1.438-18.672-8.322-28.418
		c-9.76-9.745-24.931-19.986-23.815-46.179c1.116-26.192,4.372-37.261,4.372-37.261L-222.304,441.083z"/>
	<path display="inline" fill="#FF7381" d="M-252.424,362.509c0,0,1.956,17.29,13.92,17.971
		c11.964,0.682,137.076-117.518,137.076-117.518l-37.904-42.48l-95.269,84.296C-234.601,304.777-252.094,338.744-252.424,362.509z"
		/>
	<path display="inline" fill="#B5064D" d="M-79.45,287.593l-145.264,129.024c0,0,12.328,9.584,2.383,24.491l59.042-32.099
		c0,0,4.378-20.054,19.765-35.025s78.589-70.124,78.589-70.124L-79.45,287.593z"/>
	<polygon display="inline" fill="#FFC217" points="-138.968,220.889 -148.687,209.997 -226.424,279.36 -234.74,306.344 	"/>
	<path display="inline" fill="#DD9300" d="M-211.914,574.833c0,0,3.833-0.662,34.111-20.629
		c30.278-19.967,40.802-29.039,44.258-36.807s2.341-12.463-6.459-21.083c-8.8-8.62-22.917-20.106-26.154-34.568
		c-3.236-14.462,2.882-52.749,2.882-52.749l-58.242,31.659c0,0,32.555-15.304,34.083-15.78c1.527-0.475-9.559,32.84,2.066,57.601
		c11.625,24.762,28.041,24.665,33.173,34.99C-147.064,527.793-172.659,552.405-211.914,574.833z"/>
	<path display="inline" fill="#FFE340" d="M-221.43,443.853c0,0-16.204,30.96-17.193,59.88
		c-0.99,28.919,12.218,53.864,22.727,63.653c10.508,9.787,33.364-21.076,11.447-57.77s-5.192-65.28-7.131-67.453
		C-213.521,439.989-221.43,443.853-221.43,443.853z"/>
	
		<rect x="-120.907" y="210.079" transform="matrix(0.7462 -0.6658 0.6658 0.7462 -184.4063 -11.8591)" display="inline" fill="#FFC217" width="26.304" height="51.633"/>
	
		<rect x="-87.895" y="250.407" transform="matrix(0.7462 -0.6658 0.6658 0.7462 -201.5106 18.5541)" display="inline" fill="#FFC217" width="22.943" height="46.253"/>
	
		<rect x="-129.941" y="215.819" transform="matrix(0.7462 -0.6658 0.6658 0.7462 -179.9585 -20.4445)" display="inline" fill="#FFE340" width="26.304" height="19.902"/>
	
		<rect x="-106.259" y="248.495" transform="matrix(0.7462 -0.6658 0.6658 0.7462 -191.6174 2.0597)" display="inline" fill="#DD9300" width="26.304" height="7.632"/>
	
		<rect x="-100.794" y="255.324" transform="matrix(-0.7462 0.6658 -0.6658 -0.7462 16.5164 511.8574)" display="inline" fill="#DD9300" width="22.943" height="7.506"/>
	
		<rect x="-74.408" y="285.782" transform="matrix(-0.7462 0.6658 -0.6658 -0.7462 82.2795 545.9273)" display="inline" fill="#DD9300" width="22.944" height="5.735"/>
	
		<rect x="-102.438" y="255.954" transform="matrix(-0.7462 0.6658 -0.6658 -0.7462 12.4172 509.7338)" display="inline" fill="#C17700" width="22.943" height="2.561"/>
	
		<rect x="-88.07" y="265.041" transform="matrix(0.7462 -0.6658 0.6658 0.7462 -201.4246 18.3885)" display="inline" fill="#FFE340" width="22.943" height="16.594"/>
	<path display="inline" fill="#2B5DA5" d="M-225.863,442.662l65.751-34.892c0,0,3.748-2.693,6.093-10.937s-0.279-9.109-0.279-9.109
		l-64.922,36.925c0,0-3.998,1.754-6.537,7.923C-228.297,438.741-225.863,442.662-225.863,442.662z"/>
	<path display="inline" fill="#FFA4B1" d="M-102.366,264.65L-128,235.922c0,0-87.319,81.226-96.169,88.411
		c-8.85,7.188-17.459-5.479-6.808-16.875s93.643-84.737,93.643-84.737l36.329,40.715L-102.366,264.65z"/>
	<polygon display="inline" fill="#FF7381" points="-81.037,288.312 -102.476,264.748 -101.29,263.69 -79.419,287.406 	"/>
	
		<rect x="-73.935" y="285.435" transform="matrix(0.7461 -0.6659 0.6659 0.7461 -215.821 26.7206)" display="inline" fill="#E5285D" width="2.119" height="21.791"/>
	
		<rect x="-70.697" y="242.839" transform="matrix(0.7461 -0.6659 0.6659 0.7461 -192.2124 20.3914)" display="inline" fill="#0E4689" width="2.654" height="38.751"/>
	
		<rect x="-93.989" y="211.687" transform="matrix(0.7462 -0.6658 0.6658 0.7462 -177.3556 -3.0384)" display="inline" fill="#0E4689" width="2.654" height="38.751"/>
	<path display="inline" fill="#3D81C4" d="M-159.788,392.755l-59.629,33.864c0,0-6.972,5.511-5.178,11.896
		c0,0,60.335-38.575,63.112-41.23C-158.707,394.63-159.788,392.755-159.788,392.755z"/>
	<path display="inline" fill="#84003C" d="M-219.162,424.714l64.894-36.957c0,0,7.088-10.45,13.952-16.793
		c6.864-6.344,74.013-65.896,74.013-65.896l-5.987-6.709c0,0-81.604,73.05-91.992,84.211
		c-10.388,11.162-56.059,39.362-56.059,39.362L-219.162,424.714z"/>
	<path display="inline" fill="#FFE340" d="M42.677,131.896l-20.451-22.919c0,0-2.989-4.795-7.271-0.975l-18.77,16.748
		C-3.814,124.749,22.103,151.318,42.677,131.896z"/>
	<path display="inline" fill="#DD9300" d="M12.529,147.44l13.399,15.016l22.181-20.501c0,0,4.062-4.216,0.83-7.838l-5.994-6.718
		c0,0,4.27,6.245,3.675,8.669c-0.595,2.424-11.067,13.069-17.697,15.317C22.292,153.633,12.529,147.44,12.529,147.44z"/>
	<path display="inline" fill="#FFE340" d="M2.119,177.535l18.364-16.386l20.692,23.191c0,0-7.22,8.801-19.921,5.702
		S2.119,177.535,2.119,177.535z"/>
	<path display="inline" fill="#DD9300" d="M-1.762,177.33l31.682,35.507l17.373-16.211c0,0,4.903-4.73,1.436-8.616
		c-3.467-3.886-8.697-9.748-8.697-9.748s6.437,8.009,6.561,9.938c0.125,1.929-10.419,17.954-24.486,9.745
		c-14.067-8.208-22.155-22.145-22.155-22.145L-1.762,177.33z"/>
	<path display="inline" fill="#FFE340" d="M-153.156,400.187c0,0-6.089,10.404-2.068,21.475c4.021,11.069,12.245,0.135,11.896-3.595
		C-143.678,414.337-150.684,411.11-153.156,400.187z"/>
	<path display="inline" fill="#FFE340" d="M-84.069,326.903l-33.819,29.324c0,0,6.196,7.659,8.544,15.774
		c0,0,16.867-13.562,17.242-15.385s-0.03-6.567-0.03-6.567s10.001-9.055,10.302-13.725
		C-81.529,331.656-84.069,326.903-84.069,326.903z"/>
</g>
</svg>
