<?xml version="1.0" encoding="utf-8"?>
<!-- Generator: Adobe Illustrator 16.0.0, SVG Export Plug-In . SVG Version: 6.00 Build 0)  -->
<!DOCTYPE svg PUBLIC "-//W3C//DTD SVG 1.1//EN" "http://www.w3.org/Graphics/SVG/1.1/DTD/svg11.dtd">
<svg version="1.1" xmlns="http://www.w3.org/2000/svg" xmlns:xlink="http://www.w3.org/1999/xlink" x="0px" y="0px" width="500px"
	 height="500px" viewBox="0 0 500 500" enable-background="new 0 0 500 500" xml:space="preserve">
<g id="Calque_6">
	<path fill="#F9D29C" stroke="#B17F4A" stroke-miterlimit="10" d="M432.208,335.818c34.556-57.439,45.125-114.496,23.608-127.442
		c-21.517-12.942-66.975,23.126-101.529,80.564c-34.549,57.438-45.118,114.497-23.605,127.44
		C352.201,429.325,397.659,393.256,432.208,335.818z"/>
</g>
<g id="Calque_6_-_copie">
	<path fill="#F9D29C" stroke="#B17F4A" stroke-miterlimit="10" d="M121.597,348.879c-53.811-39.973-85.295-88.716-70.322-108.875
		c14.973-20.156,70.735-4.098,124.546,35.874c53.804,39.974,85.291,88.719,70.319,108.873
		C231.166,404.91,175.402,388.85,121.597,348.879z"/>
</g>
<g id="Calque_8" display="none">
	
		<rect x="161.997" y="385.889" transform="matrix(-0.3139 -0.9495 0.9495 -0.3139 -172.3629 742.2224)" display="inline" fill="#1D71B8" stroke="#000000" stroke-width="2" stroke-miterlimit="10" width="40.001" height="95"/>
	
		<ellipse transform="matrix(-0.3139 -0.9495 0.9495 -0.3139 84.1985 823.4093)" display="inline" fill="#C75A94" stroke="#000000" stroke-width="2" stroke-miterlimit="10" cx="339.607" cy="381.283" rx="33.999" ry="63.5"/>
	
		<ellipse transform="matrix(-0.3139 -0.9495 0.9495 -0.3139 -30.1707 787.2203)" display="inline" fill="#1D71B8" stroke="#000000" stroke-width="2" stroke-miterlimit="10" cx="269.348" cy="404.511" rx="45.001" ry="62.499"/>
	
		<rect x="149.182" y="426.629" transform="matrix(-0.3139 -0.9495 0.9495 -0.3139 -193.2224 735.6298)" display="inline" fill="#FFED00" stroke="#000000" stroke-width="2" stroke-miterlimit="10" width="39.997" height="22"/>
	
		<rect x="219.065" y="386.984" transform="matrix(-0.3137 -0.9495 0.9495 -0.3137 -103.1305 764.0936)" display="inline" fill="#FFED00" stroke="#000000" stroke-width="2" stroke-miterlimit="10" width="11.001" height="64.665"/>
	
		<rect x="121.335" y="444.641" transform="matrix(-0.3139 -0.9495 0.9495 -0.3139 -254.0196 716.3837)" display="inline" fill="#C75A94" stroke="#000000" stroke-width="2" stroke-miterlimit="10" width="21" height="10.666"/>
</g>
<g id="Calque_10" display="none">
	
		<rect x="162.245" y="351.108" transform="matrix(-0.1565 -0.9877 0.9877 -0.1565 -199.0755 655.1973)" display="inline" fill="#009FE3" stroke="#000000" stroke-width="2" stroke-miterlimit="10" width="36" height="123.001"/>
	
		<rect x="290.008" y="332.043" transform="matrix(-0.1565 -0.9877 0.9877 -0.1565 -16.2262 767.2281)" display="inline" fill="#E71D73" stroke="#000000" stroke-width="2" stroke-miterlimit="10" width="58.999" height="117"/>
	
		<rect x="82.888" y="412.953" transform="matrix(-0.1565 -0.9877 0.9877 -0.1565 -293.0887 597.6042)" display="inline" fill="#FFED00" stroke="#000000" stroke-width="2" stroke-miterlimit="10" width="51.5" height="22"/>
	
		<rect x="226.533" y="391.138" transform="matrix(-0.1565 -0.9877 0.9877 -0.1565 -106.7853 711.7445)" display="inline" fill="#FFED00" stroke="#000000" stroke-width="2" stroke-miterlimit="10" width="48.001" height="20.667"/>
	
		<rect x="274.884" y="373.316" transform="matrix(-0.1565 -0.9877 0.9877 -0.1565 -55.787 742.9865)" display="inline" fill="#FFED00" stroke="#000000" stroke-width="2" stroke-miterlimit="10" width="28.999" height="43.999"/>
	<path display="inline" fill="#FFED00" stroke="#000000" stroke-width="2" stroke-miterlimit="10" d="M384.142,367.141
		c5.183-0.821,10.048,2.713,10.869,7.896l1.097,6.914c0.819,5.182-2.715,10.047-7.896,10.868l0,0
		c-5.184,0.822-10.048-2.713-10.87-7.896l-1.097-6.913C375.425,372.827,378.96,367.962,384.142,367.141L384.142,367.141z"/>
</g>
<g id="Calque_11" display="none">
	
		<rect x="223.569" y="288.479" transform="matrix(-0.1164 -0.9932 0.9932 -0.1164 -101.3404 700.8009)" display="inline" fill="#009FE3" stroke="#000000" stroke-width="2" stroke-miterlimit="10" width="75" height="214.002"/>
	
		<rect x="320.132" y="373.944" transform="matrix(-0.1164 -0.9932 0.9932 -0.1164 17.6321 783.5737)" display="inline" fill="#009FE3" stroke="#000000" stroke-width="2" stroke-miterlimit="10" width="74.499" height="19.999"/>
	
		<rect x="96.645" y="395.118" transform="matrix(-0.1164 -0.9932 0.9932 -0.1164 -250.1024 596.7253)" display="inline" fill="#FFED00" stroke="#000000" stroke-width="2" stroke-miterlimit="10" width="87.499" height="29"/>
	
		<rect x="169.249" y="391.589" transform="matrix(-0.1164 -0.9932 0.9932 -0.1164 -178.7848 646.6161)" display="inline" fill="#FFED00" stroke="#000000" stroke-width="2" stroke-miterlimit="10" width="58" height="22.499"/>
	
		<rect x="274.224" y="384.824" transform="matrix(-0.1164 -0.9932 0.9932 -0.1164 -39.2096 744.2643)" display="inline" fill="#E71D73" stroke="#000000" stroke-width="2" stroke-miterlimit="10" width="74.5" height="9.501"/>
	
		<rect x="288.792" y="383.118" transform="matrix(-0.1164 -0.9932 0.9932 -0.1164 -21.2517 756.8271)" display="inline" fill="#E71D73" stroke="#000000" stroke-width="2" stroke-miterlimit="10" width="74.5" height="9.499"/>
</g>
<g id="Calque_12">
	<path fill="#FFED00" stroke="#000000" stroke-width="2" stroke-miterlimit="10" d="M348.172,348.756
		c20.991-3.031,40.47,11.533,43.501,32.527c3.029,20.993-11.536,40.472-32.528,43.501c-20.992,3.03-40.472-11.535-43.5-32.528
		C312.613,371.265,327.178,351.785,348.172,348.756z"/>
	
		<rect x="128.647" y="379.176" transform="matrix(-0.1428 -0.9897 0.9897 -0.1428 -254.9759 614.7655)" fill="#FFED00" stroke="#000000" stroke-width="2" stroke-miterlimit="10" width="20.141" height="77.233"/>
	
		<ellipse transform="matrix(-0.1429 -0.9897 0.9897 -0.1429 -142.421 686.9789)" fill="#C75A94" stroke="#000000" stroke-width="2" stroke-miterlimit="10" cx="226.256" cy="405.159" rx="26.16" ry="60.415"/>
	
		<rect x="284.66" y="373.927" transform="matrix(-0.1429 -0.9897 0.9897 -0.1429 -47.3102 747.9904)" fill="#3AAA35" stroke="#000000" stroke-width="2" stroke-miterlimit="10" width="31.143" height="41.107"/>
	
		<rect x="75.674" y="411.386" transform="matrix(-0.1428 -0.9897 0.9897 -0.1428 -321.8189 571.8829)" fill="#BE1622" stroke="#000000" stroke-width="2" stroke-miterlimit="10" width="22.111" height="27.821"/>
</g>
<g id="Calque_9" display="none">
	<g display="inline">
		
			<rect x="242.975" y="350.795" transform="matrix(0.8192 0.5735 -0.5735 0.8192 285.8841 -85.6898)" fill="#C75A94" stroke="#000000" stroke-width="2" stroke-miterlimit="10" width="71.756" height="119.593"/>
		
			<rect x="297.894" y="338.883" transform="matrix(0.8192 0.5735 -0.5735 0.8192 258.8762 -120.8668)" fill="#951B81" stroke="#000000" stroke-width="2" stroke-miterlimit="10" width="46.507" height="22.587"/>
		<path fill="#FCEA10" stroke="#000000" stroke-width="2" stroke-miterlimit="10" d="M350.757,336.844
			c5.05-7.215,3.299-17.158-3.916-22.211c-7.213-5.047-17.157-3.295-22.206,3.92c-5.047,7.214-3.297,17.158,3.918,22.205
			C335.767,345.811,345.708,344.057,350.757,336.844z"/>
		
			<rect x="213.166" y="458.865" transform="matrix(0.8192 0.5735 -0.5735 0.8192 311.9168 -51.7775)" fill="#FFED00" stroke="#000000" stroke-width="2" stroke-miterlimit="10" width="49.83" height="19.932"/>
		
			<rect x="220.115" y="476.275" transform="matrix(0.8193 0.5734 -0.5734 0.8193 316.9818 -45.1298)" fill="#C75A94" stroke="#000000" stroke-width="2" stroke-miterlimit="10" width="19.93" height="7.973"/>
		<circle fill="#FCEA10" stroke="#000000" stroke-width="2" stroke-miterlimit="10" cx="280.759" cy="407.871" r="49.83"/>
	</g>
</g>
<g id="Calque_3">
	<g>
		<circle fill="#009FE3" stroke="#000000" stroke-width="2" stroke-miterlimit="10" cx="76.554" cy="209.23" r="45.968"/>
		<circle fill="#009FE3" stroke="#000000" stroke-width="2" stroke-miterlimit="10" cx="427.747" cy="208.618" r="45.968"/>
		<path fill="#009FE3" stroke="#000000" stroke-width="2" stroke-miterlimit="10" d="M427.746,160.814
			c0-30.465-24.697-55.162-55.162-55.162h-240.87c-30.464,0-55.161,24.697-55.161,55.162v90.096
			c0,30.465,24.697,55.162,55.161,55.162h240.87c30.465,0,55.162-24.697,55.162-55.162V160.814z"/>
	</g>
</g>
<g id="Calque_2">
</g>
<g id="Calque_1">
	<g>
		<path fill="#312783" stroke="#000000" stroke-width="2" stroke-miterlimit="10" d="M347.763,93.178
			c0-45.696-39.896-82.742-89.106-82.742h-13.014c-49.21,0-89.105,37.046-89.105,82.742v70.923
			c0,45.696,39.895,82.741,89.105,82.741h13.014c49.21,0,89.106-37.045,89.106-82.741V93.178z"/>
		<circle fill="#312783" stroke="#000000" stroke-width="2" stroke-miterlimit="10" cx="252.15" cy="248.152" r="137.903"/>
	</g>
	<g>
	</g>
	<g>
	</g>
	<g>
	</g>
	<g>
	</g>
	<g>
	</g>
	<g>
	</g>
</g>
</svg>
