<?xml version="1.0" encoding="utf-8"?>
<!-- Generator: Adobe Illustrator 16.0.0, SVG Export Plug-In . SVG Version: 6.00 Build 0)  -->
<!DOCTYPE svg PUBLIC "-//W3C//DTD SVG 1.1//EN" "http://www.w3.org/Graphics/SVG/1.1/DTD/svg11.dtd" [
	<!ENTITY ns_flows "http://ns.adobe.com/Flows/1.0/">
	<!ENTITY ns_extend "http://ns.adobe.com/Extensibility/1.0/">
	<!ENTITY ns_ai "http://ns.adobe.com/AdobeIllustrator/10.0/">
	<!ENTITY ns_graphs "http://ns.adobe.com/Graphs/1.0/">
]>
<svg version="1.1" id="Layer_1" xmlns:x="&ns_extend;" xmlns:i="&ns_ai;" xmlns:graph="&ns_graphs;"
	 xmlns="http://www.w3.org/2000/svg" xmlns:xlink="http://www.w3.org/1999/xlink" xmlns:a="http://ns.adobe.com/AdobeSVGViewerExtensions/3.0/"
	 x="0px" y="0px" width="300px" height="200px" viewBox="0 0 300 200" enable-background="new 0 0 300 200" xml:space="preserve">
<g>
	<g>
		<path fill="#F15A24" d="M284.551,108.643c-2.258,18.411-33.545,17.661-42.451,12.651c-8.901-5.011,21.908-46.343,21.908-46.343
			S286.801,90.23,284.551,108.643z"/>
		<path fill="#C1272D" d="M263.842,74.825c-1.046,1.401-25.537,34.405-23.438,44.328c0.23,1.07,0.766,1.859,1.592,2.316
			c3.337,1.878,9.637,3.094,16.058,3.094l0,0c11.967,0,25.267-4.176,26.7-15.896c2.242-18.324-20.4-33.735-20.63-33.886
			l-0.165-0.112L263.842,74.825z M264.056,75.234c2.038,1.425,22.4,16.126,20.29,33.384c-1.4,11.45-14.5,15.526-26.292,15.526l0,0
			c-6.353,0-12.579-1.187-15.853-3.036c-0.73-0.407-1.188-1.079-1.391-2.042C238.82,109.673,262.17,77.788,264.056,75.234z"/>
	</g>
	<g>
		<g>
			<g>
				<g>
					<path fill="#FBC69F" d="M168.994,171.416v7.055c0,0-9.532,10.419-20.555,14.554c-4.197-6.517-1.691-21.608-1.691-21.608
						H168.994z"/>
					<g  a:adobe-blending-mode="multiply">
						<path fill="#FBC69F"  a:adobe-blending-mode="normal" d="M149.962,182.684c0,0,0.545,5.35,7.569,0.359
							c5.201-3.687,8.366-9.71,9.111-11.627h2.352v7.055c0,0-9.532,10.419-20.555,14.554c-1.549-2.402-2.179-5.964-2.369-9.505
							L149.962,182.684z"/>
					</g>
					<path fill="#CA713B" d="M146.573,171.212h22.421v0.409h-22.07c-0.256,1.672-2.146,15.08,1.599,21.15
						c10.783-4.115,20.226-14.34,20.318-14.439l0.302,0.275c-0.092,0.106-9.689,10.505-20.629,14.61l-0.156,0.05l-0.093-0.136
						c-4.193-6.509-1.825-21.131-1.724-21.754L146.573,171.212z"/>
				</g>
				<g>
					<path fill="#FBC69F" d="M148.596,181.281c0,0,3.128,3.007,2.286,6.851c-0.847,3.852-0.909,8.745-6.669,6.828
						c-0.598-3.783,0.75-12.434,0.75-12.434L148.596,181.281z"/>
					<path fill="#FBC69F"  a:adobe-blending-mode="multiply" d="M148.596,181.281c0,0,3.128,3.007,2.286,6.851
						c-0.847,3.852-0.909,8.745-6.669,6.828c-0.598-3.783,0.75-12.434,0.75-12.434L148.596,181.281z"/>
					<path fill="#CA713B" d="M144.759,182.498c-0.056,0.352-1.345,8.717-0.748,12.49l0.017,0.128l0.115,0.038
						c0.883,0.294,1.67,0.438,2.352,0.438c3.178,0,3.75-3.035,4.299-5.962c0.093-0.498,0.184-0.984,0.289-1.45
						c0.859-3.921-2.214-6.927-2.346-7.055l-0.094-0.088l-3.865,1.334L144.759,182.498z M145.146,182.684l3.393-1.168
						c0.489,0.515,2.873,3.24,2.14,6.577c-0.103,0.476-0.194,0.963-0.288,1.457c-0.543,2.901-1.059,5.635-3.896,5.635
						c-0.609,0-1.313-0.126-2.096-0.38C143.895,191.283,144.99,183.744,145.146,182.684z"/>
				</g>
				<g>
					<path fill="#FF005F" d="M155.539,176.651c0,0.651,0.193,1.245,0.527,1.741c0.561,0.825,1.503,1.371,2.579,1.371h9.124v2.92
						h-11.148c-1.205,0-2.316-0.428-3.172-1.15c-1.073-0.904-1.755-2.254-1.755-3.773v-5.254h3.845V176.651z"/>
					<g  a:adobe-blending-mode="multiply">
						<path fill="#BF005F"  a:adobe-blending-mode="normal" d="M152.618,180.261c0.808,1.255,2.146,1.4,4.019,1.4
							c1.866,0,4.851,0.106,4.851-0.271c0-0.393-0.673-0.73-3.183-0.73c-2.508,0-3.816-2.89-3.816-3.814c0-0.933,0-2.207,0-2.207
							h-2.794v-2.132h3.845v4.146c0,0.651,0.193,1.245,0.527,1.741c0.561,0.825,1.503,1.371,2.579,1.371h9.124v2.92h-11.148
							c-1.205,0-2.316-0.428-3.172-1.15c-0.558-0.476-1.007-1.068-1.313-1.739C152.328,179.919,152.497,180.067,152.618,180.261z"/>
					</g>
					<path fill="#6F0028" d="M151.904,177.76c0,1.4,0.611,2.716,1.678,3.609c0.851,0.72,1.931,1.108,3.039,1.108h10.942v-2.51
						h-8.918c-1.104,0-2.13-0.544-2.747-1.46c-0.369-0.545-0.57-1.185-0.57-1.856v-4.146h0.414v4.146
						c0,0.584,0.174,1.146,0.496,1.625c0.539,0.806,1.441,1.282,2.407,1.282h9.329v3.339h-11.354c-1.205,0-2.379-0.429-3.304-1.209
						c-1.161-0.981-1.827-2.409-1.827-3.929v-5.254h0.414V177.76z"/>
				</g>
				<g>
					<path fill="#514FA4" d="M146.004,195.136c0,0.787-0.391,1.478-0.988,1.896c-0.376,0.252-0.828,0.409-1.314,0.409h-8.613
						c-0.527,0-1.011-0.176-1.394-0.466c-0.554-0.431-0.914-1.091-0.914-1.84v-22.63l13.224-0.465V195.136z"/>
					<g  a:adobe-blending-mode="multiply">
						<path fill="#514FA4"  a:adobe-blending-mode="normal" d="M132.78,172.506v22.63c0,0.749,0.36,1.409,0.914,1.84
							c0.383,0.29,0.866,0.466,1.394,0.466h8.613c0.486,0,0.938-0.157,1.314-0.409c0.598-0.419,0.988-1.109,0.988-1.896v-23.095
							L132.78,172.506z M135.378,196.255c0,0,3.018-0.73,0.868-4.894c2.512-0.964,2.693-3.602,1.248-4.769
							c3.022-1.069,2.813-5.087-0.125-6.74c1.625-1.576,1.627-3.659,0.695-4.749c2.012,0,5.996,0,5.996,0s-0.733,3.261-0.762,5.934
							c-0.025,2.687,0.76,4.281,0.76,6.761c0,2.472,0.092,8.457-0.605,8.457C142.758,196.255,135.378,196.255,135.378,196.255z"/>
					</g>
					<path fill="#070440" d="M146.213,171.826l-13.637,0.475v22.835c0,0.787,0.359,1.519,0.994,2.005
						c0.438,0.328,0.962,0.504,1.518,0.504h8.613c0.516,0,1.01-0.155,1.43-0.447c0.678-0.465,1.082-1.234,1.082-2.062V171.826z
						 M145.801,195.136c0,0.689-0.34,1.331-0.905,1.724c-0.351,0.241-0.765,0.377-1.194,0.377h-8.613
						c-0.467,0-0.906-0.156-1.266-0.428c-0.534-0.4-0.838-1.011-0.838-1.673v-22.435l12.816-0.447V195.136z"/>
				</g>
				<g>
					<path fill="#FBC69F" d="M130.281,189.512l3.91,0.974c3.41,2.132,2.627,6.07-1.068,5.294
						C129.434,194.988,127.772,190.952,130.281,189.512z"/>
					<g  a:adobe-blending-mode="multiply">
						<path fill="#FBC69F"  a:adobe-blending-mode="normal" d="M130.457,190.184c0,0-1.118,0.884-0.233,2.528
							c0.885,1.635,4.485,3.465,5.798,1.811l0.225-0.011c-0.352,0.992-1.43,1.627-3.123,1.268c-3.34-0.71-5.012-4.076-3.453-5.781
							L130.457,190.184z"/>
					</g>
					<path fill="#CA713B" d="M130.176,189.338l0.205,0.359c-0.84,0.476-1.218,1.293-1.063,2.296c0.223,1.42,1.624,3.114,3.852,3.581
						c1.4,0.292,2.461-0.099,2.852-1.052c0.428-1.052-0.105-2.726-1.935-3.86l0.212-0.352c2.123,1.32,2.577,3.191,2.104,4.367
						c-0.293,0.729-1.063,1.4-2.367,1.4c-0.289,0-0.611-0.029-0.951-0.095c-2.52-0.535-3.932-2.415-4.166-3.933
						C128.732,190.894,129.19,189.901,130.176,189.338z"/>
				</g>
				<g>
					<path fill="#FBC69F" d="M130.338,184.97l2.697,0.535c2.188,0.094,5.01,1.098,4.667,3.473c-0.348,2.384-5.484,2.764-8.269,1.38
						C126.645,188.978,127.275,185.251,130.338,184.97z"/>
					<g  a:adobe-blending-mode="multiply">
						<path fill="#FBC69F"  a:adobe-blending-mode="normal" d="M128.004,186.856c-0.204,1.109,0.369,2.376,3.658,3.056
							c3.301,0.679,5.822,0.039,5.84-1.576l0.209,0.018c0.019,0.197,0.019,0.408-0.009,0.624c-0.348,2.384-5.484,2.764-8.269,1.38
							c-1.75-0.865-2.158-2.646-1.457-3.929C128.023,186.564,128.032,186.711,128.004,186.856z"/>
					</g>
					<path fill="#CA713B" d="M130.319,184.765l0.04,0.417c-1.555,0.137-2.287,1.16-2.461,2.063
						c-0.215,1.185,0.417,2.337,1.624,2.928c1.954,0.963,5.147,1.033,6.838,0.146c0.673-0.351,1.051-0.808,1.134-1.371
						c0.092-0.643-0.061-1.218-0.465-1.703c-0.862-1.041-2.633-1.479-4.004-1.535l0.02-0.41c1.459,0.058,3.357,0.534,4.299,1.683
						c0.482,0.572,0.672,1.265,0.563,2.033c-0.104,0.682-0.568,1.254-1.35,1.674c-0.865,0.446-2.063,0.672-3.297,0.672
						c-1.383,0-2.824-0.274-3.921-0.816c-1.372-0.682-2.104-2.004-1.843-3.378C127.741,185.845,128.852,184.899,130.319,184.765z"/>
				</g>
				<g>
					<path fill="#FBC69F" d="M135.058,179.833c2.452,0.251,3.956,2.101,3.892,3.853c-0.081,2.354-2.979,2.85-6.169,2.664
						c-3.19-0.185-5.185-2.345-4.563-4.602C128.842,179.491,132.605,179.578,135.058,179.833z"/>
					<g  a:adobe-blending-mode="multiply">
						<path fill="#FBC69F"  a:adobe-blending-mode="normal" d="M128.297,181.545c0.066,0.116,0.108,0.253,0.086,0.397
							c-0.134,0.973,0.109,2.783,4.057,3.191c3.953,0.42,7.046-0.818,5.818-3.191l0.225-0.02c0.32,0.555,0.492,1.168,0.467,1.763
							c-0.081,2.354-2.979,2.85-6.169,2.664c-3.19-0.185-5.185-2.345-4.563-4.602C128.239,181.672,128.269,181.612,128.297,181.545z
							"/>
					</g>
					<path fill="#CA713B" d="M128.015,181.688c-0.263,0.974-0.076,1.978,0.523,2.824c0.848,1.197,2.397,1.935,4.231,2.04
						c0.412,0.032,0.801,0.04,1.18,0.04l0,0c3.385,0,5.141-0.972,5.204-2.898c0.069-1.779-1.439-3.794-4.075-4.066
						c-0.825-0.088-1.559-0.126-2.228-0.126C130.039,179.502,128.415,180.239,128.015,181.688z M128.415,181.798
						c0.351-1.244,1.838-1.89,4.436-1.89c0.659,0,1.379,0.05,2.188,0.128c2.395,0.251,3.764,2.053,3.707,3.649
						c-0.057,1.654-1.675,2.5-4.797,2.5l0,0c-0.369,0-0.758-0.021-1.158-0.039c-1.711-0.097-3.141-0.789-3.921-1.877
						C128.344,183.527,128.179,182.652,128.415,181.798z"/>
				</g>
				<g>
					<rect x="106.477" y="156.756" fill="#FFFF00" width="4.006" height="6.616"/>
					<g  a:adobe-blending-mode="multiply">
						<rect x="106.477" y="161.016" fill="#FFAE00"  a:adobe-blending-mode="normal" width="4.006" height="2.356"/>
					</g>
					<path fill="#B86000" d="M110.698,156.55h-4.426v7.024h4.426V156.55z M110.277,163.167h-3.588v-6.198h3.588V163.167z"/>
				</g>
				<g>
					<rect x="110.482" y="154.751" fill="#9C4FA4" width="4.01" height="10.623"/>
					<g  a:adobe-blending-mode="multiply">
						<rect x="110.482" y="160.404" fill="#9C4FA4"  a:adobe-blending-mode="normal" width="4.01" height="4.97"/>
					</g>
					<path fill="#3D003D" d="M114.705,154.547h-4.428v11.031h4.428V154.547z M114.287,165.172h-3.589v-10.207h3.589V165.172z"/>
				</g>
				<g>
					<path fill="#FBC69F" d="M218.361,228.973c-1.153,5.041-6.779,11.508-11.783,13.036c-3.027-2.542-5.686-5.097-6.993-6.927
						c5.757-5.089,14.527-10.187,14.527-10.187C214.874,225.909,216.459,227.376,218.361,228.973z"/>
					<g  a:adobe-blending-mode="multiply">
						<path fill="#FBC69F"  a:adobe-blending-mode="normal" d="M208.973,231.675l-2.593-1.817c4.115-2.86,7.732-4.962,7.732-4.962
							c0.762,1.014,2.347,2.48,4.249,4.077c-0.369,1.614-1.197,3.375-2.316,5.069C213.068,232.19,210.212,231.035,208.973,231.675z"
							/>
					</g>
					<path fill="#CA713B" d="M199.447,234.927l-0.139,0.125l0.104,0.155c1.246,1.732,3.746,4.205,7.032,6.957l0.085,0.068
						l0.109-0.029c4.92-1.498,10.716-7.91,11.92-13.185l0.031-0.123l-0.098-0.079c-2.121-1.779-3.535-3.141-4.215-4.038l-0.11-0.153
						l-0.155,0.095C213.918,224.767,205.158,229.875,199.447,234.927z M199.861,235.112c5.258-4.602,13.006-9.244,14.201-9.944
						c0.719,0.907,2.085,2.208,4.07,3.884c-1.236,5.095-6.768,11.216-11.511,12.724
						C203.543,239.197,201.098,236.784,199.861,235.112z"/>
				</g>
				<g>
					<path fill="#6F4747" d="M212.504,216.442c0,0,3.635,6.078,4.326,8.202c0.685,2.13-16.414,12.589-18.666,12.148
						c-2.251-0.438-8.726-14.057-12.525-22.034c-3.799-7.986-4.385-14.786-4.385-14.786l16.91-4.1L212.504,216.442z"/>
					<g  a:adobe-blending-mode="multiply">
						<path fill="#6F4747"  a:adobe-blending-mode="normal" d="M207.896,226.197l-11.898-14.378l7.637-8.094l8.869,12.717
							c0,0,3.635,6.078,4.326,8.202c0.314,0.98-3.141,3.725-7.176,6.362C210.82,229.148,208.982,225.653,207.896,226.197z"/>
					</g>
					<path fill="#140000" d="M185.824,214.659l0.066,0.148c3.557,7.46,10.172,21.373,12.313,21.783
						c1.725,0.358,14.633-7.171,17.823-10.771c0.638-0.72,0.638-1.024,0.603-1.109c-0.672-2.081-4.268-8.105-4.296-8.151
						l-14.341-20.568l0.341-0.232l14.349,20.576c0.147,0.253,3.653,6.119,4.342,8.249c0.115,0.36-0.102,0.848-0.688,1.509
						c-2.983,3.367-15.53,10.927-18.04,10.927c-0.064,0-0.121-0.012-0.169-0.021c-2.165-0.416-7.414-11.109-12.612-22.015
						l-0.059-0.135c-3.771-7.922-4.398-14.788-4.405-14.857l0.411-0.04C181.463,200.018,182.088,206.818,185.824,214.659z"/>
				</g>
				<g>
					<path fill="#FBC69F" d="M183.716,214.759l16.952,13.648c0,0-4.428,1.586-5.011,4.253c-0.213,0.971-0.147,4.581,0.021,8.763
						c-3.801,2.979-16.446,3.2-20.004,0.227c-0.261-5.165-0.4-10.187-0.14-12.658C176.201,222.726,183.716,214.759,183.716,214.759z
						"/>
					<g  a:adobe-blending-mode="multiply">
						<path fill="#FBC69F"  a:adobe-blending-mode="normal" d="M190.771,235.002c0.136-6.878,3.031-8.53,0.612-10.728l1.212-2.376
							l8.073,6.509c0,0-4.428,1.586-5.011,4.253c-0.213,0.971-0.147,4.581,0.021,8.763c-1.037,0.819-2.733,1.421-4.718,1.813
							C190.872,240.238,190.726,237.271,190.771,235.002z"/>
					</g>
					<path fill="#CA713B" d="M175.332,228.973c-0.23,2.139-0.184,6.411,0.139,12.688l0.007,0.087l0.066,0.056
						c1.623,1.362,5.21,2.183,9.589,2.183l0,0c4.631,0,8.817-0.948,10.672-2.397l0.082-0.065l-0.006-0.107
						c-0.193-4.945-0.203-7.88-0.02-8.708c0.552-2.528,4.831-4.095,4.875-4.105l0.352-0.125l-17.391-14.001l-0.132,0.135
						C183.261,214.942,175.996,222.709,175.332,228.973z M175.738,229.01c0.607-5.672,7.006-12.881,8.003-13.97l16.519,13.298
						c-1.064,0.44-4.29,1.937-4.799,4.283c-0.191,0.856-0.191,3.784,0.009,8.707c-1.831,1.36-5.862,2.236-10.337,2.236l0,0
						c-4.159,0-7.688-0.769-9.252-2.023C175.563,235.345,175.516,231.12,175.738,229.01z"/>
				</g>
				<g>
					<path fill="#6F4747" d="M192.033,204.26l0.994-6.294l47.471-0.524c0,0,2.383,14.806-15.279,19.816
						c-17.662,5.01-23.048,16.784-25.679,14.525c-2.63-2.257-17.155-14.893-17.283-17.024
						C182.13,212.617,192.033,204.26,192.033,204.26z"/>
					<g  a:adobe-blending-mode="multiply">
						<path fill="#6F4747"  a:adobe-blending-mode="normal" d="M213.641,214.476c10.008-4.222,13.412-13.114,6.914-13.532
							l-1.051-3.27l20.994-0.232c0,0,2.383,14.806-15.279,19.816c-17.662,5.01-23.048,16.784-25.679,14.525
							c-1.022-0.875-3.845-3.317-6.917-6.107c0.205,0.076,0.404,0.152,0.59,0.26C196.919,228.01,203.632,218.698,213.641,214.476z"
							/>
					</g>
					<path fill="#140000" d="M192.033,204.26c-2.694,2.357-9.668,8.815-9.572,10.479c0.1,1.655,10.347,11.005,17.216,16.89
						c0.905,0.779,2.351-0.508,4.743-2.628c3.75-3.324,10.034-8.901,20.74-11.945c16.243-4.603,15.344-17.726,15.157-19.41
						l-47.286,0.526l-0.004-0.408l47.645-0.533l0.031,0.172c0.023,0.157,2.204,15.051-15.432,20.051
						c-10.617,3.017-16.854,8.55-20.578,11.861c-1.978,1.752-3.348,2.966-4.414,2.966c-0.315,0-0.603-0.107-0.869-0.34
						c-0.707-0.604-17.217-14.776-17.357-17.17c-0.057-0.984,1.697-3.085,3.74-5.196C188.289,207.004,192.033,204.26,192.033,204.26
						z"/>
				</g>
				<g>
					<path fill="#ED1C24" d="M183.887,150.12l6.928,2.384l-13.389,21.307c0,0-10.828-13.854-7.949-17.055
						C172.362,153.564,183.887,150.12,183.887,150.12z"/>
					<g  a:adobe-blending-mode="multiply">
						<path fill="#F15A24"  a:adobe-blending-mode="normal" d="M175.551,163.253c0,0,3.053,1.851,4.715-4.211l5.883,0.886
							l-8.723,13.883c0,0-9.618-12.319-8.302-16.403L175.551,163.253z"/>
					</g>
					<path fill="#C1272D" d="M183.827,149.927l0.118,0.388c-0.118,0.039-11.5,3.462-14.313,6.585
						c-2.535,2.804,6.383,14.722,7.773,16.55l13.236-21.061l0.346,0.223l-13.547,21.559l-0.181-0.233
						c-0.446-0.574-10.896-14.03-7.933-17.317C172.213,153.419,183.353,150.061,183.827,149.927z"/>
				</g>
				<g>
					<path fill="#ED1C24" d="M225.466,142.854c0,0,6.64,2.51,9.396,14.594c2.757,12.092,3.633,21.605,8.896,30.245
						c5.259,8.65-0.254,14.913-14.658,13.786c-14.4-1.128-31.772-3.638-48.973,0.621c-3.09,0.837-1.252-9.185-2.673-11.187
						c-1.419-2.003-0.834-27.258,5.239-36.531C188.77,145.112,225.466,142.854,225.466,142.854z"/>
					<g  a:adobe-blending-mode="multiply">
						<path fill="#ED1C24"  a:adobe-blending-mode="normal" d="M223.959,197.549c-0.053-3.455-4.885-8.017-10.187-4.865
							l-0.854-8.171c0,0-0.068-3.095,0.207-8.085c1.738-0.068,3.991-4.437,4.127-13.516c0.135-9.075-4.193-11.002-15.75-9.696
							l-0.479-7.034c11.711-2.54,24.442-3.328,24.442-3.328s6.64,2.51,9.396,14.594c2.757,12.092,3.633,21.605,8.896,30.245
							c5.259,8.65-0.254,14.913-14.658,13.786c-14.4-1.128-31.772-3.638-48.973,0.621c-0.666,0.187-1.105-0.145-1.396-0.787
							c2.796-0.877,9.531-2.256,20.318-2.782C212.781,197.859,224.014,201.002,223.959,197.549z"/>
					</g>
					<path fill="#C1272D" d="M182.518,154.264c-6.072,9.272-6.682,34.725-5.232,36.768c0.529,0.748,0.582,2.869,0.627,4.921
						c0.075,3.144,0.146,6.401,1.87,6.401l0,0c0.124,0,0.263-0.018,0.398-0.048c6.475-1.606,13.538-2.385,21.579-2.385
						c7.314,0,14.289,0.622,21.037,1.219c2.186,0.193,4.246,0.376,6.291,0.544c1.117,0.087,2.203,0.126,3.234,0.126
						c6.455,0,10.992-1.742,12.768-4.905c1.42-2.517,1.018-5.738-1.158-9.316c-4.035-6.628-5.496-13.867-7.189-22.241
						c-0.516-2.54-1.044-5.167-1.678-7.939c-2.748-12.063-9.248-14.642-9.525-14.74l-0.038-0.018h-0.044
						C223.953,142.746,188.585,145.022,182.518,154.264z M182.869,154.489c5.846-8.923,41.055-11.325,42.565-11.424
						c0.544,0.235,6.64,3.086,9.226,14.43c0.633,2.771,1.162,5.398,1.678,7.939c1.699,8.414,3.167,15.682,7.238,22.363
						c2.098,3.445,2.492,6.521,1.154,8.904c-1.703,3.024-6.111,4.698-12.408,4.698c-1.02,0-2.099-0.05-3.207-0.126
						c-2.038-0.166-4.102-0.349-6.282-0.546c-6.755-0.604-13.745-1.223-21.073-1.223c-8.082,0-15.168,0.786-21.682,2.389
						c-0.107,0.033-0.209,0.05-0.296,0.05l0,0c-1.317,0-1.393-3.19-1.456-6.001c-0.053-2.208-0.098-4.301-0.706-5.149
						C176.196,188.782,176.852,163.673,182.869,154.489z"/>
				</g>
				<g>
					<path fill="#FBC69F" d="M190.002,157.447c-5.434,0.011-7.309-7.327-7.309-7.327l13.156,1.817
						C195.85,151.938,195.438,157.437,190.002,157.447z"/>
					<g  a:adobe-blending-mode="multiply">
						<path fill="#FBC69F"  a:adobe-blending-mode="normal" d="M186.04,150.587l0.157,2.142c0,0,1.242,2.119,3.371,2.52
							c2.131,0.388,3.574-1.899,1.886-1.928l0.064-1.982l4.331,0.6c0,0-0.411,5.499-5.848,5.51
							c-5.434,0.011-7.309-7.327-7.309-7.327L186.04,150.587z"/>
					</g>
					<path d="M189.992,157.242h0.01c5.178-0.01,5.621-5.106,5.637-5.322l0.414,0.029c-0.006,0.059-0.48,5.691-6.048,5.701h-0.013
						c-5.528,0-7.477-7.403-7.496-7.482l0.398-0.096C182.913,150.141,184.786,157.242,189.992,157.242z"/>
				</g>
				<g>
					<path fill="#FF0000" d="M190.002,156.074c3.654,0.243,4.152-3.695,4.152-3.695l4.6-0.313c0,0-2.443,8.698-9.186,7.822
						c-6.748-0.876-8.314-8.453-8.314-8.453l3.758,0.319C185.012,151.754,186.352,155.82,190.002,156.074z"/>
					<g  a:adobe-blending-mode="multiply">
						<path fill="#950000"  a:adobe-blending-mode="normal" d="M184.196,152.708l-0.086-1.029l0.901,0.075c0,0,1.34,4.066,4.99,4.32
							c0.369,0.021,0.704,0,1.016-0.049c-0.009,0.069-0.02,0.137-0.029,0.215C186.279,157,184.196,152.708,184.196,152.708z"/>
						<path fill="#950000"  a:adobe-blending-mode="normal" d="M183.068,155.228c0,0,2.303,4.076,7.287,3.728
							c4.987-0.34,6.227-5.557,6.227-5.557l-0.249-1.167l2.421-0.166c0,0-2.443,8.698-9.186,7.822
							c-3.355-0.437-5.428-2.529-6.668-4.523L183.068,155.228z"/>
					</g>
					<path fill="#5C0000" d="M185.209,151.687c0.01,0.04,1.334,3.94,4.807,4.174c3.416,0.234,3.917-3.356,3.935-3.512l0.408,0.048
						c-0.003,0.049-0.576,4.145-4.372,3.883c-3.367-0.232-4.85-3.618-5.12-4.342l-3.345-0.27c0.359,1.342,2.265,7.268,8.069,8.016
						c6.49,0.849,8.937-7.587,8.962-7.676l0.397,0.105c-0.022,0.09-2.327,8.048-8.448,8.048c-0.312,0-0.634-0.021-0.961-0.07
						c-6.813-0.884-8.473-8.54-8.491-8.609l-0.054-0.271l4.168,0.341L185.209,151.687z"/>
				</g>
				<g>
					<path fill="#FBC69F" d="M173.05,174.111c5.765-0.193,3.321-2.946,5.51-3.26c2.194-0.312,4.445,2.822,5.2,5.322
						c7.951,0,16.471,2.004,16.656-1.313c3.885-1.314,21.859,1.373,21.859,1.373s0.186,12.715-9.335,16.594
						c-9.515,3.884-27.179-1.749-27.989-0.367c-3.259,5.635-8.834,4.572-13.965,4.941c-5.137,0.379-8.016-2.314-6.641-5.759
						c-3.881-1.498-1.692-5.01-1.692-5.01s-1.564-0.623-1.503-3.006c0.063-2.386,6.329-3.388,5.076-3.444
						c-7.328,0-8.52-3.387-8.02-5.079C158.709,173.42,167.29,174.296,173.05,174.111z"/>
					<g  a:adobe-blending-mode="multiply">
						<path fill="#FBC69F"  a:adobe-blending-mode="normal" d="M164.152,178.703c2.766,0.273,3.969,0.429,3.68,1.401
							c-0.294,0.982-2.838,1.429-4.562,2.294c-1.716,0.857-1.561,2.804-0.067,3.367c1.497,0.565,2.238,0,4.326,0.148
							c-0.678,1.03-2.705,1.73-3.586,1.73c-0.877,0-1.446,1.712,0.223,2.753c1.668,1.029,3.215,0.661,5.264,1.107
							c-2.049,2.054-4.493,0.507-4.472,1.919c0.024,1.402,1.567,2.577,6.622,2.449c5.053-0.115,9.836-0.632,11.625-4.425
							c1.785-3.794,10.277,1.615,23.01-0.292c12.729-1.905,13.621-15.489,7.558-14.945l-0.433-1.097
							c4.764,0.495,8.936,1.119,8.936,1.119s0.186,12.715-9.335,16.594c-9.515,3.884-27.179-1.749-27.989-0.367
							c-3.259,5.635-8.834,4.572-13.965,4.941c-5.137,0.379-8.016-2.314-6.641-5.759c-3.881-1.498-1.692-5.01-1.692-5.01
							s-1.564-0.623-1.503-3.006c0.063-2.386,6.329-3.388,5.076-3.444c-6.574,0-8.207-2.726-8.111-4.506
							c0.089,0.109,0.162,0.243,0.213,0.409C158.904,178.023,161.379,178.422,164.152,178.703z"/>
					</g>
					<path fill="#CA713B" d="M158.013,175.056c-0.267,0.886-0.046,1.937,0.59,2.782c0.82,1.099,2.665,2.395,6.823,2.539
						c-1.531,0.505-4.436,1.507-4.48,3.239c-0.055,1.995,0.975,2.831,1.426,3.102c-0.254,0.478-0.808,1.752-0.387,3.019
						c0.289,0.875,0.996,1.556,2.095,2.022c-0.478,1.323-0.36,2.56,0.341,3.602c0.98,1.448,3.035,2.284,5.623,2.284
						c0.311,0,0.631-0.01,0.957-0.037c0.901-0.059,1.834-0.089,2.738-0.107c4.252-0.099,8.649-0.193,11.389-4.943
						c0,0,0.078-0.115,0.711-0.115c0.986,0,2.734,0.271,4.938,0.622c3.644,0.573,8.637,1.361,13.357,1.361
						c3.662,0,6.572-0.457,8.889-1.4c9.543-3.893,9.461-16.665,9.461-16.791v-0.177l-0.176-0.028
						c-0.117-0.011-11.707-1.741-18.219-1.741c-1.746,0-3.006,0.126-3.736,0.378l-0.13,0.041l-0.01,0.144
						c-0.069,1.186-1.411,1.712-4.351,1.712c-1.487,0-3.273-0.124-5.155-0.261c-2.214-0.155-4.501-0.321-6.796-0.331
						c-0.711-2.208-2.742-5.351-5.039-5.351c-0.117,0-0.229,0.011-0.34,0.028c-0.949,0.137-1.152,0.711-1.354,1.255
						c-0.307,0.849-0.682,1.889-4.133,1.994c-0.581,0.021-1.218,0.029-1.953,0.029c-1.163,0-2.4-0.019-3.598-0.048
						c-1.156-0.02-2.354-0.038-3.449-0.038C159.965,173.84,158.271,174.18,158.013,175.056z M158.408,175.171
						c0.27-0.924,4.17-0.924,5.637-0.924c1.088,0,2.285,0.031,3.445,0.049c1.193,0.021,2.438,0.049,3.602,0.049
						c0.742,0,1.381-0.012,1.969-0.028c3.729-0.126,4.159-1.313,4.51-2.268c0.188-0.534,0.318-0.894,1.018-0.993
						c1.966-0.282,4.185,2.54,4.972,5.178l0.044,0.144h0.156c2.332,0,4.66,0.176,6.914,0.332c1.896,0.136,3.685,0.271,5.188,0.271
						c2.104,0,4.525-0.233,4.748-1.965c0.707-0.203,1.873-0.31,3.479-0.31c6.047,0,16.489,1.487,17.98,1.711
						c-0.025,1.536-0.525,12.688-9.201,16.228c-2.234,0.904-5.175,1.373-8.734,1.373c-4.688,0-9.663-0.787-13.297-1.362
						c-2.223-0.351-3.977-0.623-4.998-0.623c-0.604,0-0.936,0.097-1.064,0.32c-2.625,4.544-6.715,4.633-11.045,4.737
						c-0.907,0.021-1.848,0.041-2.761,0.107c-2.876,0.215-5.191-0.573-6.207-2.072c-0.653-0.964-0.729-2.139-0.228-3.404
						l0.081-0.194l-0.194-0.078c-1.09-0.417-1.777-1.04-2.049-1.849c-0.457-1.372,0.447-2.84,0.457-2.861l0.134-0.203l-0.229-0.098
						c-0.061-0.019-1.43-0.612-1.373-2.803c0.038-1.497,3.051-2.488,4.342-2.916c0.779-0.254,0.923-0.304,0.895-0.525
						c-0.027-0.197-0.256-0.215-0.36-0.215c-4.563,0-6.49-1.295-7.302-2.384C158.379,176.845,158.178,175.941,158.408,175.171z"/>
				</g>
				<g>
					<path fill="#ED1C24" d="M221.157,150.226c0,0,3.06,4.7,2.806,13.302c-0.246,8.599-0.28,13.494-1.502,13.592
						c-1.221,0.085-4.068-1.257-11.396-0.818c-7.327,0.438-11.335,0.127-12.025-1.003c-0.688-1.128,0.207-16.527,0.207-16.527
						L221.157,150.226z"/>
					<g  a:adobe-blending-mode="multiply">
						<path fill="#ED1C24"  a:adobe-blending-mode="normal" d="M217.252,162.912c0.08-5.233-1.328-8.084-4.738-9.31l8.644-3.377
							c0,0,3.06,4.7,2.806,13.302c-0.246,8.599-0.28,13.494-1.502,13.592c-1.056,0.077-3.336-0.926-8.688-0.908
							C215.374,175.242,217.129,170.899,217.252,162.912z"/>
					</g>
					<path fill="#C1272D" d="M199.247,158.771c-0.277,6.167-0.511,15.634-0.028,16.422c0.627,1.031,4.611,1.331,11.838,0.903
						c5.174-0.31,8.107,0.264,9.852,0.604c0.702,0.137,1.201,0.233,1.539,0.204c0.939-0.067,1.07-4.816,1.255-11.393l0.057-1.994
						c0.245-8.435-2.572-13.241-2.602-13.292c0,0,3.265,4.739,3.017,13.302l-0.059,1.995c-0.223,8.034-0.327,11.692-1.633,11.801
						c-0.051,0-0.1,0-0.146,0c-0.376,0-0.863-0.099-1.504-0.214c-1.732-0.342-4.626-0.916-9.755-0.605
						c-9.979,0.605-11.75-0.341-12.212-1.097c-0.414-0.674-0.377-5.752-0.259-10.149
						C198.684,162.164,199.247,158.771,199.247,158.771z"/>
				</g>
				<g>
					<path fill="#CA713B" d="M169.43,191.505c0,0-1.115,0.701-2.557,0.701c-0.813,0-1.725-0.087-2.59-0.37l0.127-0.388
						C166.7,192.188,169.4,191.515,169.43,191.505z"/>
				</g>
				<g>
					<path fill="#CA713B" d="M167.529,185.914c0,0-1.709,1.068-3.529,1.068c-0.465,0-0.943-0.038-1.395-0.146l0.098-0.407
						C164.764,186.935,167.503,185.931,167.529,185.914z"/>
				</g>
				<g>
					<path fill="#514FA4" d="M125.271,146.376v27.386c-3.658-0.263-6.928-1.927-9.242-4.485c-2.201-2.441-3.541-5.672-3.541-9.214
						c0-3.783,1.526-7.208,4.007-9.688C118.771,148.087,121.848,146.608,125.271,146.376z"/>
					<g  a:adobe-blending-mode="multiply">
						<path fill="#514FA4"  a:adobe-blending-mode="normal" d="M124.395,163.372c0-3.006,0-12.794,0-16.908
							c0.284-0.04,0.574-0.069,0.877-0.088v27.386c-3.658-0.263-6.928-1.927-9.242-4.485c-1.438-1.604-2.521-3.55-3.086-5.702
							C115.609,169.228,124.395,167.214,124.395,163.372z"/>
					</g>
					<path fill="#070440" d="M116.352,150.226c-2.627,2.629-4.068,6.12-4.068,9.837c0,3.465,1.274,6.783,3.601,9.35
						c2.411,2.685,5.747,4.3,9.369,4.552l0.223,0.011v-27.823l-0.223,0.008C121.886,146.404,118.724,147.844,116.352,150.226z
						 M112.691,160.063c0-3.6,1.402-6.996,3.949-9.545c2.248-2.265,5.235-3.648,8.418-3.92v26.939
						c-3.428-0.301-6.578-1.858-8.873-4.407C113.937,166.64,112.691,163.419,112.691,160.063z"/>
				</g>
				<g>
					<g>
						<path fill="#FF005F" d="M132.78,146.325v5.109h22.42v-5.087c5.745,0.104,10.974,2.334,14.911,5.961
							c2.309,2.121,4.168,4.729,5.439,7.647h-50.279v-13.58c0.322-0.028,0.631-0.051,0.963-0.051H132.78z"/>
						<g  a:adobe-blending-mode="multiply">
							<path fill="#BF005F"  a:adobe-blending-mode="normal" d="M171.648,157.65c-2.477-7.59-11.222-10.604-11.222-10.604l0,0
								c3.671,0.942,6.983,2.771,9.685,5.263c2.309,2.121,4.168,4.729,5.439,7.647h-50.279v-2.306
								C139.915,157.65,166.652,157.65,171.648,157.65z"/>
						</g>
						<path fill="#3D003D" d="M125.375,146.159l-0.316,0.022v13.979h50.807l-0.127-0.292c-1.28-2.949-3.127-5.535-5.487-7.716
							c-4.099-3.774-9.442-5.914-15.044-6.021h-0.211v5.096h-22.012v-5.115h-6.75C125.945,146.112,125.659,146.132,125.375,146.159z
							 M125.476,146.561c0.253-0.02,0.507-0.03,0.759-0.03h6.342v5.108h22.836v-5.09c5.422,0.158,10.584,2.248,14.559,5.916
							c2.242,2.053,4.013,4.504,5.262,7.276h-49.757V146.561z"/>
					</g>
				</g>
				<g>
					<g>
						<path fill="#514FA4" d="M177.426,168.974v4.837H162.09v-13.854h13.461C176.754,162.719,177.426,165.765,177.426,168.974z"/>
						<g  a:adobe-blending-mode="multiply">
							<path fill="#514FA4"  a:adobe-blending-mode="normal" d="M162.09,159.956v13.854h15.336v-4.837
								c0-3.209-0.672-6.255-1.875-9.018H162.09z M163.907,161.327h8.618c0,0,2.013,0.984,2.013,10.089c-4.796,0-10.631,0-10.631,0
								V161.327z"/>
						</g>
						<path fill="#070440" d="M175.684,159.741h-13.798v14.272h15.743v-5.04c0-3.152-0.636-6.215-1.891-9.104L175.684,159.741z
							 M175.413,160.161c1.198,2.791,1.807,5.759,1.807,8.813v4.631h-14.921v-13.443H175.413z"/>
					</g>
					<g>
						<path fill="#9C4FA4" d="M162.09,173.811h-35.855c-0.332,0-0.641-0.029-0.963-0.049v-13.806h36.818V173.811z"/>
						<g  a:adobe-blending-mode="multiply">
							<path fill="#9C4FA4"  a:adobe-blending-mode="normal" d="M125.271,159.956v13.806c0.322,0.02,0.631,0.049,0.963,0.049h35.855
								v-13.854H125.271z M126.711,161.327h33.432v10.089h-33.432V161.327z"/>
						</g>
						<path fill="#3D003D" d="M162.299,159.741h-37.24v14.206l0.389,0.027c0.25,0.022,0.515,0.039,0.787,0.039h36.064V159.741z
							 M161.886,173.604h-35.651c-0.252,0-0.506-0.019-0.759-0.038l0,0v-13.405h36.41V173.604z"/>
					</g>
				</g>
				<g>
					<path fill="#FBC69F" d="M146.348,174.579c1.522-0.721,4,0.437,4.127,4.163c0.123,3.727-4.01,6.674-5.795,4.66
						C142.895,181.407,145.414,175.026,146.348,174.579z"/>
					<g  a:adobe-blending-mode="multiply">
						<path fill="#FBC69F"  a:adobe-blending-mode="normal" d="M144.67,183.043c2.092,1.138,4.538-1.41,4.251-4.407
							c-0.28-2.988-2.179-4.407-3.196-2.87l-0.256,0.049c0.332-0.662,0.652-1.13,0.879-1.235c1.522-0.721,4,0.437,4.127,4.163
							c0.123,3.727-4.01,6.674-5.795,4.66c-0.135-0.146-0.244-0.33-0.33-0.525C144.453,182.925,144.559,182.984,144.67,183.043z"/>
					</g>
					<path fill="#CA713B" d="M144.066,179.308c-0.283,1.38-0.426,3.239,0.461,4.241c0.415,0.466,0.98,0.71,1.627,0.71
						c0.944,0,2.023-0.535,2.891-1.431c1.089-1.129,1.688-2.617,1.637-4.096c-0.105-3.132-1.846-4.563-3.406-4.563
						c-0.357,0-0.707,0.077-1.02,0.225C145.597,174.715,144.503,177.148,144.066,179.308z M144.471,179.395
						c0.484-2.402,1.568-4.439,1.966-4.633c0.251-0.115,0.538-0.174,0.839-0.174c1.373,0,2.896,1.294,2.993,4.164
						c0.044,1.36-0.511,2.742-1.522,3.795c-0.795,0.815-1.762,1.304-2.592,1.304c-0.531,0-0.979-0.196-1.318-0.584
						C144.232,182.594,144.102,181.214,144.471,179.395z"/>
				</g>
				<g>
					<path fill="#FBC69F" d="M131.283,173.986c3.569,0.056,6.727,0.72,6.57,3.249c-0.151,2.499-3.728,3.356-7.289,2.354
						C126.994,178.587,127.714,173.918,131.283,173.986z"/>
					<g  a:adobe-blending-mode="multiply">
						<path fill="#FBC69F"  a:adobe-blending-mode="normal" d="M128.59,175.862c0,0-0.341,2.073,2.974,2.754
							c3.319,0.681,6.656-0.34,5.931-2.383l0.172-0.109c0.14,0.331,0.214,0.691,0.188,1.111c-0.151,2.499-3.728,3.356-7.289,2.354
							c-2.043-0.575-2.675-2.337-2.191-3.738L128.59,175.862z"/>
					</g>
					<path fill="#CA713B" d="M128.032,176.368c-0.175,1.305,0.517,2.868,2.472,3.415c0.973,0.273,1.988,0.418,2.92,0.418h0.009
						c2.693,0,4.515-1.158,4.628-2.948c0.041-0.729-0.165-1.361-0.633-1.867c-0.95-1.03-2.963-1.555-6.145-1.616h-0.078
						C129.258,173.77,128.207,175.076,128.032,176.368z M128.442,176.417c0.157-1.109,1.071-2.227,2.763-2.227h0.068
						c3.064,0.048,4.98,0.533,5.852,1.477c0.388,0.429,0.561,0.935,0.523,1.558c-0.119,1.896-2.26,2.569-4.216,2.569h-0.009
						c-0.895,0-1.868-0.147-2.812-0.41C128.897,178.907,128.287,177.557,128.442,176.417z"/>
				</g>
				<g>
					<path fill="#79FFFF" d="M62.307,151.706c2.627-1.042,0.04-5.594,3.629-5.176c3.589,0.417,2.675,6.763,4.26,6.851
						c1.589,0.078,2.26-3.681,5.01-3.298c2.756,0.368,2.131,2.713,3.3,4.843c1.167,2.121,8.271,1.955,13.483,1.83
						c5.224-0.117,9.418,1.001,9.418,1.001s-17.093-0.204-20.478,1.636c-3.39,1.84-4.426-0.293-8.019,0.787
						c-3.59,1.09-5.047,6.81-8.637,4.595c-3.592-2.21,1.037-8.642-5.138-7.766c-6.177,0.875-12.531-5.381-10.4-7.561
						C50.865,147.279,59.68,152.757,62.307,151.706z"/>
					<path fill="#D4FFFE"  a:adobe-blending-mode="screen" d="M59.406,152.252c-1.291-1.091-8.502-3.211-9.27-2.502
						C49.365,150.462,60.576,153.233,59.406,152.252z"/>
					<g  a:adobe-blending-mode="multiply">
						<path fill="#6FCDFF"  a:adobe-blending-mode="normal" d="M48.735,149.448c0.456-0.458,1.207-0.573,2.13-0.475
							c-0.137,0.077-0.32,0.133-0.543,0.173c-1.957,0.331-1.871,2.171,1.33,4.407c3.201,2.239,5.225,2.277,8.697,2.17
							c3.475-0.105,3.445,2.892,3.611,5.536c0.176,2.646,2.17,3.377,3.646,1.167c1.481-2.198,3.65-4.436,7.967-3.637
							c4.332,0.788,1.842-0.419,6.59-0.876c4.736-0.467,17.158-0.507,17.158-0.507l1.287,0.35
							c-3.397-0.02-16.734,0.029-19.681,1.636c-3.39,1.84-4.426-0.293-8.019,0.787c-3.59,1.09-5.047,6.81-8.637,4.595
							c-3.592-2.21,1.037-8.642-5.138-7.766C52.959,157.884,46.604,151.628,48.735,149.448z"/>
					</g>
					<path fill="#458BFF" d="M48.59,149.313c-0.544,0.554-0.62,1.391-0.225,2.355c0.991,2.353,5.108,5.631,9.574,5.631
						c0.408,0,0.824-0.027,1.225-0.086c0.369-0.048,0.713-0.079,1.012-0.079c2.266,0,2.286,1.481,2.304,3.348
						c0.013,1.624,0.034,3.454,1.687,4.465c0.58,0.371,1.127,0.536,1.681,0.536c1.401,0,2.481-1.168,3.63-2.403
						c1.031-1.118,2.104-2.277,3.494-2.695c0.709-0.213,1.368-0.321,2.042-0.321c0.595,0,1.132,0.078,1.64,0.166
						c0.509,0.078,0.987,0.146,1.513,0.146c0.941,0,1.849-0.253,2.858-0.806c2.756-1.488,15.1-1.607,18.816-1.607
						c0.984,0,1.566,0.009,1.566,0.009l1.634,0.021l-1.586-0.428c-0.038-0.011-4.28-1.13-9.466-1.014
						c-1.273,0.03-2.713,0.069-4.143,0.069c-3.505,0-8.28-0.186-9.156-1.801c-0.369-0.66-0.553-1.331-0.729-1.995
						c-0.37-1.38-0.721-2.676-2.727-2.946c-0.132-0.02-0.271-0.028-0.408-0.028c-1.457,0-2.332,1.137-3.042,2.044
						c-0.526,0.691-0.987,1.283-1.54,1.283c-0.516-0.03-0.748-1.073-1-2.18c-0.419-1.857-0.983-4.408-3.279-4.671
						c-2.188-0.252-2.317,1.246-2.443,2.561c-0.105,1.129-0.212,2.198-1.291,2.626c-0.197,0.088-0.46,0.127-0.76,0.127
						c-1.273,0-3.2-0.671-5.244-1.392c-2.133-0.739-4.34-1.517-5.904-1.517C49.531,148.73,48.968,148.924,48.59,149.313z
						 M48.883,149.596c0.299-0.302,0.766-0.449,1.439-0.449c1.486,0,3.668,0.759,5.766,1.499c2.074,0.721,4.038,1.402,5.383,1.402
						c0.359,0,0.66-0.05,0.914-0.148c1.313-0.523,1.439-1.827,1.548-2.976c0.144-1.507,0.319-2.383,1.983-2.188
						c2.004,0.231,2.519,2.519,2.926,4.348c0.303,1.371,0.558,2.461,1.344,2.5h0.059c0.752,0,1.297-0.7,1.869-1.441
						c0.751-0.96,1.595-2.06,3.064-1.856c1.73,0.231,2.004,1.245,2.385,2.646c0.176,0.651,0.378,1.38,0.768,2.09
						c0.758,1.394,3.696,2.006,9.516,2.006c1.43,0,2.879-0.028,4.152-0.06c3.008-0.077,5.684,0.273,7.404,0.574
						c-5.032,0.021-15.896,0.214-18.573,1.664c-0.962,0.525-1.789,0.759-2.664,0.759c-0.497,0-0.953-0.069-1.44-0.145
						c-0.535-0.089-1.078-0.164-1.712-0.164c-0.713,0-1.413,0.104-2.159,0.327c-1.512,0.459-2.619,1.655-3.688,2.813
						c-1.08,1.168-2.094,2.276-3.319,2.276c-0.474,0-0.953-0.155-1.468-0.475c-1.459-0.898-1.468-2.531-1.488-4.117
						c-0.019-1.849-0.037-3.757-2.715-3.757c-0.319,0-0.68,0.021-1.07,0.08c-0.379,0.057-0.779,0.087-1.166,0.087
						c-4.299,0-8.253-3.132-9.194-5.38C48.514,150.945,48.338,150.147,48.883,149.596z"/>
				</g>
				<g>
					<path fill="#79FFFF" d="M51.557,161.806c3.629-0.038,6.918-2.541,7.764,0c0.924,2.753-3.191,2.003-5.381,4.038
						c-2.197,2.031-6.451,2.781-7.775-0.382C44.854,162.301,47.926,161.834,51.557,161.806z"/>
					<path fill="#D4FFFE"  a:adobe-blending-mode="screen" d="M46.558,163.633c-0.322-0.338,0.446-0.846,1.313-1.128
						c0.709-0.233,1.896-0.193,2.081-0.059C50.303,162.709,46.983,164.081,46.558,163.633z"/>
					<g  a:adobe-blending-mode="multiply">
						<path fill="#6FCDFF"  a:adobe-blending-mode="normal" d="M50.449,166.25c2.334-0.555,2.548-2.061,4.338-2.518
							c1.779-0.449,4.863-1.092,4.066-2.396l0.203-0.066c0.107,0.146,0.193,0.321,0.264,0.536c0.924,2.753-3.191,2.003-5.381,4.038
							c-2.197,2.031-6.451,2.781-7.775-0.382c-0.277-0.67-0.359-1.226-0.27-1.684c0.096,0.187,0.176,0.38,0.232,0.614
							C46.558,166.048,48.111,166.795,50.449,166.25z"/>
					</g>
					<path fill="#458BFF" d="M45.963,163.069c-0.418,0.623-0.408,1.449,0.018,2.471c0.605,1.471,1.879,2.266,3.584,2.266l0,0
						c1.572,0,3.306-0.688,4.513-1.818c0.845-0.779,2.003-1.137,3.024-1.458c1.099-0.34,2.034-0.631,2.404-1.343
						c0.205-0.399,0.205-0.865,0.01-1.45c-0.282-0.855-0.867-1.274-1.791-1.274c-0.688,0-1.508,0.214-2.441,0.468
						c-1.141,0.311-2.413,0.649-3.727,0.661C49.143,161.619,46.789,161.806,45.963,163.069z M46.303,163.295
						c0.73-1.102,3.063-1.267,5.254-1.285c1.371-0.012,2.676-0.37,3.832-0.683c0.917-0.242,1.703-0.458,2.336-0.458
						c0.75,0,1.166,0.304,1.401,0.993c0.154,0.477,0.163,0.847,0.01,1.128c-0.282,0.566-1.148,0.838-2.151,1.149
						c-1.072,0.331-2.273,0.701-3.189,1.549c-1.12,1.039-2.783,1.71-4.23,1.71l0,0c-1.529,0-2.669-0.719-3.207-2.014
						C45.98,164.488,45.963,163.799,46.303,163.295z"/>
				</g>
				<g>
					<path fill="#79FFFF" d="M46.127,157.465c-0.076,1.986-5.215,2.182-5.029-0.75C41.283,153.799,46.254,154.342,46.127,157.465z"
						/>
					<path fill="#D4FFFE"  a:adobe-blending-mode="screen" d="M42.732,155.422c0-0.408,0.777-0.388,1.477-0.156
						c0.588,0.195,1.297,0.838,1.326,1.031C45.594,156.668,42.723,155.977,42.732,155.422z"/>
					<g  a:adobe-blending-mode="multiply">
						<path fill="#6FCDFF"  a:adobe-blending-mode="normal" d="M41.175,156.258l0.203,0.032c0,0-0.048,1.536,1.763,1.691
							c1.799,0.154,3.189-0.651,2.182-2.17l0.164-0.116c0.416,0.438,0.67,1.029,0.641,1.77c-0.076,1.986-5.215,2.182-5.029-0.75
							C41.109,156.55,41.137,156.406,41.175,156.258z"/>
					</g>
					<path fill="#458BFF" d="M40.896,156.706c-0.043,0.624,0.143,1.17,0.534,1.588c0.502,0.533,1.34,0.845,2.306,0.845l0,0
						c1.254,0,2.556-0.562,2.594-1.664c0.027-0.76-0.213-1.428-0.72-1.955c-0.553-0.583-1.409-0.926-2.276-0.926
						C42.188,154.594,40.981,155.248,40.896,156.706z M41.301,156.737c0.088-1.285,1.147-1.733,2.033-1.733
						c0.761,0,1.501,0.3,1.988,0.808c0.416,0.438,0.629,1.003,0.602,1.653c-0.037,0.818-1.16,1.266-2.188,1.266l0,0
						c-0.838,0-1.586-0.271-2.008-0.72C41.412,157.668,41.275,157.242,41.301,156.737z"/>
				</g>
				<g>
					<path fill="#79FFFF" d="M34.707,142.133c1.848-0.127,5.795,1.509,5.795,3.104c0,1.389-2.691,2.44-5.076,1.265
						C33.053,145.334,32.856,142.259,34.707,142.133z"/>
					<path fill="#D4FFFE"  a:adobe-blending-mode="screen" d="M39.424,144.303c-1.294-1.09-4.191-2.384-4.963-1.672
						C33.695,143.34,40.592,145.285,39.424,144.303z"/>
					<g  a:adobe-blending-mode="multiply">
						<path fill="#6FCDFF"  a:adobe-blending-mode="normal" d="M40.185,144.799h0.214c0.056,0.147,0.104,0.291,0.104,0.438
							c0,1.389-2.691,2.44-5.076,1.265c-1.527-0.75-2.148-2.298-1.907-3.327c0.058,0.097,0.109,0.195,0.157,0.301
							C35.105,146.287,39.959,146.521,40.185,144.799z"/>
					</g>
					<path fill="#458BFF" d="M33.305,143.193c-0.221,1.099,0.418,2.695,2.033,3.493c0.701,0.35,1.48,0.535,2.258,0.535
						c1.713,0,3.114-0.896,3.114-1.984c0-1.743-3.933-3.318-5.788-3.318c-0.08,0-0.158,0.011-0.224,0.011
						C33.968,141.978,33.453,142.454,33.305,143.193z M33.703,143.271c0.066-0.319,0.283-0.876,1.023-0.935c0.057,0,0.127,0,0.195,0
						c1.865,0,5.367,1.537,5.367,2.9c0,0.845-1.236,1.565-2.693,1.565c-0.711,0-1.43-0.165-2.072-0.486
						C34.139,145.635,33.519,144.235,33.703,143.271z"/>
				</g>
				<g>
					<path fill="#79FFFF" d="M66.812,171.165c2.05,1.712-3.172,7.228-5.886,5.506C58.209,174.967,64.768,169.45,66.812,171.165z"/>
					<path fill="#D4FFFE"  a:adobe-blending-mode="screen" d="M61.595,174.366c-0.534-0.079,0.245-0.955,1.208-1.705
						c0.808-0.62,2.303-1.293,2.587-1.293C65.926,171.368,62.296,174.481,61.595,174.366z"/>
					<g  a:adobe-blending-mode="multiply">
						<path fill="#6FCDFF"  a:adobe-blending-mode="normal" d="M60.623,174.881c0,0,0.194,1.964,2.005,1.166
							c1.8-0.798,4.845-3.638,3.775-4.882l0.483,0.066c1.831,1.79-3.276,7.133-5.961,5.439c-0.661-0.42-0.771-1.062-0.524-1.781
							L60.623,174.881z"/>
					</g>
					<path fill="#458BFF" d="M60.164,174.955c-0.23,0.811,0,1.482,0.653,1.89c0.378,0.242,0.81,0.359,1.292,0.359l0,0
						c2.057,0,4.525-2.216,5.199-4.065c0.33-0.904,0.202-1.664-0.359-2.13c-0.294-0.253-0.683-0.379-1.15-0.379
						C63.833,170.63,60.722,173.021,60.164,174.955z M60.558,175.076c0.511-1.771,3.452-4.028,5.241-4.028
						c0.369,0,0.663,0.086,0.885,0.271c0.535,0.446,0.422,1.166,0.232,1.684c-0.62,1.703-2.955,3.793-4.807,3.793l0,0
						c-0.406,0-0.766-0.096-1.068-0.292C60.533,176.184,60.382,175.706,60.558,175.076z"/>
				</g>
				<g>
					<path fill="#79FFFF" d="M98.713,176.233c2.498,0.204,2.314,6.265-1.004,5.894C94.395,181.748,95.521,175.989,98.713,176.233z"
						/>
					<g  a:adobe-blending-mode="multiply">
						<path fill="#6FCDFF"  a:adobe-blending-mode="normal" d="M96.396,177.797c0,0-1.188,2.591,0.848,3.377
							c2.021,0.789,3.141-2.625,2.499-4.064l0.194-0.061c1.051,1.684,0.38,5.37-2.229,5.078c-2.132-0.243-2.42-2.703-1.517-4.367
							L96.396,177.797z"/>
					</g>
					<path fill="#458BFF" d="M95.512,179.413c-0.1,1.616,0.759,2.754,2.178,2.919c0.109,0.011,0.213,0.011,0.313,0.011l0,0
						c1.713,0,2.555-1.663,2.617-3.222c0.059-1.459-0.577-2.985-1.889-3.093C96.853,175.882,95.607,177.681,95.512,179.413z
						 M95.92,179.442c0.078-1.479,1.068-3.005,2.588-3.005c0.066,0,0.129,0,0.193,0.009c1.053,0.077,1.559,1.4,1.508,2.666
						c-0.059,1.401-0.758,2.821-2.207,2.821l0,0c-0.088,0-0.176,0-0.266-0.019C96.299,181.757,95.861,180.531,95.92,179.442z"/>
				</g>
				<g>
					<path fill="#79FFFF" d="M102.097,165.277c2.21-0.719,4.134,2.57,1.188,3.503C100.346,169.722,99.781,166.037,102.097,165.277z"
						/>
					<g  a:adobe-blending-mode="multiply">
						<path fill="#6FCDFF"  a:adobe-blending-mode="normal" d="M104.09,165.997l0.176-0.126c0.799,0.876,0.828,2.336-0.981,2.909
							c-1.526,0.496-2.413-0.271-2.588-1.225c0.089,0.057,0.175,0.116,0.265,0.193C102.575,169.13,104.986,167.079,104.09,165.997z"
							/>
					</g>
					<path fill="#458BFF" d="M100.481,167.545c0.157,0.973,0.905,1.595,1.909,1.595c0.299,0,0.619-0.049,0.961-0.155
						c1.159-0.379,1.77-1.179,1.613-2.132c-0.154-1.039-1.164-1.876-2.234-1.876c-0.235,0-0.469,0.03-0.699,0.106
						C100.766,165.502,100.336,166.646,100.481,167.545z M102.155,165.473c0.194-0.059,0.382-0.088,0.575-0.088
						c0.981,0,1.721,0.787,1.838,1.528c0.117,0.759-0.379,1.361-1.344,1.672c-0.301,0.098-0.584,0.146-0.834,0.146
						c-0.965,0-1.402-0.64-1.501-1.244C100.775,166.758,101.127,165.813,102.155,165.473z"/>
				</g>
				<g>
					<g>
						<path fill="#A4C69F" d="M195.678,241.423c0.292,7.328,0.9,16.452,0.9,16.452h-19.789c0,0-0.703-8.29-1.115-16.226
							C179.231,244.623,191.877,244.402,195.678,241.423z"/>
						<g  a:adobe-blending-mode="multiply">
							<path fill="#A4C69F"  a:adobe-blending-mode="normal" d="M190.96,243.235c1.984-0.392,3.681-0.993,4.718-1.813
								c0.292,7.328,0.9,16.452,0.9,16.452h-12.146c1.742-0.768,3.204-1.373,4.066-1.622
								C191.037,255.521,191.13,249.314,190.96,243.235z"/>
						</g>
						<path fill="#34672C" d="M175.811,241.493l-0.362-0.311l0.022,0.478c0.404,7.849,1.105,16.157,1.107,16.234l0.021,0.192h20.199
							l-0.017-0.221c-0.006-0.085-0.611-9.204-0.901-16.451l-0.013-0.399l-0.315,0.252c-1.787,1.393-5.879,2.297-10.42,2.297
							C180.909,243.564,177.34,242.768,175.811,241.493z M175.904,242.076c1.76,1.196,5.146,1.909,9.229,1.909
							c4.383,0,8.365-0.849,10.355-2.17c0.27,6.547,0.777,14.444,0.871,15.854H176.98
							C176.871,256.418,176.279,249.131,175.904,242.076z"/>
					</g>
				</g>
				<g>
					<g>
						<path fill="#009F4C" d="M168.416,260.209c0.893,2.064,4.035,4.214,6.326,2.822c3.541-2.246,5.049-6.255,5.607-8.22
							c1.786,0.72,4.037,1.448,7.082,1.479c6.678,0.09,7.652-3.502,9.686-3.084c1.955,0.397,2.646,8.999,2.85,14.775
							c-2.502,1.131-8.793,3.318-20.779,3.824c-12.025,0.508-17.268-0.212-19.201-0.622c0.02-2.471,0.543-5.417,1.647-7.121
							C163.095,261.807,165.806,261.127,168.416,260.209z"/>
						<g  a:adobe-blending-mode="multiply">
							<path fill="#009F4C"  a:adobe-blending-mode="normal" d="M189.034,256.446c-0.071-0.021-0.147-0.087-0.22-0.193
								c5.442-0.381,6.42-3.435,8.303-3.046c1.955,0.397,2.646,8.999,2.85,14.775c-1.813,0.821-5.621,2.192-12.141,3.076
								c-0.137-0.01-0.275-0.021-0.426-0.021C194.006,269.466,192.012,256.536,189.034,256.446z"/>
						</g>
						<path fill="#004018" d="M159.779,271.185v0.165l0.166,0.037c1.396,0.293,4.755,0.801,11.566,0.801l0,0
							c2.342,0,4.924-0.059,7.685-0.177c11.85-0.495,18.157-2.626,20.86-3.844l0.127-0.057l-0.01-0.138
							c-0.191-5.398-0.838-14.534-3.012-14.969c-0.122-0.029-0.243-0.042-0.363-0.042c-0.707,0-1.301,0.41-2.049,0.926
							c-1.35,0.933-3.19,2.196-7.089,2.196h-0.222c-3.087-0.037-5.367-0.804-7.012-1.466l-0.215-0.089l-0.062,0.225
							c-0.588,2.09-2.093,5.924-5.522,8.103c-0.44,0.274-0.947,0.41-1.496,0.41c-1.896,0-3.873-1.618-4.525-3.134l-0.076-0.184
							l-0.182,0.066c-0.314,0.107-0.633,0.213-0.943,0.321c-2.273,0.769-4.621,1.566-5.948,3.61
							C160.252,265.806,159.8,268.909,159.779,271.185z M160.197,271.018c0.047-2.73,0.671-5.408,1.605-6.846
							c1.25-1.928,3.43-2.657,5.735-3.446c0.258-0.086,0.516-0.176,0.768-0.263c0.779,1.588,2.841,3.222,4.827,3.222
							c0.621,0,1.2-0.159,1.717-0.469c3.43-2.188,4.99-5.942,5.63-8.133c1.667,0.662,3.935,1.381,6.949,1.419h0.232
							c4.028,0,6.006-1.368,7.321-2.273c0.838-0.575,1.414-0.966,2.096-0.817c1.338,0.271,2.366,5.799,2.682,14.437
							c-2.745,1.215-8.98,3.26-20.581,3.747c-2.752,0.116-5.336,0.175-7.667,0.175C165,271.77,161.672,271.311,160.197,271.018z"/>
					</g>
				</g>
				<g>
					<g>
						<path fill="#A4C69F" d="M218.361,228.973c5.009,4.203,12.2,9.282,12.2,9.282s-6.261,12.783-9.933,12.616
							c-2.342-0.106-8.762-4.434-14.051-8.862C211.582,240.48,217.208,234.014,218.361,228.973z"/>
						<g  a:adobe-blending-mode="multiply">
							<path fill="#A4C69F"  a:adobe-blending-mode="normal" d="M225.147,243.564c0.762-1.849-4.331-6.567-9.103-9.522
								c1.119-1.694,1.947-3.455,2.316-5.069c5.009,4.203,12.2,9.282,12.2,9.282s-2.073,4.229-4.535,7.789
								C225.271,245.055,224.891,244.179,225.147,243.564z"/>
						</g>
						<path fill="#34672C" d="M206.516,241.803l-0.363,0.117l0.292,0.244c5.194,4.34,11.726,8.795,14.174,8.911h0.077
							c3.771,0,9.795-12.208,10.051-12.726l0.076-0.155l-0.139-0.104c-0.075-0.051-7.246-5.129-12.191-9.273l-0.259-0.223
							l-0.073,0.329C216.979,234.09,211.324,240.342,206.516,241.803z M206.999,242.085c4.735-1.653,10.148-7.653,11.483-12.744
							c4.547,3.786,10.793,8.253,11.815,8.981c-0.724,1.448-6.304,12.333-9.603,12.333h-0.063
							C218.352,250.56,211.97,246.211,206.999,242.085z"/>
					</g>
				</g>
				<g>
					<path fill="#009F4C" d="M213.383,260.785c0.469-0.252,0.867-0.563,1.207-0.926l0,0c2.52-0.925,7.562,1.674,8.31-2.842
						c0.666-3.977,0.058-8.55-1.353-10.163c0.798-0.526,1.633-1.159,2.479-1.976c3.818-3.696,3.931-8.086,6.076-8.892
						c2.224-0.848,9.794,6.974,13.529,10.895c-1.271,3.395-5.017,12.034-11.898,17.035c-7.461,5.419-17.261,7.19-21.681,5.855
						C209.711,266.682,210.484,262.351,213.383,260.785z"/>
					<g  a:adobe-blending-mode="multiply">
						<path fill="#009F4C"  a:adobe-blending-mode="normal" d="M225.73,243.235c-0.039-0.013-0.109-0.041-0.191-0.099
							c2.387-3.22,2.745-6.467,4.563-7.149c2.224-0.848,9.794,6.974,13.529,10.895c-0.882,2.354-2.953,7.229-6.437,11.657
							c-0.068,0.046-0.131,0.075-0.199,0.124C241.398,252.127,228.81,239.889,225.73,243.235z"/>
					</g>
					<path fill="#004018" d="M209.85,269.801l0.012,0.127l0.133,0.038c0.953,0.294,2.131,0.44,3.5,0.44l0,0
						c4.453,0,11.934-1.651,18.36-6.324c6.907-5.02,10.672-13.659,11.971-17.134l0.045-0.125l-0.088-0.086
						c-4.899-5.139-10.833-11.023-13.304-11.023c-0.162,0-0.318,0.029-0.449,0.075c-1.105,0.422-1.688,1.678-2.424,3.261
						c-0.779,1.683-1.754,3.774-3.719,5.673c-0.738,0.721-1.542,1.353-2.453,1.966l-0.193,0.128l0.156,0.173
						c1.373,1.577,1.959,6.063,1.303,10.001c-0.38,2.276-1.886,2.588-3.462,2.588c-0.513,0-1.048-0.038-1.564-0.069
						c-0.503-0.038-1.028-0.076-1.516-0.076c-0.673,0-1.181,0.066-1.604,0.224h-0.055l-0.076,0.081
						c-0.338,0.349-0.717,0.637-1.141,0.864C210.396,262.163,209.479,266.468,209.85,269.801z M213.482,260.961
						c0.436-0.235,0.84-0.535,1.19-0.897h0.045l0.02-0.039c0.368-0.123,0.821-0.185,1.42-0.185c0.472,0,0.962,0.039,1.487,0.08
						c0.525,0.037,1.066,0.076,1.593,0.076c1.576,0,3.432-0.34,3.866-2.938c0.652-3.914,0.088-8.368-1.252-10.156
						c0.854-0.584,1.618-1.195,2.322-1.876c2.018-1.955,3.012-4.087,3.805-5.8c0.7-1.511,1.248-2.694,2.197-3.054
						c0.086-0.032,0.191-0.051,0.303-0.051c2.586,0,10.004,7.753,12.913,10.798c-1.327,3.522-5.044,11.931-11.78,16.822
						c-6.349,4.61-13.729,6.258-18.117,6.258c-1.267,0-2.355-0.128-3.254-0.383C209.932,266.438,210.801,262.419,213.482,260.961z"
						/>
				</g>
				<g>
					<g>
						<path fill="#FFFFFF" d="M216.511,250.871c0-1.723,2.245-2.172,5.036-4.017c1.41,1.613,2.019,6.187,1.353,10.163
							c-0.748,4.516-5.79,1.917-8.31,2.842l0,0C216.944,257.388,216.511,252.796,216.511,250.871z"/>
						<g  a:adobe-blending-mode="multiply">
							<path fill="#A4A4A4"  a:adobe-blending-mode="normal" d="M219.718,259.055c1.561-0.01,2.179-0.947,2.436-4.816
								c0.259-3.862-1.104-6.82-1.667-6.491l-0.039-0.213c0.355-0.204,0.72-0.43,1.1-0.68c1.41,1.613,2.019,6.187,1.353,10.163
								c-0.748,4.516-5.79,1.917-8.31,2.842l0,0c0.17-0.185,0.326-0.379,0.478-0.593C216.428,259.14,218.59,259.073,219.718,259.055
								z"/>
						</g>
						<path fill="#656565" d="M214.422,259.737l-0.318,0.326h0.614l0.02-0.039c0.368-0.123,0.821-0.185,1.42-0.185
							c0.472,0,0.962,0.039,1.487,0.08c0.525,0.037,1.066,0.076,1.593,0.076l0,0c1.576,0,3.432-0.34,3.866-2.938
							c0.674-4.047,0.047-8.675-1.401-10.342l-0.118-0.139l-0.15,0.11c-0.856,0.563-1.658,0.994-2.361,1.373
							c-1.605,0.865-2.765,1.496-2.765,2.81c0,0.226,0.005,0.498,0.015,0.797c0.049,2.211,0.132,5.898-1.85,8.017l-0.033,0.009
							L214.422,259.737z M215.16,259.499c1.697-2.264,1.617-5.72,1.57-7.841c-0.004-0.302-0.01-0.562-0.01-0.787
							c0-1.068,1.014-1.615,2.545-2.441c0.676-0.368,1.43-0.768,2.242-1.303c1.293,1.691,1.828,6.032,1.191,9.863
							c-0.38,2.276-1.886,2.588-3.462,2.588l0,0c-0.513,0-1.048-0.038-1.564-0.069C216.775,259.443,215.819,259.395,215.16,259.499z
							"/>
					</g>
				</g>
				<g>
					<path fill="#656565" d="M223.142,254.812l-0.029,0.417c-0.038-0.01-4.224-0.231-6.716,1.024l-0.186-0.372
						C218.807,254.58,222.963,254.802,223.142,254.812z"/>
				</g>
				<g>
					<path fill="#656565" d="M223.008,251.124c-0.045,0-4.51,0.506-6.36,1.635l-0.212-0.361c1.926-1.166,6.336-1.662,6.527-1.681
						L223.008,251.124z"/>
				</g>
				<g>
					<path fill="#FFFFFF" d="M179.188,271.807c11.986-0.506,18.277-2.693,20.779-3.824c0.055,1.51,0.074,2.831,0.074,3.756
						c0,4.445-37.824,4.682-39.162,3.639c-0.6-0.477-0.912-2.178-0.893-4.192C161.92,271.595,167.162,272.314,179.188,271.807z"/>
					<g  a:adobe-blending-mode="multiply">
						<path fill="#A4A4A4"  a:adobe-blending-mode="normal" d="M186.712,274.242c3.054-0.294,3.976-2.941,1.114-3.184
							c6.52-0.884,10.328-2.255,12.141-3.076c0.055,1.51,0.074,2.831,0.074,3.756c0,4.445-37.824,4.682-39.162,3.639
							c-0.172-0.145-0.321-0.387-0.449-0.71C166.401,275.719,183.827,274.521,186.712,274.242z"/>
					</g>
					<path fill="#656565" d="M159.783,270.931l-0.004,0.254c-0.016,2.237,0.344,3.861,0.973,4.35c0.664,0.524,7.32,0.563,9.35,0.563
						c10.424,0,30.148-0.914,30.148-4.359c0-0.621-0.01-1.942-0.076-3.766l-0.01-0.311l-0.276,0.128
						c-2.679,1.206-8.923,3.308-20.709,3.805c-2.752,0.116-5.336,0.175-7.667,0.175c-6.77,0-10.098-0.486-11.48-0.79
						L159.783,270.931z M160.191,271.438c1.534,0.3,4.885,0.749,11.32,0.749c2.342,0,4.924-0.059,7.685-0.177
						c11.462-0.487,17.731-2.48,20.576-3.716c0.054,1.654,0.063,2.861,0.063,3.443c0,2.559-15.32,3.943-29.734,3.943
						c-6.197,0-8.834-0.284-9.096-0.47C160.519,274.834,160.203,273.366,160.191,271.438z"/>
				</g>
				<g>
					<path fill="#FFFFFF" d="M175.395,253.411c1.35-0.314,2.824,0.534,4.955,1.4c-0.559,1.965-2.066,5.974-5.607,8.22
						c-2.291,1.392-5.434-0.758-6.326-2.822c0.966-0.337,1.908-0.71,2.775-1.203C174.406,257.166,172.903,253.993,175.395,253.411z"
						/>
					<g  a:adobe-blending-mode="multiply">
						<path fill="#A4A4A4"  a:adobe-blending-mode="normal" d="M175.027,261.648c2.704-2.04,4.742-6.855,4.044-7.149l0.081-0.195
							c0.376,0.167,0.773,0.333,1.197,0.508c-0.559,1.965-2.066,5.974-5.607,8.22c-2.291,1.392-5.434-0.758-6.326-2.822
							c0.182-0.066,0.357-0.123,0.535-0.193C170.451,261.827,172.627,263.451,175.027,261.648z"/>
					</g>
					<path fill="#656565" d="M168.35,260.016l-0.209,0.07l0.088,0.204c0.703,1.643,2.844,3.395,4.904,3.395l0,0
						c0.621,0,1.2-0.159,1.717-0.469c3.551-2.267,5.093-6.206,5.699-8.347l0.049-0.185l-0.17-0.066
						c-0.422-0.165-0.816-0.342-1.192-0.497c-1.274-0.554-2.281-0.981-3.239-0.981c-0.223,0-0.443,0.029-0.652,0.078
						c-1.313,0.3-1.618,1.301-1.939,2.353c-0.341,1.098-0.72,2.344-2.314,3.26C170.193,259.337,169.2,259.716,168.35,260.016z
						 M168.7,260.327c0.821-0.291,1.745-0.652,2.593-1.137c1.734-0.993,2.165-2.385,2.506-3.502
						c0.313-1.015,0.554-1.819,1.643-2.073c0.176-0.039,0.361-0.067,0.555-0.067c0.875,0,1.851,0.419,3.075,0.951
						c0.326,0.138,0.666,0.284,1.026,0.431c-0.625,2.129-2.129,5.805-5.469,7.927c-0.44,0.274-0.947,0.41-1.496,0.41
						C171.318,263.267,169.436,261.785,168.7,260.327z"/>
				</g>
				<g>
					<path fill="#656565" d="M176.547,261.416l-0.061,0.411c-0.143-0.021-3.564-0.528-5.33-2.765l0.327-0.255
						C173.143,260.91,176.512,261.407,176.547,261.416z"/>
				</g>
				<g>
					<path fill="#656565" d="M178.948,258.159l-0.058,0.408c-0.15-0.021-3.6-0.526-5.699-1.867l0.222-0.352
						C175.438,257.643,178.909,258.159,178.948,258.159z"/>
				</g>
				<g>
					<path fill="#FFFFFF" d="M231.733,263.917c6.882-5.001,10.628-13.641,11.898-17.035c0.996,1.042,1.726,1.809,2.003,2.063
						c1.313,1.19-2.316,12.648-12.963,19.038c-10.648,6.383-20.979,6.704-22.109,4.001c-0.242-0.582-0.418-1.354-0.51-2.211
						C214.473,271.107,224.272,269.336,231.733,263.917z"/>
					<g  a:adobe-blending-mode="multiply">
						<path fill="#A4A4A4"  a:adobe-blending-mode="normal" d="M223.906,271.059c8.098-2.715,13.235-7.405,15.09-9.623
							c1.804-2.148,0.545-4.289-1.801-2.896c3.483-4.429,5.555-9.304,6.437-11.657c0.996,1.042,1.726,1.809,2.003,2.063
							c1.313,1.19-2.316,12.648-12.963,19.038c-10.648,6.383-20.979,6.704-22.109,4.001
							C212.08,272.741,215.807,273.783,223.906,271.059z"/>
					</g>
					<path fill="#656565" d="M210.11,269.578l-0.297-0.086l0.036,0.309c0.094,0.886,0.275,1.666,0.523,2.258
						c0.463,1.1,2.242,1.733,4.893,1.733c5.079,0,11.627-2.112,17.512-5.634c9.185-5.507,12.975-14.525,13.295-17.782
						c0.078-0.801-0.023-1.335-0.301-1.587c-0.229-0.203-0.783-0.789-1.553-1.596l-0.666-0.701l-0.117,0.313
						c-1.283,3.442-5.01,11.982-11.824,16.937c-6.349,4.61-13.729,6.258-18.117,6.258C212.164,270,211.023,269.852,210.11,269.578z
						 M210.295,270.056c0.895,0.233,1.971,0.351,3.199,0.351c4.453,0,11.934-1.651,18.36-6.324
						c6.708-4.881,10.454-13.172,11.854-16.83l0.209,0.227c0.778,0.814,1.337,1.397,1.581,1.624
						c0.058,0.057,0.253,0.309,0.165,1.226c-0.316,3.211-4.047,12.053-13.1,17.472c-5.822,3.492-12.285,5.585-17.299,5.585
						c-2.437,0-4.125-0.554-4.513-1.49C210.553,271.41,210.393,270.776,210.295,270.056z"/>
				</g>
				<g>
					<path fill="#FFFF00" d="M155.2,146.348v5.087h-22.42v-5.109h21.987C154.914,146.325,155.053,146.335,155.2,146.348z"/>
					<g  a:adobe-blending-mode="multiply">
						<path fill="#FFA900"  a:adobe-blending-mode="normal" d="M133.677,146.325v3.602h20.565v-3.602h0.525
							c0.146,0,0.285,0.01,0.433,0.022v5.087h-22.42v-5.109H133.677z"/>
					</g>
					<path fill="#E04C00" d="M154.768,146.112h-22.191v5.526h22.836v-5.497l-0.205-0.01c-0.064,0-0.127,0-0.191-0.011
						C154.933,146.121,154.852,146.112,154.768,146.112z M132.984,146.53h21.783c0.072,0,0.146,0,0.22,0.011
						c0.006,0,0.009,0,0.009,0v4.687h-22.012V146.53z"/>
				</g>
			</g>
			<g>
				<g>
					<path fill="#C1272D" d="M282.711,110.039c-2.256,18.415-33.549,17.666-42.451,12.655c-8.902-5.01,21.91-46.347,21.91-46.347
						S284.963,91.627,282.711,110.039z"/>
					<path fill="#C1272D"  a:adobe-blending-mode="multiply" d="M282.711,110.039c-2.256,18.415-33.549,17.666-42.451,12.655
						c-8.902-5.01,21.91-46.347,21.91-46.347S284.963,91.627,282.711,110.039z"/>
					<path fill="#C1272D" d="M262.003,76.227c-1.046,1.396-25.537,34.404-23.435,44.327c0.229,1.071,0.762,1.85,1.59,2.316
						c3.332,1.879,9.635,3.085,16.057,3.085l0,0c11.966,0,25.266-4.175,26.701-15.888c2.243-18.328-20.402-33.739-20.637-33.892
						l-0.158-0.11L262.003,76.227z M262.214,76.63c2.042,1.426,22.405,16.126,20.293,33.383
						c-1.405,11.446-14.501,15.532-26.292,15.532l0,0c-6.357,0-12.579-1.187-15.854-3.035c-0.734-0.408-1.186-1.08-1.391-2.042
						C236.981,111.068,260.33,79.183,262.214,76.63z"/>
				</g>
				<g>
					<path fill="#FBC69F" d="M149.397,79.689l2.343,32.984c0,0-8.982,3.504-14.092-8.435
						C132.529,92.298,137.125,77.685,149.397,79.689z"/>
					<g  a:adobe-blending-mode="screen">
						<path fill="#FBC69F"  a:adobe-blending-mode="normal" d="M136.721,93.582c-0.408,8.833,3.779,15.158,3.779,15.158
							l-0.164,0.102c-0.963-1.192-1.877-2.701-2.688-4.603c-4.129-9.637-1.938-21.004,5.515-23.991l-0.166,1.499
							C142.997,81.747,137.135,84.748,136.721,93.582z"/>
					</g>
					<path fill="#FBC69F"  a:adobe-blending-mode="multiply" d="M141.66,103.243c0,0-4.713-12.216,2.936-16.015
						c2.016,8.711,4.076,25.864,4.076,25.864s-5.004,0.398-7.712-3.809c3.292,2.057,6.622,3.216,6.151-0.851
						c-0.477-4.058-1.248-5.872-2.598-1.148c-0.668-1.412,1.168-3.674,0.906-7.302c-0.264-3.629-0.219-7.438-2.191-7.068
						C141.265,93.284,140.617,97.932,141.66,103.243z"/>
					<path fill="#CA713B" d="M149.435,79.485l-0.071,0.408c-4.294-0.705-7.875,0.607-10.358,3.785
						c-3.782,4.829-4.269,13.256-1.171,20.478c4.972,11.611,13.465,8.459,13.825,8.324l0.153,0.378
						c-0.035,0.021-1.266,0.479-3.069,0.479c-3.146,0-8.028-1.401-11.287-9.02c-3.147-7.354-2.649-15.95,1.224-20.893
						C141.265,80.117,144.982,78.756,149.435,79.485z"/>
				</g>
				<g>
					<path fill="#CA713B" d="M146.168,86.169l0.111,0.398c-2.1,0.608-3.657,1.849-4.615,3.683
						c-2.626,5.01-0.029,12.915-0.004,12.993c0,0-3.071-8.018-0.368-13.188C142.313,88.119,143.949,86.811,146.168,86.169z"/>
				</g>
				<g>
					<path fill="#CA713B" d="M147.01,103.106l0.102,0.404c-1.857,0.451-2.586,3.745-2.598,3.774
						C144.514,107.285,144.907,103.627,147.01,103.106z"/>
				</g>
				<g>
					<path fill="#FBC69F" d="M208.267,53.217c22.212,0,45.094,8.184,45.094,8.184l-4.671,52.587
						c0.661,12.718-19.214,37.263-49.942,39.267c-30.729,2.002-44.371-16.53-51.187-43.839c-6.813-27.309-1.335-48.015-1.335-48.015
						S186.056,53.217,208.267,53.217z"/>
					<g  a:adobe-blending-mode="screen">
						<path fill="#FBC69F"  a:adobe-blending-mode="normal" d="M147.561,109.415c-2.35-9.423-3.234-18.061-3.391-25.327l1.051-0.337
							c0,0,0.527,7.928,2.389,18.299c1.855,10.378,8.77,37.009,25.584,46.65c-0.047,0-0.092,0-0.141,0
							C159.578,141.725,152.074,127.491,147.561,109.415z"/>
					</g>
					<g  a:adobe-blending-mode="multiply">
						<path fill="#FBC69F"  a:adobe-blending-mode="normal" d="M146.226,61.4c0,0,39.83-8.184,62.041-8.184
							c22.212,0,45.094,8.184,45.094,8.184l-4.671,52.587c0.661,12.718-19.214,37.263-49.942,39.267
							c-14.997,0.971-25.926-2.939-33.978-10.383c1.246,0.914,2.619,1.928,4.16,3.057c15.166,11.148,42.721,5.262,59.562-7.337
							c16.842-12.606,15.636-27.089,15.636-27.089s0.846-11.528-4.674-19.37c-12.812-6.737-12.434-26.276-12.434-26.276
							s-2.957-1.236-6.051-1.445c-4.68,3.716-4.334,10.979-4.334,10.979s-4.748-3.548-5.283-9.603
							c-3.08,2.339-7.029,1.995-13.748,3.717c-6.717,1.716-11.168,8.322-11.168,8.322s-0.813-5.356,0.369-9.909
							c-7.193,8.453-19.424,7.473-19.424,7.473s4.75-4.028,5.016-7.473c-10.26,7.424-18.388,3.591-22.346,7.473
							c-3.965,3.881-3.502,14.544-3.502,14.544l-2.313-3.696C143.627,71.215,146.226,61.4,146.226,61.4z"/>
					</g>
					<g>
						<path fill="#CA713B" d="M182.508,113.657l-0.372-0.177c1.165-2.504-0.274-4.129-0.331-4.196
							C181.805,109.284,183.795,110.895,182.508,113.657z"/>
					</g>
					<path fill="#CA713B" d="M146.028,61.345c-0.06,0.21-5.417,21.074,1.331,48.12c7.516,30.12,22.43,44.138,46.948,44.138h0.004
						c1.446,0,2.941-0.049,4.451-0.144c13.697-0.896,26.786-6.462,36.866-15.674c8.41-7.686,13.619-17.036,13.265-23.808
						l4.685-52.72l-0.151-0.054c-0.228-0.078-23.168-8.19-45.16-8.19c-21.978,0-61.683,8.104-62.085,8.186l-0.125,0.026
						L146.028,61.345z M146.391,61.579c2.508-0.511,40.561-8.153,61.876-8.153c20.989,0,42.851,7.413,44.874,8.115l-4.654,52.428
						c0.346,6.694-4.813,15.906-13.135,23.513c-10.01,9.145-23.012,14.683-36.617,15.568c-1.5,0.096-2.986,0.146-4.423,0.146
						c-24.3,0-39.093-13.921-46.548-43.833C141.313,83.512,145.966,63.34,146.391,61.579z"/>
				</g>
				<g>
					<path fill="#FBB03B" d="M158.334,33.761c17.783-7.016,62.123,5.263,66.76,26.933c0,0-9.768,1.625-10.143,13.649
						c-4.89-4.134-4.389-10.895-4.389-10.895c-3.006,4.884-17.283,0.499-24.672,12.271c-1.127-4.008,0-10.02,0-10.02
						s-5.764,9.019-18.037,7.769c2.627-3.509,3.63-6.641,3.63-6.641s-5.888,4.261-15.28,4.635
						c-9.394,0.374-11.648,8.646-11.271,16.535c-2.002-4.509-3.005-8.46-3.005-8.46l-1.694,3.697c0,0-2.44-10.644,1.067-15.405
						C140.297,55.557,140.552,40.774,158.334,33.761z"/>
					<g opacity="0.7"  a:adobe-blending-mode="multiply">
						<path fill="#F7931E"  a:adobe-blending-mode="normal" d="M140.233,83.235l1.694-3.697c0,0,1.003,3.951,3.005,8.46
							c-0.378-7.89,1.877-16.161,11.271-16.535c9.393-0.374,15.28-4.635,15.28-4.635s-1.003,3.132-3.63,6.641
							c12.273,1.25,18.037-7.769,18.037-7.769s-1.127,6.012,0,10.02c7.389-11.772,21.666-7.388,24.672-12.271
							c0,0-0.501,6.761,4.389,10.895c0.375-12.024,10.143-13.649,10.143-13.649c-4.637-21.67-48.977-33.948-66.76-26.933
							c-17.782,7.014-18.037,21.796-17.033,34.069C137.793,72.592,140.233,83.235,140.233,83.235z M211.941,62.436
							c2.833-0.055,5.674,0.821,5.674,0.821s-3.872,4.231-3.559,8.051C212.094,68.778,211.425,65.373,211.941,62.436z
							 M188.123,62.246c0,0,16.096-1.45,20.241,0.189c-0.604,2.374-6.124,1.907-11.592,3.609c1.29-1.187,2.373-1.601,2.373-1.601
							s-10.059,2.17-12.331,7.691C186.095,67.957,188.123,62.246,188.123,62.246z M173.848,63.277c0,0,7.705-0.861,11.73-0.754
							c0,0-2.547,4.397-7.359,6.532c1.373,0.034,2.405-0.277,2.405-0.277s-4.296,3.513-10.659,3.648
							C172.299,69.779,173.848,63.277,173.848,63.277z M165.393,54.117l-18.301,6.372c-1.273-3.608-0.617-16.646,7.293-20.152
							c7.908-3.508,10.453,5.997,10.453,5.997L165.393,54.117z M140.418,76.638c0.36-0.602,3.017-4.04,8.895-6.775
							c5.879-2.732,16.944-6.085,21.111-5.725c0,0-5.172,4.816-12.945,5.57c-7.775,0.758-13.279,5.093-13.383,13.416
							c-1.303-2.306-2.13-6.091-2.13-6.091l-1.272,3.269C140.693,80.302,140.058,77.242,140.418,76.638z"/>
					</g>
					<path fill="#FBB03B" d="M141.086,67.772c-3.457,4.806-1.152,15.073-1.051,15.513l0.135,0.592l1.703-3.73
						c0.356,1.245,1.318,4.437,2.867,7.935l0.451,1.006l-0.055-1.099c-0.194-4.047,0.25-9.603,3.443-13.091
						c1.844-2.014,4.414-3.099,7.633-3.23c7.758-0.311,13.207-3.298,14.859-4.327c-0.41,1.061-1.461,3.442-3.385,6.001l-0.217,0.291
						l0.363,0.04c0.777,0.078,1.566,0.121,2.324,0.121c8.787,0,13.84-5.341,15.393-7.286c-0.268,1.811-0.749,6.114,0.14,9.271
						l0.128,0.448l0.248-0.394c4.441-7.083,11.344-8.247,16.895-9.18c3.312-0.559,5.996-1.009,7.385-2.569
						c0.021,1.814,0.452,7.019,4.469,10.414l0.328,0.277l0.012-0.427c0.365-11.703,9.875-13.436,9.971-13.455l0.217-0.034
						l-0.045-0.214c-3.853-18.008-34.23-29.064-54.311-29.064c-5.025,0-9.427,0.687-12.729,1.988
						c-8.059,3.182-13.188,8.144-15.686,15.188C140.414,54.867,140.58,61.507,141.086,67.772z M141.466,67.951l0.047-0.058
						l-0.009-0.078c-1.115-13.683,0.16-27.26,16.904-33.861c3.257-1.284,7.607-1.964,12.578-1.964
						c19.865,0,49.868,10.851,53.859,28.543c-1.428,0.331-9.539,2.681-10.086,13.366c-4.41-4.037-3.994-10.376-3.994-10.438
						l0.07-0.847l-0.449,0.725c-1.127,1.834-3.939,2.305-7.497,2.908c-5.524,0.93-12.371,2.084-16.916,8.968
						c-0.905-3.908,0.108-9.42,0.118-9.478l0.197-1.04l-0.573,0.89c-0.049,0.076-5.108,7.792-15.558,7.792
						c-0.625,0-1.273-0.029-1.928-0.082c2.463-3.376,3.44-6.377,3.451-6.408l0.191-0.597l-0.508,0.369
						c-0.057,0.038-5.954,4.229-15.172,4.593c-3.33,0.136-5.992,1.264-7.913,3.362c-3.013,3.287-3.653,8.312-3.593,12.302
						c-1.688-4.02-2.55-7.391-2.563-7.428l-0.145-0.566l-1.668,3.649C139.864,80.248,138.533,71.931,141.466,67.951z"/>
				</g>
				<g>
					<path fill="#FBB03B" d="M252.027,69.206c0,0-2.01,15.409-11.655,22.776c-14.521-9.954-11.646-29.79-11.646-29.79
						L252.027,69.206z"/>
					<g opacity="0.7"  a:adobe-blending-mode="multiply">
						<path fill="#F7931E"  a:adobe-blending-mode="normal" d="M240.372,91.982c9.646-7.367,11.655-22.776,11.655-22.776
							l-23.301-7.014C228.727,62.192,225.852,82.028,240.372,91.982z M231.488,67.577c2.773,0.617,10.045,2.957,12.937,5.569
							c-2.011,1.601-6.058,7.502-6.331,14.355C229.873,77.637,231.488,67.577,231.488,67.577z"/>
					</g>
					<path fill="#F7931E" d="M228.523,62.163c-0.032,0.199-2.727,20.076,11.732,29.988l0.125,0.082l0.117-0.086
						c9.603-7.336,11.709-22.756,11.732-22.912l0.02-0.174l-23.695-7.133L228.523,62.163z M228.902,62.463l22.891,6.89
						c-0.257,1.707-2.606,15.528-11.426,22.376C227.103,82.516,228.645,64.731,228.902,62.463z"/>
				</g>
				<g>
					<path fill="#FF0000" d="M158.999,21.822c29.563-19.876,64.132-13.025,85.509,3.672c21.372,16.701,21.879,46.071,18.703,51.594
						c-4.432,0.7-11.184-2.491-11.184-2.491s-20.377-14.7-54.111-13.863c-33.742,0.835-30.9,4.606-32.066-0.034
						c-1.172-4.642,2.879-24.055-10.395-22.179c-13.279,1.88-12.779,22.669-9.145,31.188c0.375,1.381-2.925,2.004-6.514,6.557
						C138.875,77.476,129.443,41.693,158.999,21.822z"/>
					<g  a:adobe-blending-mode="screen">
						<path fill="#FFC700"  a:adobe-blending-mode="normal" d="M158.999,21.822c7.745-5.209,15.831-8.575,23.935-10.42
							c-4.346,1.586-16.207,6.377-26.765,14.866c-13.199,10.63-20.438,29.211-16.923,49.121l0,0
							C137.271,69.785,132.695,39.504,158.999,21.822z"/>
					</g>
					<g display="none"  a:adobe-blending-mode="multiply">
						<path display="inline" fill="#FFC700"  a:adobe-blending-mode="normal" d="M145.697,68.651l0.166-0.097
							c0.144,0.404,0.291,0.792,0.447,1.153c0.375,1.381-2.925,2.004-6.514,6.557c-0.103,0.132-0.305-0.186-0.551-0.875
							C142.219,71.79,146.289,69.785,145.697,68.651z"/>
					</g>
					<g  a:adobe-blending-mode="multiply">
						<path fill="#C1272D"  a:adobe-blending-mode="normal" d="M174.621,60.096c1.855-0.199,20.347-1.839,33.033-1.415
							c12.697,0.424,26.037,7.175,27.416-13.46c1.369-20.63-21.32-38.376-52.795-33.662c23.047-5.477,46.305,1.494,62.232,13.936
							c21.372,16.701,21.879,46.071,18.703,51.594c-4.432,0.7-11.184-2.491-11.184-2.491s-20.377-14.7-54.111-13.863
							c-33.742,0.835-30.9,4.606-32.066-0.034c-0.408-1.621-0.181-5.034-0.276-8.723c1.235-0.149,2.719-0.297,4.479-0.388
							C176.035,51.262,177.223,56.398,174.621,60.096z"/>
					</g>
					<path fill="#C1272D" d="M158.889,21.647c12.031-8.09,25.358-12.19,39.606-12.19c16.407,0,33.229,5.788,46.138,15.872
						c11.66,9.112,16.567,21.399,18.63,30.106c2.313,9.733,1.879,18.702,0.128,21.755l-0.051,0.087l-0.097,0.015
						c-0.433,0.066-0.903,0.102-1.405,0.102l0,0c-4.323,0-9.846-2.588-9.934-2.633c-0.193-0.14-19.588-13.857-51.227-13.857
						c-0.914,0-1.841,0.015-2.758,0.034c-15.628,0.39-23.262,1.387-27.363,1.926c-1.442,0.189-2.4,0.311-3.044,0.311
						c-1.309,0-1.44-0.578-1.701-1.735c-0.044-0.204-0.099-0.433-0.162-0.691c-0.276-1.094-0.269-2.98-0.261-5.165
						c0.018-4.99,0.048-11.822-3.201-15.079c-1.582-1.587-3.834-2.185-6.703-1.777c-3.653,0.517-6.482,2.517-8.42,5.945
						c-2.461,4.354-3.061,10.265-2.637,15.555c-0.141,0.011-0.277,0.016-0.408,0.03c-0.424-5.364,0.188-11.368,2.684-15.791
						c2.002-3.545,4.934-5.612,8.723-6.146c3.007-0.429,5.38,0.208,7.059,1.891c3.365,3.383,3.336,10.313,3.316,15.373
						c-0.008,2.159-0.014,4.022,0.25,5.063c0.06,0.263,0.114,0.489,0.162,0.699c0.268,1.174,0.322,1.422,1.3,1.422
						c0.614,0,1.563-0.128,2.993-0.313c4.107-0.54,11.751-1.541,27.402-1.926c0.922-0.024,1.852-0.039,2.77-0.039
						c31.779,0,51.275,13.796,51.438,13.917c0.052,0.025,5.49,2.58,9.723,2.58c0.441,0,0.86-0.031,1.24-0.09
						c1.635-3,2.02-11.952-0.213-21.364c-2.048-8.643-6.922-20.839-18.486-29.876c-12.84-10.031-29.564-15.785-45.884-15.785
						c-14.165,0-27.416,4.076-39.378,12.123c-16.792,11.289-20.814,27.419-21.229,38.963c-0.292,8.05,1.255,14.159,1.846,15.054
						c1.847-2.306,3.634-3.614,4.825-4.483c0.531-0.388,0.922-0.688,1.189-0.939c0.1,0.098,0.176,0.213,0.229,0.346
						c-0.296,0.281-0.694,0.574-1.175,0.928c-1.194,0.873-2.997,2.19-4.841,4.525c-0.054,0.073-0.131,0.111-0.222,0.111
						c-0.129,0-0.383,0-0.85-1.527C136.273,66.386,134.33,38.162,158.889,21.647z"/>
				</g>
				<g>
					<path fill="#FBC69F" d="M186.738,114.406l-0.02,5.507c-6.178,2.967-10.016-1.353-8.427-4.777
						C179.879,111.71,186.738,114.406,186.738,114.406z"/>
					<g  a:adobe-blending-mode="screen">
						<path fill="#FBC69F"  a:adobe-blending-mode="normal" d="M178.292,115.136c1.587-3.426,8.446-0.729,8.446-0.729
							s-6.914-1.401-7.662,1.527c-0.75,2.928,3.007,5.701,7.643,3.979C180.541,122.88,176.703,118.561,178.292,115.136z"/>
					</g>
					<path fill="#CA713B" d="M186.738,114.406c-0.07-0.021-6.77-2.398-8.262,0.817c-0.662,1.42-0.32,3.095,0.863,4.261
						c1.697,1.674,4.455,1.839,7.379,0.429c0,0-1.659,1.36-3.781,1.36c-1.527,0-2.878-0.495-3.891-1.496
						c-1.303-1.294-1.679-3.143-0.941-4.729C179.75,111.492,186.738,114.406,186.738,114.406z"/>
				</g>
				<g>
					<path fill="#270000" d="M187.56,128.116c5.716-0.771,10.733-4.984,14.987-1.539c4.261,3.444,1.754,14.155-9.705,16.713
						c-11.461,2.57-18.645-4.026-18.184-9.28C175.117,128.747,181.519,128.932,187.56,128.116z"/>
					<g>
						<g>
							<path fill="#FF5454" d="M193.155,136.908c1.563-4.221,7.194-3.802,9.907-0.632c-1.727,3.045-5.061,5.867-10.221,7.014
								c-3.064,0.692-5.813,0.71-8.197,0.284C184.305,136.693,188.738,133.845,193.155,136.908z"/>
							<g  a:adobe-blending-mode="multiply">
								<path fill="#FF5454"  a:adobe-blending-mode="normal" d="M193.081,140.335c-2.359-3.134-6.175-2.882-8.295,0.496
									c0.811-4.838,4.592-6.54,8.369-3.923c1.563-4.221,7.194-3.802,9.907-0.632c-0.453,0.798-1.022,1.576-1.693,2.324
									C198.154,135.352,193.728,136.335,193.081,140.335z"/>
							</g>
							<path fill="#AB1515" d="M186.349,136.919c-1.372,1.438-2.054,3.804-1.913,6.663l0.01,0.164l0.162,0.031
								c1.072,0.193,2.195,0.294,3.328,0.294c1.599,0,3.267-0.197,4.949-0.577c4.671-1.04,8.353-3.57,10.357-7.12l0.072-0.125
								l-0.096-0.109c-1.335-1.557-3.428-2.529-5.453-2.529c-2.199,0-3.9,1.08-4.709,2.985c-1.123-0.738-2.297-1.117-3.395-1.117
								C188.391,135.479,187.244,135.974,186.349,136.919z M186.645,137.201c0.822-0.857,1.863-1.313,3.018-1.313
								c1.082,0,2.258,0.409,3.373,1.187l0.223,0.154l0.092-0.252c0.693-1.877,2.305-2.948,4.416-2.948
								c1.863,0,3.783,0.866,5.045,2.269c-1.968,3.376-5.513,5.786-10.02,6.8c-2.76,0.612-5.461,0.72-7.951,0.301
								C184.744,140.732,185.381,138.533,186.645,137.201z"/>
						</g>
					</g>
					<path fill="#CA713B" d="M174.455,133.99c-0.169,1.907,0.652,3.998,2.251,5.74c2.529,2.764,6.601,4.348,11.169,4.348
						c1.615,0,3.299-0.193,5.01-0.584c7.152-1.604,10.658-6.276,11.561-10.117c0.67-2.87-0.008-5.536-1.768-6.965
						c-1.146-0.924-2.43-1.381-3.921-1.381c-1.838,0-3.761,0.67-5.8,1.389c-1.738,0.604-3.543,1.236-5.426,1.5
						c-0.883,0.115-1.781,0.213-2.646,0.312C179.729,128.794,174.859,129.329,174.455,133.99z M174.862,134.02
						c0.38-4.319,4.866-4.815,10.065-5.379c0.871-0.1,1.774-0.195,2.66-0.322c1.92-0.252,3.744-0.895,5.506-1.507
						c2.004-0.701,3.898-1.362,5.663-1.362c1.392,0,2.589,0.418,3.663,1.283c1.635,1.323,2.257,3.834,1.623,6.547
						c-0.869,3.718-4.283,8.251-11.252,9.817c-1.674,0.37-3.33,0.563-4.916,0.563c-4.449,0-8.411-1.537-10.866-4.211
						C175.49,137.795,174.707,135.808,174.862,134.02z"/>
				</g>
				<g>
					<path fill="#AB1515" d="M193.352,136.969c-0.662,2.07-0.276,3.344-0.271,3.366c0,0-0.825-1.285-0.124-3.493L193.352,136.969z"
						/>
				</g>
				<g>
					<path fill="#FBC69F"  a:adobe-blending-mode="multiply" d="M196.729,147.756c3.634-1.09,5.093-3.123,5.107-3.141
						c0,0-0.885,3.384-4.668,4.523c-3.836,1.087-6.307-0.76-6.307-0.76C190.881,148.379,193.075,148.847,196.729,147.756z"/>
				</g>
				<g>
					<path fill="#CA713B" d="M196.729,147.756c3.634-1.09,5.093-3.123,5.107-3.141c0,0-1.207,2.402-4.99,3.532
						c-3.836,1.087-5.984,0.231-5.984,0.231C190.881,148.379,193.075,148.847,196.729,147.756z"/>
				</g>
				<g>
					<path fill="#FFFFFF" d="M165.582,52.316c-6.252,1.324-15.21,4.963-21.267,8.941c0.341,3.274,1.063,6.266,1.995,8.45
						c0.032,0.131,0.027,0.248,0.004,0.37c0,0,11.828-5.624,20.525-7.195c8.694-1.565,9.217-8.955,5.022-10.769
						C170.662,51.593,168.395,51.724,165.582,52.316z M165.889,56.598c0-0.665,0.544-1.21,1.209-1.21
						c0.672,0,1.214,0.545,1.214,1.21c0,0.671-0.542,1.211-1.214,1.211C166.433,57.809,165.889,57.269,165.889,56.598z
						 M149.105,63.613c0,0.67-0.539,1.21-1.21,1.21c-0.667,0-1.21-0.54-1.21-1.21c0-0.668,0.543-1.212,1.21-1.212
						C148.566,62.401,149.105,62.945,149.105,63.613z M155.26,61.103c0,0.667-0.544,1.212-1.211,1.212
						c-0.67,0-1.211-0.545-1.211-1.212c0-0.671,0.541-1.212,1.211-1.212C154.716,59.891,155.26,60.432,155.26,61.103z
						 M161.783,58.681c0,0.665-0.543,1.21-1.207,1.21c-0.672,0-1.211-0.545-1.211-1.21c0-0.672,0.539-1.212,1.211-1.212
						C161.24,57.469,161.783,58.009,161.783,58.681z"/>
					<path fill="#BDBDBD"  a:adobe-blending-mode="multiply" d="M144.315,61.258c0.278-0.18,0.563-0.359,0.849-0.539
						c0.168,3.258,1.793,7.203,1.793,7.203s11.209-5.297,20.064-6.99c8.859-1.691,6.713-6.814,6.713-6.814l0.24,0.019
						c1.394,2.91-0.459,7.546-7.135,8.747c-8.697,1.571-20.525,7.195-20.525,7.195c0.023-0.122,0.028-0.239-0.004-0.37
						C145.379,67.523,144.656,64.532,144.315,61.258z"/>
					<path fill="#5C5C5C" d="M155.464,61.103c0-0.783-0.636-1.42-1.415-1.42c-0.785,0-1.422,0.637-1.422,1.42
						c0,0.778,0.637,1.416,1.422,1.416C154.828,62.519,155.464,61.881,155.464,61.103z M155.051,61.103
						c0,0.554-0.449,1.001-1.002,1.001c-0.557,0-1.008-0.447-1.008-1.001c0-0.556,0.451-1.007,1.008-1.007
						C154.602,60.096,155.051,60.547,155.051,61.103z"/>
					<path fill="#5C5C5C" d="M165.685,56.598c0,0.783,0.636,1.42,1.413,1.42c0.783,0,1.42-0.637,1.42-1.42
						c0-0.777-0.637-1.416-1.42-1.416C166.32,55.182,165.685,55.82,165.685,56.598z M166.099,56.598
						c0-0.554,0.452-1.001,0.999-1.001c0.558,0,1.01,0.447,1.01,1.001s-0.452,1.006-1.01,1.006
						C166.551,57.604,166.099,57.151,166.099,56.598z"/>
					<path fill="#5C5C5C" d="M161.993,58.681c0-0.784-0.638-1.416-1.417-1.416c-0.783,0-1.42,0.632-1.42,1.416
						c0,0.783,0.637,1.415,1.42,1.415C161.355,60.096,161.993,59.464,161.993,58.681z M161.58,58.681
						c0,0.554-0.453,1.002-1.004,1.002c-0.555,0-1.007-0.448-1.007-1.002c0-0.555,0.452-1.007,1.007-1.007
						C161.127,57.674,161.58,58.126,161.58,58.681z"/>
					<path fill="#5C5C5C" d="M149.313,63.613c0-0.779-0.635-1.417-1.417-1.417c-0.784,0-1.414,0.638-1.414,1.417
						c0,0.781,0.63,1.42,1.414,1.42C148.678,65.033,149.313,64.395,149.313,63.613z M148.902,63.613
						c0,0.554-0.453,1.006-1.007,1.006s-1.005-0.452-1.005-1.006c0-0.556,0.451-1.003,1.005-1.003S148.902,63.058,148.902,63.613z"
						/>
					<path fill="#5C5C5C" d="M144.204,61.084l-0.108,0.067l0.016,0.126c0.335,3.241,1.051,6.266,2.01,8.513
						c0.014,0.059,0.014,0.142-0.012,0.244l-0.086,0.406l0.379-0.178c0.116-0.054,11.898-5.629,20.474-7.176
						c5.247-0.942,7.423-3.926,7.709-6.401c0.239-2.092-0.796-3.964-2.64-4.763c-1.188-0.515-3.4-0.443-6.408,0.195
						C158.961,53.508,149.986,57.279,144.204,61.084z M144.535,61.36c5.756-3.757,14.596-7.462,21.084-8.839
						c1.654-0.35,3.055-0.53,4.17-0.53c0.847,0,1.52,0.106,1.99,0.308c1.672,0.729,2.618,2.431,2.392,4.339
						c-0.267,2.33-2.344,5.137-7.369,6.047c-7.841,1.415-18.347,6.173-20.274,7.063c-0.005-0.031-0.009-0.063-0.018-0.093
						C145.564,67.445,144.868,64.512,144.535,61.36z"/>
				</g>
				<g>
					<path fill="#FBC69F" d="M254.527,70.462c14.904-0.374,20.542,24.798,11.15,37.576c-9.399,12.77-21.551,3.464-21.551,3.464
						l-4.674-19.37C239.453,92.132,239.623,70.836,254.527,70.462z"/>
					<g  a:adobe-blending-mode="screen">
						<path fill="#FBC69F"  a:adobe-blending-mode="normal" d="M268.273,85.39c-2.477-7.737-6.451-13.613-13.932-13.723
							c-7.477-0.102-13.602,9.185-14.889,20.465c0,0,0.17-21.296,15.074-21.67c13.235-0.336,19.16,19.472,13.746,32.863
							l-0.242-0.016C268.031,103.31,270.75,93.131,268.273,85.39z"/>
					</g>
					<path fill="#FBC69F"  a:adobe-blending-mode="multiply" d="M267.602,104.313v0.521c-0.549,1.133-1.19,2.204-1.924,3.205
						c-9.399,12.77-21.551,3.464-21.551,3.464C256.77,115.467,264.857,109.406,267.602,104.313z"/>
					<path fill="#FBC69F"  a:adobe-blending-mode="multiply" d="M265.594,89.816c0,0-1.553-10.993-7.699-12.423
						c-6.146-1.426-9.725,3.288-11.205,8.479c-1.477,5.194-0.441,13.862,0.521,16.68c3.711-2.477,9.092-2.02,11.13,4.339
						c0.389-4.786-2.495-8.396-6.313-8.6c-3.817-0.211-5.094-8.465-2-9.599c3.099-1.132,6.309,1.345,7.867,5.604
						c0.286-4.606-2.155-9.354-5.078-10.074c-2.924-0.725,1.408-7.291,6.326-4.403C264.061,82.71,265.594,89.816,265.594,89.816z"/>
					<path fill="#CA713B" d="M254.523,70.254c5.306-0.133,9.85,2.926,12.815,8.614c4.743,9.086,4.097,21.681-1.497,29.291
						c-2.861,3.893-6.279,6.16-10.157,6.733c-0.677,0.107-1.338,0.146-1.983,0.146c-1.986,0-3.82-0.42-5.356-0.955
						c-2.671-0.933-4.218-2.582-4.218-2.582c0.054,0.041,5.332,3.906,11.494,2.982c3.766-0.554,7.093-2.768,9.891-6.573
						c5.418-7.369,6.059-20.045,1.463-28.854c-2.889-5.541-7.311-8.526-12.443-8.391c-14.533,0.369-15.073,21.257-15.078,21.466
						c0,0-0.352-2.491,0.285-5.687C241.004,80.05,244.564,70.504,254.523,70.254z"/>
				</g>
				<g>
					<path fill="#CA713B" d="M254.74,76.979c9.418-0.929,10.854,12.837,10.854,12.837c-0.015-0.131-1.779-13.318-10.813-12.428
						c-2.442,0.239-4.436,1.536-5.939,3.852c-3.425,5.304-3.43,14.978-1.474,21.072c2.494-1.818,4.699-1.683,6.128-1.241
						c4.399,1.62,4.846,5.819,4.846,5.819c-0.87-2.704-2.729-4.728-4.972-5.424c-1.977-0.617-4.042-0.15-5.979,1.348l-0.229,0.176
						l-0.096-0.273c-2.121-6.299-2.166-16.139,1.43-21.699C250.064,78.591,252.167,77.229,254.74,76.979z"/>
				</g>
				<g>
					<path fill="#CA713B" d="M247.873,86.485c1.215-0.866,2.713-1.056,4.455-0.564c4.52,1.268,5.566,8.376,5.566,8.376
						c-0.012-0.068-1.408-6.776-5.678-7.981c-1.615-0.454-2.997-0.283-4.107,0.504c-1.336,0.944-1.896,2.541-1.949,3.383
						l-0.412-0.025C245.814,89.073,246.51,87.447,247.873,86.485z"/>
				</g>
				<g>
					<g>
						<g>
							<g>
								<g>
									<path d="M152.643,87.243c0,0,3.376-10.187,14.379-5.481C165.245,74.849,154.127,73.964,152.643,87.243z"/>
								</g>
								<g>
									<g>
										<g>
											<path fill="#FBC69F"  a:adobe-blending-mode="multiply" d="M158.462,85.098c-4.652,1.343-7.23,8.707-5.757,16.448
												c1.477,7.738,6.441,12.919,11.097,11.575c4.655-1.347,7.229-8.711,5.755-16.451
												C168.082,88.932,163.113,83.751,158.462,85.098z"/>
											<path d="M159.146,87.457c-4.719,1.344-7.462,8.232-6.131,15.382c1.327,7.15,6.229,11.859,10.942,10.517
												c4.716-1.342,7.462-8.227,6.134-15.381C168.758,90.822,163.859,86.115,159.146,87.457z"/>
											<path fill="#FFFFFF" d="M159.502,88.912c-4.302,1.23-6.777,7.632-5.531,14.305c1.248,6.67,5.748,11.083,10.052,9.857
												c4.303-1.236,6.778-7.638,5.528-14.308C168.306,92.094,163.805,87.682,159.502,88.912z"/>
											<path fill="#BCBCBC" d="M165.627,90.834c1.291,1.721,2.299,3.999,2.789,6.636c1.246,6.673-1.229,13.074-5.528,14.305
												c-2.136,0.608-4.315-0.17-6.124-1.92c1.984,2.635,4.652,3.958,7.259,3.22c4.303-1.236,6.778-7.638,5.528-14.308
												C168.923,95.4,167.471,92.614,165.627,90.834z"/>
											<g>
												<g>
													<path fill="#000442" d="M164.143,93.587c1.876-0.063,3.596,1.011,4.787,2.758c-0.083-0.248-0.172-0.496-0.268-0.738
														c-1.204-1.45-2.804-2.316-4.525-2.259c-3.535,0.122-6.279,4.077-6.114,8.82c0.163,4.742,3.168,8.502,6.702,8.38
														c1.485-0.053,2.832-0.783,3.877-1.96c0.115-0.253,0.219-0.504,0.318-0.769c-1.062,1.488-2.541,2.433-4.205,2.49
														c-3.409,0.117-6.299-3.53-6.453-8.153C158.102,97.542,160.738,93.703,164.143,93.587z"/>
													
														<radialGradient id="SVGID_1_" cx="-116.6055" cy="98.6533" r="6.9" gradientTransform="matrix(0.9996 -0.0265 0.0265 0.9996 277.9031 0.4352)" gradientUnits="userSpaceOnUse">
														<stop  offset="0" style="stop-color:#C5E8F8"/>
														<stop  offset="0.7312" style="stop-color:#0089DD"/>
														<stop  offset="0.8376" style="stop-color:#007FC5"/>
														<stop  offset="1" style="stop-color:#006D98"/>
														<a:midPointStop  offset="0" style="stop-color:#C5E8F8"/>
														<a:midPointStop  offset="0.5" style="stop-color:#C5E8F8"/>
														<a:midPointStop  offset="0.7312" style="stop-color:#0089DD"/>
														<a:midPointStop  offset="0.5379" style="stop-color:#0089DD"/>
														<a:midPointStop  offset="1" style="stop-color:#006D98"/>
													</radialGradient>
													<path fill="url(#SVGID_1_)" d="M168.93,96.345c-1.191-1.747-2.911-2.821-4.787-2.758
														c-3.404,0.116-6.041,3.955-5.881,8.569c0.154,4.623,3.044,8.271,6.453,8.153c1.664-0.058,3.144-1.002,4.205-2.49
														c0.135-0.365,0.262-0.739,0.363-1.128c0.389-1.378,0.596-2.899,0.596-4.484c0-1.124-0.109-2.276-0.328-3.44
														C169.395,97.921,169.188,97.112,168.93,96.345z"/>
													
														<radialGradient id="SVGID_2_" cx="-115.9805" cy="99.7725" r="5.7932" gradientTransform="matrix(0.9996 -0.0265 0.0265 0.9996 277.9031 0.4352)" gradientUnits="userSpaceOnUse">
														<stop  offset="0" style="stop-color:#FFFFFF"/>
														<stop  offset="0.0755" style="stop-color:#D5EDEC"/>
														<stop  offset="0.2005" style="stop-color:#95D2D0"/>
														<stop  offset="0.32" style="stop-color:#60BBB8"/>
														<stop  offset="0.4307" style="stop-color:#36A9A6"/>
														<stop  offset="0.5305" style="stop-color:#199C99"/>
														<stop  offset="0.6161" style="stop-color:#069591"/>
														<stop  offset="0.6774" style="stop-color:#00928E"/>
														<stop  offset="0.6866" style="stop-color:#008986"/>
														<stop  offset="0.7363" style="stop-color:#00605D"/>
														<stop  offset="0.787" style="stop-color:#003D3B"/>
														<stop  offset="0.8383" style="stop-color:#002221"/>
														<stop  offset="0.8904" style="stop-color:#000F0F"/>
														<stop  offset="0.9436" style="stop-color:#000404"/>
														<stop  offset="1" style="stop-color:#000000"/>
														<a:midPointStop  offset="0" style="stop-color:#FFFFFF"/>
														<a:midPointStop  offset="0.3641" style="stop-color:#FFFFFF"/>
														<a:midPointStop  offset="0.6774" style="stop-color:#00928E"/>
														<a:midPointStop  offset="0.2813" style="stop-color:#00928E"/>
														<a:midPointStop  offset="1" style="stop-color:#000000"/>
													</radialGradient>
													<path fill="url(#SVGID_2_)"  a:adobe-blending-mode="screen" d="M164.385,96.617c-2.659,0.088-4.707,3.127-4.585,6.791
														c0.123,3.658,2.38,6.548,5.038,6.458c2.656-0.091,4.709-3.132,4.588-6.789
														C169.298,99.42,167.041,96.524,164.385,96.617z"/>
												</g>
												
													<radialGradient id="SVGID_3_" cx="-122.6118" cy="95.9751" r="9.7707" gradientTransform="matrix(0.9996 -0.0265 0.0265 0.9996 277.9031 0.4352)" gradientUnits="userSpaceOnUse">
													<stop  offset="0" style="stop-color:#C5E8F8"/>
													<stop  offset="0.7312" style="stop-color:#0089DD"/>
													<stop  offset="0.8376" style="stop-color:#007FC5"/>
													<stop  offset="1" style="stop-color:#006D98"/>
													<a:midPointStop  offset="0" style="stop-color:#C5E8F8"/>
													<a:midPointStop  offset="0.5" style="stop-color:#C5E8F8"/>
													<a:midPointStop  offset="0.7312" style="stop-color:#0089DD"/>
													<a:midPointStop  offset="0.5379" style="stop-color:#0089DD"/>
													<a:midPointStop  offset="1" style="stop-color:#006D98"/>
												</radialGradient>
												<path fill="url(#SVGID_3_)"  a:adobe-blending-mode="screen" d="M160.786,104.304c-0.441-1.484-0.312-2.682,0-3.582
													l-2.067-1.107c-0.553,2.606-0.216,5.866,1.813,8.212c3.115,3.593,8.315,2.445,8.854-3.558
													C166.541,109.382,161.879,107.97,160.786,104.304z"/>
											</g>
										</g>
										
											<radialGradient id="SVGID_4_" cx="-123.5537" cy="95.5181" r="9.9408" gradientTransform="matrix(0.9996 -0.0265 0.0265 0.9996 277.9031 0.4352)" gradientUnits="userSpaceOnUse">
											<stop  offset="0" style="stop-color:#C5E8F8"/>
											<stop  offset="0.7312" style="stop-color:#0089DD"/>
											<stop  offset="0.8376" style="stop-color:#007FC5"/>
											<stop  offset="1" style="stop-color:#006D98"/>
											<a:midPointStop  offset="0" style="stop-color:#C5E8F8"/>
											<a:midPointStop  offset="0.5" style="stop-color:#C5E8F8"/>
											<a:midPointStop  offset="0.7312" style="stop-color:#0089DD"/>
											<a:midPointStop  offset="0.5379" style="stop-color:#0089DD"/>
											<a:midPointStop  offset="1" style="stop-color:#006D98"/>
										</radialGradient>
										<path fill="url(#SVGID_4_)"  a:adobe-blending-mode="screen" d="M158.783,99.322l2.105,1.113
											c0.471-1.144,1.207-1.731,1.207-1.731s-1.577-1.4-2.204-1.999C159.42,97.396,159.028,98.301,158.783,99.322z"/>
										<path d="M164.854,95.819c-2.555,0.088-4.52,3.117-4.398,6.771c0.127,3.65,2.297,6.538,4.85,6.451
											c2.554-0.083,4.522-3.113,4.398-6.767C169.576,98.622,167.406,95.732,164.854,95.819z"/>
									</g>
									<path fill="#9E9D9D"  a:adobe-blending-mode="screen" d="M160.646,92.915c-1.832,0.064-3.261,1.596-3.197,3.425
										c0.063,1.823,1.595,3.254,3.419,3.191c1.829-0.059,3.259-1.591,3.195-3.42C164,94.288,162.469,92.852,160.646,92.915z"/>
									<path fill="#9E9D9D"  a:adobe-blending-mode="screen" d="M167.483,105.243c-0.61,0.019-1.082,0.528-1.063,1.137
										c0.02,0.608,0.529,1.079,1.137,1.061c0.608-0.02,1.08-0.53,1.066-1.138C168.598,105.698,168.088,105.223,167.483,105.243z"
										/>
								</g>
							</g>
							<g>
								<g>
									<path d="M193.572,78.348c7.729-8.558,14.792-1.009,14.792-1.009C201.709,66.322,192.34,71.582,193.572,78.348z"/>
								</g>
								<g>
									<g>
										<path fill="#FBC69F"  a:adobe-blending-mode="multiply" d="M199.648,78.76c-5.201,1.503-8.086,9.739-6.436,18.393
											c1.648,8.649,7.203,14.447,12.406,12.938c5.201-1.503,8.086-9.738,6.438-18.392
											C210.406,83.051,204.853,77.256,199.648,78.76z"/>
										<path d="M200.416,81.401c-5.273,1.503-8.344,9.197-6.859,17.195c1.49,7.998,6.967,13.261,12.238,11.758
											c5.271-1.499,8.336-9.2,6.856-17.195C211.16,85.168,205.683,79.897,200.416,81.401z"/>
										<path fill="#FFFFFF" d="M200.813,83.026c-4.808,1.377-7.579,8.537-6.187,15.993c1.396,7.457,6.426,12.39,11.238,11.013
											c4.809-1.371,7.578-8.531,6.188-15.993C210.654,86.583,205.627,81.649,200.813,83.026z"/>
										<g>
											<path fill="#BCBCBC" d="M207.785,85.298c1.376,1.897,2.441,4.379,2.971,7.224c1.398,7.457-1.367,14.622-6.182,15.993
												c-2.433,0.696-4.924-0.223-6.971-2.27c2.23,3.077,5.286,4.64,8.262,3.787c4.809-1.371,7.578-8.531,6.188-15.993
												C211.361,90.356,209.785,87.293,207.785,85.298z"/>
										</g>
										<g>
											<g>
												<path fill="#000442" d="M206.004,88.25c2.096-0.072,4.013,1.133,5.348,3.089c-0.092-0.281-0.191-0.559-0.295-0.826
													c-1.352-1.625-3.135-2.593-5.067-2.531c-3.949,0.138-7.013,4.564-6.835,9.867c0.182,5.302,3.548,9.504,7.497,9.369
													c1.659-0.06,3.162-0.876,4.334-2.189c0.128-0.281,0.249-0.568,0.357-0.866c-1.186,1.669-2.838,2.725-4.702,2.788
													c-3.811,0.13-7.043-3.951-7.219-9.112C199.244,92.673,202.193,88.382,206.004,88.25z"/>
												
													<radialGradient id="SVGID_5_" cx="-74.6699" cy="95.4385" r="7.7158" gradientTransform="matrix(0.9996 -0.0265 0.0265 0.9996 277.9031 0.4352)" gradientUnits="userSpaceOnUse">
													<stop  offset="0" style="stop-color:#C5E8F8"/>
													<stop  offset="0.7312" style="stop-color:#0089DD"/>
													<stop  offset="0.8376" style="stop-color:#007FC5"/>
													<stop  offset="1" style="stop-color:#006D98"/>
													<a:midPointStop  offset="0" style="stop-color:#C5E8F8"/>
													<a:midPointStop  offset="0.5" style="stop-color:#C5E8F8"/>
													<a:midPointStop  offset="0.7312" style="stop-color:#0089DD"/>
													<a:midPointStop  offset="0.5379" style="stop-color:#0089DD"/>
													<a:midPointStop  offset="1" style="stop-color:#006D98"/>
												</radialGradient>
												<path fill="url(#SVGID_5_)" d="M211.352,91.339c-1.335-1.956-3.252-3.161-5.348-3.089
													c-3.811,0.132-6.76,4.423-6.582,9.588c0.176,5.161,3.408,9.242,7.219,9.112c1.864-0.063,3.517-1.119,4.702-2.788
													c0.149-0.403,0.29-0.822,0.407-1.255c0.432-1.544,0.662-3.24,0.662-5.021c0-1.251-0.117-2.544-0.359-3.848
													C211.877,93.095,211.639,92.195,211.352,91.339z"/>
												
													<radialGradient id="SVGID_6_" cx="-73.9697" cy="96.6904" r="6.4767" gradientTransform="matrix(0.9996 -0.0265 0.0265 0.9996 277.9031 0.4352)" gradientUnits="userSpaceOnUse">
													<stop  offset="0" style="stop-color:#FFFFFF"/>
													<stop  offset="0.0755" style="stop-color:#D5EDEC"/>
													<stop  offset="0.2005" style="stop-color:#95D2D0"/>
													<stop  offset="0.32" style="stop-color:#60BBB8"/>
													<stop  offset="0.4307" style="stop-color:#36A9A6"/>
													<stop  offset="0.5305" style="stop-color:#199C99"/>
													<stop  offset="0.6161" style="stop-color:#069591"/>
													<stop  offset="0.6774" style="stop-color:#00928E"/>
													<stop  offset="0.6866" style="stop-color:#008986"/>
													<stop  offset="0.7363" style="stop-color:#00605D"/>
													<stop  offset="0.787" style="stop-color:#003D3B"/>
													<stop  offset="0.8383" style="stop-color:#002221"/>
													<stop  offset="0.8904" style="stop-color:#000F0F"/>
													<stop  offset="0.9436" style="stop-color:#000404"/>
													<stop  offset="1" style="stop-color:#000000"/>
													<a:midPointStop  offset="0" style="stop-color:#FFFFFF"/>
													<a:midPointStop  offset="0.3641" style="stop-color:#FFFFFF"/>
													<a:midPointStop  offset="0.6774" style="stop-color:#00928E"/>
													<a:midPointStop  offset="0.2813" style="stop-color:#00928E"/>
													<a:midPointStop  offset="1" style="stop-color:#000000"/>
												</radialGradient>
												<path fill="url(#SVGID_6_)"  a:adobe-blending-mode="screen" d="M206.272,91.641c-2.971,0.102-5.267,3.504-5.128,7.59
													c0.141,4.09,2.663,7.324,5.634,7.223c2.972-0.104,5.268-3.497,5.127-7.589
													C211.766,94.773,209.244,91.539,206.272,91.641z"/>
											</g>
											
												<radialGradient id="SVGID_7_" cx="-81.3843" cy="92.4458" r="10.9243" gradientTransform="matrix(0.9996 -0.0265 0.0265 0.9996 277.9031 0.4352)" gradientUnits="userSpaceOnUse">
												<stop  offset="0" style="stop-color:#C5E8F8"/>
												<stop  offset="0.7312" style="stop-color:#0089DD"/>
												<stop  offset="0.8376" style="stop-color:#007FC5"/>
												<stop  offset="1" style="stop-color:#006D98"/>
												<a:midPointStop  offset="0" style="stop-color:#C5E8F8"/>
												<a:midPointStop  offset="0.5" style="stop-color:#C5E8F8"/>
												<a:midPointStop  offset="0.7312" style="stop-color:#0089DD"/>
												<a:midPointStop  offset="0.5379" style="stop-color:#0089DD"/>
												<a:midPointStop  offset="1" style="stop-color:#006D98"/>
											</radialGradient>
											<path fill="url(#SVGID_7_)"  a:adobe-blending-mode="screen" d="M202.25,100.232c-0.496-1.659-0.35-2.997-0.006-4.005
												l-2.309-1.234c-0.619,2.912-0.239,6.558,2.031,9.177c3.478,4.02,9.293,2.74,9.895-3.973
												C208.68,105.913,203.47,104.336,202.25,100.232z"/>
										</g>
									</g>
									
										<radialGradient id="SVGID_8_" cx="-82.4351" cy="91.9351" r="11.1097" gradientTransform="matrix(0.9996 -0.0265 0.0265 0.9996 277.9031 0.4352)" gradientUnits="userSpaceOnUse">
										<stop  offset="0" style="stop-color:#C5E8F8"/>
										<stop  offset="0.7312" style="stop-color:#0089DD"/>
										<stop  offset="0.8376" style="stop-color:#007FC5"/>
										<stop  offset="1" style="stop-color:#006D98"/>
										<a:midPointStop  offset="0" style="stop-color:#C5E8F8"/>
										<a:midPointStop  offset="0.5" style="stop-color:#C5E8F8"/>
										<a:midPointStop  offset="0.7312" style="stop-color:#0089DD"/>
										<a:midPointStop  offset="0.5379" style="stop-color:#0089DD"/>
										<a:midPointStop  offset="1" style="stop-color:#006D98"/>
									</radialGradient>
									<path fill="url(#SVGID_8_)"  a:adobe-blending-mode="screen" d="M200.008,94.662l2.354,1.25
										c0.528-1.28,1.348-1.937,1.348-1.937s-1.756-1.569-2.461-2.236C200.719,92.508,200.285,93.519,200.008,94.662z"/>
									<path d="M206.791,90.751c-2.85,0.097-5.053,3.483-4.91,7.568c0.141,4.081,2.564,7.312,5.416,7.215
										c2.857-0.098,5.063-3.488,4.922-7.569C212.08,93.883,209.648,90.654,206.791,90.751z"/>
									<path fill="#9E9D9D"  a:adobe-blending-mode="screen" d="M202.088,87.502c-2.042,0.072-3.644,1.784-3.574,3.827
										c0.074,2.045,1.784,3.644,3.828,3.571c2.041-0.067,3.643-1.782,3.57-3.823C205.846,89.033,204.133,87.433,202.088,87.502z"
										/>
									<path fill="#9E9D9D"  a:adobe-blending-mode="screen" d="M209.738,101.282c-0.682,0.024-1.215,0.595-1.196,1.274
										c0.026,0.682,0.597,1.212,1.278,1.187c0.675-0.024,1.21-0.593,1.185-1.27C210.982,101.794,210.412,101.262,209.738,101.282
										z"/>
								</g>
							</g>
						</g>
					</g>
				</g>
				<path fill="#D85400" d="M146.121,69.79c-1.013-2.379-1.813-5.803-2.102-9.534c0.131-0.015,0.268-0.02,0.408-0.03
					c0.293,3.684,1.076,7.074,2.082,9.429c0.131,0.481-0.082,0.86-0.532,1.279c-0.054-0.133-0.13-0.248-0.229-0.346
					C146.057,70.287,146.188,70.048,146.121,69.79z"/>
				<path display="none" fill="#292929"  a:adobe-blending-mode="screen" d="M242.152,73.492c0,0-4.451,5.813-4.471,10.936
					c-4.814-6.075-4.748-15.474-4.748-15.474s1.577,5.184,3.372,8.872c-0.687-4.611,1.239-7.368,1.239-7.368s-0.346,4.216,0.205,7.3
					C239.16,75.248,242.152,73.492,242.152,73.492z"/>
				<path display="none" fill="#292929"  a:adobe-blending-mode="screen" d="M216.322,63.826c0,0-1.703,2.813-2.008,4.281
					c-0.211-1.314,0.154-2.524,0.154-2.524s-0.726,1.648-0.748,3.866c-1.42-2.189-1.461-5.079-1.212-6.474
					c0.228,2.141,0.923,3.405,0.923,3.405s-0.049-2.229,0.926-3.561c-0.41,1.342-0.434,2.884-0.434,2.884l1.625-2.598l-0.563,2.253
					L216.322,63.826z"/>
				<path display="none" fill="#292929"  a:adobe-blending-mode="screen" d="M204.906,62.82c0,0-13.519,0.938-17.506,6.629
					c0.621-4.763,2.51-6.362,4.107-7.103c-1.273,1.208-1.7,2.172-1.7,2.172s2.787-2.015,7.12-2.518
					c-2.664,0.829-4.543,2.224-4.543,2.224S199.04,62.183,204.906,62.82z"/>
				<path display="none" fill="#292929"  a:adobe-blending-mode="screen" d="M182.934,63.613c0,0-1.046,3.672-6.645,6.046
					c1.781-1.523,2.659-2.866,2.659-2.866s-3.841,3.508-7.558,4.694c2.529-3.226,3.121-7.874,3.121-7.874s0.596,2.354-0.388,4.858
					c2.038-2.477,3.353-5.184,3.353-5.184s-0.152,1.982-0.617,3.428C179.436,65.66,182.934,63.613,182.934,63.613z"/>
				<path display="none" fill="#292929"  a:adobe-blending-mode="screen" d="M165.685,65.583c0,0-3.456,2.734-9.437,3.454
					c3.582-1.471,4.593-2.038,4.593-2.038s-4.415,0.803-7.634,2.528C155.889,66.973,162.888,65.534,165.685,65.583z"/>
				<path display="none" fill="#292929"  a:adobe-blending-mode="screen" d="M151.15,70.44c0,0-7.238,3.634-7.489,9.997
					c-0.664-2.13,0.294-5.745,1.622-6.945c-1.731,0.793-2.735,3.195-2.735,3.195S143.857,71.487,151.15,70.44z"/>
			</g>
		</g>
	</g>
</g>
</svg>
