<?xml version="1.0" encoding="utf-8"?>
<!-- Generator: Adobe Illustrator 16.0.0, SVG Export Plug-In . SVG Version: 6.00 Build 0)  -->
<!DOCTYPE svg PUBLIC "-//W3C//DTD SVG 1.1//EN" "http://www.w3.org/Graphics/SVG/1.1/DTD/svg11.dtd">
<svg version="1.1" xmlns="http://www.w3.org/2000/svg" xmlns:xlink="http://www.w3.org/1999/xlink" x="0px" y="0px" width="500px"
	 height="500px" viewBox="0 0 500 500" enable-background="new 0 0 500 500" xml:space="preserve">
<g id="Calque_6">
	<path fill="#F9D29C" stroke="#B17F4A" stroke-miterlimit="10" d="M432.208,335.818c34.556-57.439,45.125-114.496,23.608-127.442
		c-21.517-12.942-66.975,23.126-101.529,80.564c-34.549,57.438-45.118,114.497-23.605,127.44
		C352.201,429.325,397.659,393.256,432.208,335.818z"/>
</g>
<g id="Calque_6_-_copie">
	<path fill="#F9D29C" stroke="#B17F4A" stroke-miterlimit="10" d="M121.597,348.879c-53.811-39.973-85.295-88.716-70.322-108.875
		c14.973-20.156,70.735-4.098,124.546,35.874c53.804,39.974,85.291,88.719,70.319,108.873
		C231.166,404.91,175.402,388.85,121.597,348.879z"/>
</g>
<g id="Calque_9">
	<g>
		
			<rect x="242.975" y="350.795" transform="matrix(0.8192 0.5735 -0.5735 0.8192 285.8841 -85.6898)" fill="#C75A94" stroke="#000000" stroke-width="2" stroke-miterlimit="10" width="71.756" height="119.593"/>
		
			<rect x="297.894" y="338.883" transform="matrix(0.8192 0.5735 -0.5735 0.8192 258.8762 -120.8668)" fill="#951B81" stroke="#000000" stroke-width="2" stroke-miterlimit="10" width="46.507" height="22.587"/>
		<path fill="#FCEA10" stroke="#000000" stroke-width="2" stroke-miterlimit="10" d="M350.757,336.844
			c5.05-7.215,3.299-17.158-3.916-22.211c-7.213-5.047-17.157-3.295-22.206,3.92c-5.047,7.214-3.297,17.158,3.918,22.205
			C335.767,345.811,345.708,344.057,350.757,336.844z"/>
		
			<rect x="213.166" y="458.865" transform="matrix(0.8192 0.5735 -0.5735 0.8192 311.9168 -51.7775)" fill="#FFED00" stroke="#000000" stroke-width="2" stroke-miterlimit="10" width="49.83" height="19.932"/>
		
			<rect x="220.115" y="476.275" transform="matrix(0.8193 0.5734 -0.5734 0.8193 316.9818 -45.1298)" fill="#C75A94" stroke="#000000" stroke-width="2" stroke-miterlimit="10" width="19.93" height="7.973"/>
		<circle fill="#FCEA10" stroke="#000000" stroke-width="2" stroke-miterlimit="10" cx="280.759" cy="407.871" r="49.83"/>
	</g>
</g>
<g id="Calque_3">
	<g>
		<circle fill="#009FE3" stroke="#000000" stroke-width="2" stroke-miterlimit="10" cx="76.554" cy="209.23" r="45.968"/>
		<circle fill="#009FE3" stroke="#000000" stroke-width="2" stroke-miterlimit="10" cx="427.747" cy="208.618" r="45.968"/>
		<path fill="#009FE3" stroke="#000000" stroke-width="2" stroke-miterlimit="10" d="M427.746,160.814
			c0-30.465-24.697-55.162-55.162-55.162h-240.87c-30.464,0-55.161,24.697-55.161,55.162v90.096
			c0,30.465,24.697,55.162,55.161,55.162h240.87c30.465,0,55.162-24.697,55.162-55.162V160.814z"/>
	</g>
</g>
<g id="Calque_2">
</g>
<g id="Calque_1">
	<g>
		<path fill="#312783" stroke="#000000" stroke-width="2" stroke-miterlimit="10" d="M347.763,93.178
			c0-45.696-39.896-82.742-89.106-82.742h-13.014c-49.21,0-89.105,37.046-89.105,82.742v70.923
			c0,45.696,39.895,82.741,89.105,82.741h13.014c49.21,0,89.106-37.045,89.106-82.741V93.178z"/>
		<circle fill="#312783" stroke="#000000" stroke-width="2" stroke-miterlimit="10" cx="252.15" cy="248.152" r="137.903"/>
	</g>
</g>
<g id="Calque_8">
	<g>
	</g>
	<g>
	</g>
	<g>
	</g>
	<g>
	</g>
	<g>
	</g>
	<g>
	</g>
</g>
</svg>
