<?xml version="1.0" encoding="utf-8"?>
<!-- Generator: Adobe Illustrator 16.0.0, SVG Export Plug-In . SVG Version: 6.00 Build 0)  -->
<!DOCTYPE svg PUBLIC "-//W3C//DTD SVG 1.1//EN" "http://www.w3.org/Graphics/SVG/1.1/DTD/svg11.dtd">
<svg version="1.1" xmlns="http://www.w3.org/2000/svg" xmlns:xlink="http://www.w3.org/1999/xlink" x="0px" y="0px" width="500px"
	 height="500px" viewBox="0 0 500 500" enable-background="new 0 0 500 500" xml:space="preserve">
<g id="Calque_6">
	<path fill="#F9D29C" stroke="#B17F4A" stroke-miterlimit="10" d="M432.208,165.902c34.556,57.439,45.125,114.496,23.608,127.442
		c-21.517,12.942-66.975-23.126-101.529-80.564c-34.549-57.439-45.118-114.497-23.605-127.44
		C352.201,72.396,397.659,108.465,432.208,165.902z"/>
</g>
<g id="Calque_6_-_copie">
	<path fill="#F9D29C" stroke="#B17F4A" stroke-miterlimit="10" d="M121.597,152.842c-53.811,39.972-85.295,88.715-70.322,108.875
		c14.973,20.156,70.735,4.098,124.546-35.874c53.804-39.974,85.291-88.719,70.319-108.873
		C231.166,96.81,175.402,112.871,121.597,152.842z"/>
</g>
<g id="Calque_9">
	<g>
		
			<rect x="242.975" y="31.334" transform="matrix(0.8192 -0.5735 0.5735 0.8192 -1.8491 176.3936)" fill="#C75A94" stroke="#000000" stroke-width="2" stroke-miterlimit="10" width="71.756" height="119.592"/>
		
			<rect x="297.895" y="140.251" transform="matrix(0.8192 -0.5735 0.5735 0.8192 -28.8509 211.5648)" fill="#951B81" stroke="#000000" stroke-width="2" stroke-miterlimit="10" width="46.507" height="22.587"/>
		<path fill="#FCEA10" stroke="#000000" stroke-width="2" stroke-miterlimit="10" d="M350.757,164.877
			c5.05,7.214,3.299,17.158-3.916,22.21c-7.213,5.047-17.157,3.295-22.206-3.92c-5.047-7.213-3.297-17.158,3.918-22.205
			C335.767,155.91,345.708,157.664,350.757,164.877z"/>
		
			<rect x="213.166" y="22.923" transform="matrix(0.8192 -0.5735 0.5735 0.8192 24.1815 142.4847)" fill="#FFED00" stroke="#000000" stroke-width="2" stroke-miterlimit="10" width="49.83" height="19.933"/>
		
			<rect x="220.115" y="17.474" transform="matrix(0.8193 -0.5734 0.5734 0.8193 29.2779 135.8094)" fill="#C75A94" stroke="#000000" stroke-width="2" stroke-miterlimit="10" width="19.93" height="7.972"/>
		<circle fill="#FCEA10" stroke="#000000" stroke-width="2" stroke-miterlimit="10" cx="280.759" cy="93.85" r="49.83"/>
	</g>
</g>
<g id="Calque_3">
	<g>
		<circle fill="#E94E1B" stroke="#000000" stroke-width="2" stroke-miterlimit="10" cx="76.554" cy="292.49" r="45.968"/>
		<circle fill="#E94E1B" stroke="#000000" stroke-width="2" stroke-miterlimit="10" cx="427.747" cy="293.103" r="45.968"/>
		<path fill="#E94E1B" stroke="#000000" stroke-width="2" stroke-miterlimit="10" d="M427.746,340.906
			c0,30.465-24.697,55.162-55.162,55.162h-240.87c-30.464,0-55.161-24.697-55.161-55.162v-90.096
			c0-30.464,24.697-55.162,55.161-55.162h240.87c30.465,0,55.162,24.697,55.162,55.162V340.906z"/>
	</g>
</g>
<g id="Calque_2">
</g>
<g id="Calque_1">
	<g>
		<path fill="#E30613" stroke="#000000" stroke-width="2" stroke-miterlimit="10" d="M347.763,408.543
			c0,45.696-39.896,82.742-89.106,82.742h-13.014c-49.21,0-89.105-37.046-89.105-82.742V337.62
			c0-45.696,39.895-82.741,89.105-82.741h13.014c49.21,0,89.106,37.045,89.106,82.741V408.543z"/>
		<circle fill="#E30613" stroke="#000000" stroke-width="2" stroke-miterlimit="10" cx="252.15" cy="253.568" r="137.903"/>
	</g>
</g>
<g id="Calque_8">
	<g>
	</g>
	<g>
	</g>
	<g>
	</g>
	<g>
	</g>
	<g>
	</g>
	<g>
	</g>
</g>
</svg>
