<?xml version="1.0" encoding="utf-8"?>
<!-- Generator: Adobe Illustrator 16.0.0, SVG Export Plug-In . SVG Version: 6.00 Build 0)  -->
<!DOCTYPE svg PUBLIC "-//W3C//DTD SVG 1.1//EN" "http://www.w3.org/Graphics/SVG/1.1/DTD/svg11.dtd">
<svg version="1.1" xmlns="http://www.w3.org/2000/svg" xmlns:xlink="http://www.w3.org/1999/xlink" x="0px" y="0px" width="500px"
	 height="500px" viewBox="0 0 500 500" enable-background="new 0 0 500 500" xml:space="preserve">
<g id="Calque_6">
	<path fill="#F9D29C" stroke="#B17F4A" stroke-miterlimit="10" d="M432.208,165.902c34.556,57.439,45.125,114.496,23.608,127.442
		c-21.517,12.942-66.975-23.126-101.529-80.564c-34.549-57.438-45.118-114.497-23.605-127.44
		C352.201,72.396,397.659,108.465,432.208,165.902z"/>
</g>
<g id="Calque_6_-_copie">
	<path fill="#F9D29C" stroke="#B17F4A" stroke-miterlimit="10" d="M121.597,152.842c-53.811,39.973-85.295,88.716-70.322,108.875
		c14.973,20.156,70.735,4.098,124.546-35.874c53.804-39.974,85.291-88.719,70.319-108.873
		C231.166,96.811,175.402,112.871,121.597,152.842z"/>
</g>
<g id="Calque_8" display="none">
	
		<rect x="161.997" y="20.832" transform="matrix(-0.3139 0.9495 -0.9495 -0.3139 304.0017 -83.02)" display="inline" fill="#1D71B8" stroke="#000000" stroke-width="2" stroke-miterlimit="10" width="40.001" height="95"/>
	
		<ellipse transform="matrix(-0.3139 0.9495 -0.9495 -0.3139 560.5602 -164.1983)" display="inline" fill="#C75A94" stroke="#000000" stroke-width="2" stroke-miterlimit="10" cx="339.607" cy="120.438" rx="33.999" ry="63.5"/>
	
		<ellipse transform="matrix(-0.3139 0.9495 -0.9495 -0.3139 446.1917 -128.0114)" display="inline" fill="#1D71B8" stroke="#000000" stroke-width="2" stroke-miterlimit="10" cx="269.348" cy="97.209" rx="45.001" ry="62.499"/>
	
		<rect x="149.182" y="53.092" transform="matrix(-0.3139 0.9495 -0.9495 -0.3139 283.1392 -76.4184)" display="inline" fill="#FFED00" stroke="#000000" stroke-width="2" stroke-miterlimit="10" width="39.997" height="22"/>
	
		<rect x="219.065" y="50.072" transform="matrix(-0.3137 0.9495 -0.9495 -0.3137 373.2606 -104.9715)" display="inline" fill="#FFED00" stroke="#000000" stroke-width="2" stroke-miterlimit="10" width="11.001" height="64.665"/>
	
		<rect x="121.335" y="46.413" transform="matrix(-0.3139 0.9495 -0.9495 -0.3139 222.3462 -57.1848)" display="inline" fill="#C75A94" stroke="#000000" stroke-width="2" stroke-miterlimit="10" width="21" height="10.666"/>
</g>
<g id="Calque_10" display="none">
	
		<rect x="162.245" y="27.613" transform="matrix(-0.1565 0.9877 -0.9877 -0.1565 296.4646 -74.9673)" display="inline" fill="#009FE3" stroke="#000000" stroke-width="2" stroke-miterlimit="10" width="36" height="123.001"/>
	
		<rect x="290.008" y="52.678" transform="matrix(-0.1565 0.9877 -0.9877 -0.1565 479.3136 -186.9964)" display="inline" fill="#E71D73" stroke="#000000" stroke-width="2" stroke-miterlimit="10" width="58.999" height="117"/>
	
		<rect x="82.888" y="66.767" transform="matrix(-0.1565 0.9877 -0.9877 -0.1565 202.4492 -17.361)" display="inline" fill="#FFED00" stroke="#000000" stroke-width="2" stroke-miterlimit="10" width="51.5" height="22"/>
	
		<rect x="226.533" y="89.916" transform="matrix(-0.1565 0.9877 -0.9877 -0.1565 388.7538 -131.5084)" display="inline" fill="#FFED00" stroke="#000000" stroke-width="2" stroke-miterlimit="10" width="48.001" height="20.667"/>
	
		<rect x="274.884" y="84.405" transform="matrix(-0.1565 0.9877 -0.9877 -0.1565 439.7548 -162.7671)" display="inline" fill="#FFED00" stroke="#000000" stroke-width="2" stroke-miterlimit="10" width="28.999" height="43.999"/>
	<path display="inline" fill="#FFED00" stroke="#000000" stroke-width="2" stroke-miterlimit="10" d="M384.142,134.58
		c5.183,0.821,10.048-2.713,10.869-7.896l1.097-6.914c0.819-5.182-2.715-10.047-7.896-10.868l0,0
		c-5.184-0.822-10.048,2.713-10.87,7.896l-1.097,6.913C375.425,128.894,378.96,133.759,384.142,134.58L384.142,134.58z"/>
</g>
<g id="Calque_11" display="none">
	
		<rect x="223.569" y="-0.76" transform="matrix(-0.1164 0.9932 -0.9932 -0.1164 396.9709 -140.6897)" display="inline" fill="#009FE3" stroke="#000000" stroke-width="2" stroke-miterlimit="10" width="75" height="214.002"/>
	
		<rect x="320.132" y="107.778" transform="matrix(-0.1164 0.9932 -0.9932 -0.1164 515.9445 -223.4713)" display="inline" fill="#009FE3" stroke="#000000" stroke-width="2" stroke-miterlimit="10" width="74.499" height="19.999"/>
	
		<rect x="96.645" y="77.603" transform="matrix(-0.1164 0.9932 -0.9932 -0.1164 248.2096 -36.62)" display="inline" fill="#FFED00" stroke="#000000" stroke-width="2" stroke-miterlimit="10" width="87.499" height="29"/>
	
		<rect x="169.249" y="87.632" transform="matrix(-0.1164 0.9932 -0.9932 -0.1164 319.5277 -86.5144)" display="inline" fill="#FFED00" stroke="#000000" stroke-width="2" stroke-miterlimit="10" width="58" height="22.499"/>
	
		<rect x="274.224" y="107.396" transform="matrix(-0.1164 0.9932 -0.9932 -0.1164 459.1029 -184.1627)" display="inline" fill="#E71D73" stroke="#000000" stroke-width="2" stroke-miterlimit="10" width="74.5" height="9.501"/>
	
		<rect x="288.792" y="109.104" transform="matrix(-0.1164 0.9932 -0.9932 -0.1164 477.0608 -196.7255)" display="inline" fill="#E71D73" stroke="#000000" stroke-width="2" stroke-miterlimit="10" width="74.5" height="9.499"/>
</g>
<g id="Calque_12">
	<path fill="#FFED00" stroke="#000000" stroke-width="2" stroke-miterlimit="10" d="M348.172,152.965
		c20.991,3.031,40.47-11.533,43.501-32.527c3.029-20.993-11.536-40.472-32.528-43.501c-20.992-3.03-40.472,11.535-43.5,32.528
		C312.613,130.456,327.178,149.936,348.172,152.965z"/>
	
		<rect x="128.647" y="45.312" transform="matrix(-0.1428 0.9897 -0.9897 -0.1428 241.6001 -41.3791)" fill="#FFED00" stroke="#000000" stroke-width="2" stroke-miterlimit="10" width="20.141" height="77.233"/>
	
		<ellipse transform="matrix(-0.1429 0.9897 -0.9897 -0.1429 354.1528 -113.5772)" fill="#C75A94" stroke="#000000" stroke-width="2" stroke-miterlimit="10" cx="226.256" cy="96.562" rx="26.16" ry="60.415"/>
	
		<rect x="284.66" y="86.686" transform="matrix(-0.1429 0.9897 -0.9897 -0.1429 449.2639 -174.5911)" fill="#3AAA35" stroke="#000000" stroke-width="2" stroke-miterlimit="10" width="31.143" height="41.107"/>
	
		<rect x="75.674" y="62.513" transform="matrix(-0.1428 0.9897 -0.9897 -0.1428 174.7577 1.499)" fill="#BE1622" stroke="#000000" stroke-width="2" stroke-miterlimit="10" width="22.111" height="27.821"/>
</g>
<g id="Calque_9" display="none">
	<g display="inline">
		
			<rect x="242.975" y="31.333" transform="matrix(0.8192 -0.5735 0.5735 0.8192 -1.8485 176.3951)" fill="#C75A94" stroke="#000000" stroke-width="2" stroke-miterlimit="10" width="71.756" height="119.593"/>
		
			<rect x="297.894" y="140.25" transform="matrix(0.8192 -0.5735 0.5735 0.8192 -28.8502 211.5678)" fill="#951B81" stroke="#000000" stroke-width="2" stroke-miterlimit="10" width="46.507" height="22.587"/>
		<path fill="#FCEA10" stroke="#000000" stroke-width="2" stroke-miterlimit="10" d="M350.757,164.877
			c5.05,7.215,3.299,17.158-3.916,22.211c-7.213,5.047-17.157,3.295-22.206-3.92c-5.047-7.214-3.297-17.158,3.918-22.205
			C335.767,155.91,345.708,157.664,350.757,164.877z"/>
		
			<rect x="213.166" y="22.923" transform="matrix(0.8192 -0.5735 0.5735 0.8192 24.1814 142.4848)" fill="#FFED00" stroke="#000000" stroke-width="2" stroke-miterlimit="10" width="49.83" height="19.932"/>
		
			<rect x="220.115" y="17.473" transform="matrix(0.8193 -0.5734 0.5734 0.8193 29.2803 135.8134)" fill="#C75A94" stroke="#000000" stroke-width="2" stroke-miterlimit="10" width="19.93" height="7.973"/>
		<circle fill="#FCEA10" stroke="#000000" stroke-width="2" stroke-miterlimit="10" cx="280.759" cy="93.85" r="49.83"/>
	</g>
</g>
<g id="Calque_3">
	<g>
		<circle fill="#E94E1B" stroke="#000000" stroke-width="2" stroke-miterlimit="10" cx="76.554" cy="292.49" r="45.968"/>
		<circle fill="#E94E1B" stroke="#000000" stroke-width="2" stroke-miterlimit="10" cx="427.747" cy="293.103" r="45.968"/>
		<path fill="#E94E1B" stroke="#000000" stroke-width="2" stroke-miterlimit="10" d="M427.746,340.906
			c0,30.465-24.697,55.162-55.162,55.162h-240.87c-30.464,0-55.161-24.697-55.161-55.162v-90.096
			c0-30.465,24.697-55.162,55.161-55.162h240.87c30.465,0,55.162,24.697,55.162,55.162V340.906z"/>
	</g>
</g>
<g id="Calque_2">
</g>
<g id="Calque_1">
	<g>
		<path fill="#E30613" stroke="#000000" stroke-width="2" stroke-miterlimit="10" d="M347.763,408.543
			c0,45.696-39.896,82.742-89.106,82.742h-13.014c-49.21,0-89.105-37.046-89.105-82.742V337.62
			c0-45.696,39.895-82.741,89.105-82.741h13.014c49.21,0,89.106,37.045,89.106,82.741V408.543z"/>
		<circle fill="#E30613" stroke="#000000" stroke-width="2" stroke-miterlimit="10" cx="252.15" cy="253.568" r="137.903"/>
	</g>
	<g>
	</g>
	<g>
	</g>
	<g>
	</g>
	<g>
	</g>
	<g>
	</g>
	<g>
	</g>
</g>
</svg>
